<svg xmlns="http://www.w3.org/2000/svg" class="route-diagram place-diagram" viewBox="0 0 440 320" width="440" height="320" role="img" aria-labelledby="title-card-image-2gis-70000001044599664" data-focus-lon="20.487113" data-focus-lat="54.955145" data-projection-coords="[[20.487113,54.955145]]" data-theme="day"><title id="title-card-image-2gis-70000001044599664">Кранц Пицца: берег и улицы рядом</title><style>
.route-context { --context-sea:#d0e1e9;--context-land:#f3f3ec;--context-green:#e2e9dd;--context-sand:#ece3d1;--context-water:#c8dee8;--context-road:#d8dcd8;--context-major:#c3cdd0;--context-coast:#a9c2ce;--context-rail:#c5cac5; }
.context-sea { fill:var(--context-sea); }
.context-land { fill:var(--context-land); }
.context-green { fill:var(--context-green); }
.context-sand { fill:var(--context-sand); }
.context-water { fill:var(--context-water); }
.context-building { fill:var(--context-building,#dde0d9);stroke:var(--context-building-line,#ccd3d0);stroke-width:.3px; }
.context-road,.context-major-road,.context-rail,.context-coastline,.context-waterline { fill:none;stroke-linecap:round;stroke-linejoin:round; }
.context-road { stroke:var(--context-road);stroke-width:.65px; }
.context-major-road { stroke:var(--context-major);stroke-width:1.4px; }
.context-rail { stroke:var(--context-rail);stroke-width:.7px;stroke-dasharray:2 3; }
.context-coastline { stroke:var(--context-coast);stroke-width:1px; }
.context-waterline { stroke:var(--context-water);stroke-width:2px; }
:root[data-theme=night] .route-context { --context-sea:#152f42;--context-land:#26343a;--context-green:#2a3b39;--context-sand:#393b36;--context-water:#1e4255;--context-road:#34434b;--context-major:#43545d;--context-coast:#426075;--context-rail:#3a484d; }
:root[data-theme=night] .route-context { --context-building:#35464d;--context-building-line:#42535b; }
.place-focus-ring { fill: #c9b08a; fill-opacity: .17; stroke: #ad865b; stroke-width: .7px; }
.place-focus { fill: #9d703f; stroke: #f7f5ef; stroke-width: 2px; }</style><defs><clipPath id="context-card-image-2gis-70000001044599664"><rect width="440" height="320" rx="3"/></clipPath></defs><g class="route-context" aria-hidden="true" clip-path="url(#context-card-image-2gis-70000001044599664)" data-source="OpenStreetMap" data-snapshot="2026-10-01"><rect class="context-sea" width="440" height="320"/><path class="context-land" fill-rule="evenodd" d="M 440.0 0.0 L 440.0 320.0 L 0.0 320.0 L 0.0 0.0 Z"/><path class="context-green" fill-rule="evenodd" d="M 20.1 320.0 L 21.9 311.6 L 24.4 297.7 L 37.7 301.8 L 45.2 302.3 L 52.5 296.0 L 58.5 295.8 L 67.4 300.4 L 75.2 305.0 L 74.7 308.2 L 72.8 311.1 L 69.2 310.6 L 65.7 311.9 L 60.6 318.2 L 56.6 318.2 L 54.0 320.0 Z M 428.9 320.0 L 428.4 303.0 L 423.0 298.2 L 415.4 296.4 L 404.0 291.2 L 400.3 293.9 L 394.0 296.4 L 386.2 297.3 L 380.1 298.8 L 371.4 299.1 L 364.4 297.0 L 355.7 290.0 L 349.0 294.8 L 339.4 298.5 L 330.9 299.4 L 323.7 296.7 L 318.3 291.8 L 313.7 286.1 L 305.9 286.7 L 302.3 285.2 L 306.8 259.2 L 312.8 235.7 L 318.0 223.6 L 330.0 211.0 L 326.1 202.7 L 324.9 171.9 L 349.1 149.4 L 355.6 145.9 L 364.4 154.9 L 397.8 123.6 L 404.5 121.9 L 410.0 119.8 L 412.5 117.3 L 412.5 114.3 L 416.8 110.0 L 418.5 106.7 L 423.4 102.3 L 425.3 97.7 L 440.0 70.8 L 440.0 320.0 Z M 9.5 314.7 L 9.2 320.0 L 0.0 320.0 L 0.0 298.4 ZM 9.8 244.4 L 14.3 249.3 L 0.8 260.4 L 0.0 263.8 L 0.0 249.1 Z M 38.6 194.9 L 36.2 191.4 L 35.2 187.2 L 36.0 183.1 L 38.2 179.5 L 41.7 177.0 L 45.9 176.1 L 50.1 176.8 L 53.7 179.1 L 56.1 182.6 L 57.1 186.7 L 56.3 190.9 L 54.0 194.5 L 50.6 196.9 L 46.4 197.9 L 42.2 197.2 Z M 61.1 170.8 L 65.1 171.5 L 75.7 169.8 L 78.0 172.1 L 62.8 175.2 L 60.5 175.2 L 57.2 174.5 L 52.3 172.7 L 57.6 168.5 Z M 86.8 168.7 L 86.3 171.2 L 80.1 172.2 L 77.2 169.8 Z M 81.3 315.8 L 84.0 320.0 L 53.9 319.9 L 56.6 318.2 L 60.6 318.2 L 65.7 311.9 L 69.2 310.6 L 72.8 311.1 L 74.7 308.2 Z M 47.2 280.8 L 44.1 283.6 L 41.1 279.8 L 36.6 282.6 L 39.0 287.2 L 0.0 297.3 L 0.0 263.8 L 0.8 260.4 L 14.3 249.3 L 9.8 244.4 L 0.0 249.1 L 0.0 235.9 L 3.6 237.6 L 11.4 234.1 L 17.7 226.0 L 22.5 223.1 L 24.7 227.4 L 31.4 232.1 L 35.3 231.7 L 45.7 241.3 L 51.6 235.3 L 65.1 246.7 Z "/><path class="context-water" fill-rule="evenodd" d="M 130.2 220.0 L 138.2 224.7 L 150.6 233.0 L 153.1 236.4 L 154.2 238.5 L 154.2 239.7 L 153.0 240.4 L 146.0 242.9 L 143.6 245.7 L 138.1 248.9 L 131.9 251.1 L 128.9 252.7 L 123.0 250.0 L 117.4 244.6 L 113.6 242.4 L 111.8 238.1 L 110.6 233.6 L 112.0 231.4 L 114.4 230.0 L 117.2 222.0 L 122.5 219.1 Z M 138.2 184.6 L 136.5 182.9 L 138.8 179.4 L 145.3 178.4 L 155.0 171.3 L 161.5 162.2 L 184.2 143.7 L 190.4 144.2 L 195.9 150.8 L 197.6 157.7 L 197.3 162.4 L 193.9 168.7 L 186.7 172.8 L 183.4 179.7 L 176.5 184.4 L 168.5 185.5 L 159.4 183.3 L 153.3 184.9 L 141.2 187.1 L 138.1 188.0 Z M 190.9 206.1 L 196.5 201.6 L 205.1 196.6 L 205.8 183.9 L 209.9 171.7 L 232.4 173.3 L 232.5 180.3 L 234.3 190.9 L 238.4 197.7 L 245.3 196.7 L 247.9 199.6 L 244.2 214.5 L 230.7 227.1 L 220.9 231.4 L 212.3 228.2 L 205.1 227.9 L 189.7 212.6 Z "/><path class="context-building" fill-rule="evenodd" d="M 47.8 134.8 L 70.1 155.3 L 79.7 154.1 L 80.5 160.3 L 68.2 161.9 L 65.5 164.8 L 41.0 142.2 Z M 111.9 149.0 L 112.5 158.6 L 109.9 160.5 L 103.5 160.9 L 102.9 149.4 Z M 83.1 198.6 L 82.3 197.9 L 84.7 195.6 L 87.4 198.4 L 80.6 204.9 L 69.6 193.3 L 71.7 191.4 L 80.7 200.9 Z M 136.9 148.6 L 150.3 140.4 L 153.1 144.6 L 139.5 153.5 Z M 339.1 78.4 L 318.8 97.9 L 315.0 93.7 L 335.4 74.3 Z M 321.7 196.2 L 306.1 211.2 L 302.1 207.0 L 317.6 192.0 Z M 297.2 71.3 L 292.1 76.3 L 278.5 63.7 L 281.0 61.2 L 279.2 59.4 L 299.8 41.3 L 308.5 49.2 L 305.3 53.5 L 300.9 49.2 L 288.3 61.4 Z M 320.2 184.6 L 316.2 188.3 L 295.2 165.6 L 299.1 161.9 Z M 360.2 139.6 L 359.0 141.0 L 364.2 145.2 L 389.3 122.2 L 388.0 120.8 L 391.8 117.4 L 397.8 123.6 L 364.4 154.9 L 350.5 140.7 L 356.4 135.5 Z M 322.0 18.2 L 327.8 13.0 L 328.3 13.6 L 330.3 11.6 L 331.8 11.7 L 333.4 13.5 L 333.9 13.1 L 340.9 20.2 L 342.7 22.4 L 342.6 23.4 L 342.1 23.9 L 342.5 24.4 L 341.7 25.1 L 337.8 24.6 L 337.2 25.2 L 336.1 25.5 L 332.8 22.0 L 333.5 21.3 L 331.3 19.0 L 330.2 19.0 L 328.7 19.6 L 327.8 21.2 L 328.5 21.9 L 323.8 26.4 L 323.1 25.6 L 320.9 27.8 L 321.5 28.5 L 316.8 32.9 L 316.1 32.2 L 315.1 33.1 L 314.3 33.1 L 313.4 32.1 L 313.2 31.3 L 312.7 30.8 L 312.0 30.6 L 311.1 29.7 L 311.0 28.9 L 313.8 26.3 L 315.0 24.8 L 315.2 24.9 Z M 387.4 114.1 L 367.3 92.4 L 371.5 88.7 L 391.5 110.3 Z M 292.9 167.6 L 291.9 168.5 L 289.8 170.8 L 289.3 170.3 L 288.4 171.2 L 284.7 175.8 L 284.1 175.2 L 283.3 176.0 L 281.7 178.1 L 279.6 180.5 L 279.0 179.8 L 276.5 182.2 L 275.4 181.0 L 273.2 179.3 L 275.0 177.5 L 274.6 177.1 L 277.8 173.9 L 279.9 172.6 L 283.0 169.1 L 285.1 167.7 L 288.1 164.2 L 289.4 163.8 Z M 329.9 41.2 L 335.2 47.0 L 321.0 59.9 L 315.7 54.0 Z M 346.8 130.3 L 330.3 112.2 L 330.8 111.7 L 327.9 108.5 L 352.9 85.1 L 356.6 89.1 L 335.2 109.1 L 350.9 126.4 Z M 22.0 134.8 L 28.1 140.5 L 23.5 144.6 L 17.5 138.8 Z M 336.2 302.5 L 335.4 302.6 L 335.1 301.5 L 335.9 301.3 Z M 117.4 265.7 L 113.2 270.6 L 108.7 266.8 L 112.9 261.9 Z M 159.2 313.2 L 151.4 304.6 L 154.1 302.1 L 161.9 310.7 Z M 196.4 242.6 L 194.3 244.9 L 192.0 242.7 L 194.0 240.4 Z M 117.8 279.4 L 113.6 283.8 L 106.7 277.3 L 110.9 272.8 Z M 157.2 253.1 L 155.8 254.3 L 156.4 255.0 L 151.7 259.0 L 143.9 265.4 L 143.3 264.7 L 141.1 266.6 L 138.7 263.8 L 139.5 263.0 L 138.5 261.8 L 139.9 260.7 L 152.0 249.8 L 153.8 249.1 Z M 135.6 295.9 L 140.1 291.7 L 147.4 299.8 L 142.8 303.9 Z M 137.5 320.0 L 131.6 320.0 L 126.9 313.6 L 130.8 310.8 Z M 216.1 263.3 L 213.3 266.8 L 210.1 264.2 L 212.9 260.7 Z M 100.7 278.4 L 91.7 286.2 L 88.1 282.1 L 97.1 274.3 Z M 134.4 307.0 L 127.4 312.6 L 123.5 307.6 L 130.5 302.1 Z M 340.2 301.2 L 339.0 301.6 L 338.7 300.5 L 339.9 300.1 Z M 100.0 292.1 L 97.1 296.3 L 95.3 295.1 L 98.2 290.9 Z M 103.9 263.1 L 99.1 268.2 L 96.4 265.5 L 101.5 260.5 Z M 166.5 316.2 L 163.0 320.0 L 154.7 320.0 L 161.9 312.0 Z M 324.4 303.3 L 321.9 302.1 L 323.5 298.7 L 326.0 299.9 Z M 225.8 259.5 L 219.5 265.3 L 199.9 244.2 L 206.2 238.4 Z M 111.9 260.3 L 107.9 265.5 L 104.8 263.1 L 108.7 258.0 Z M 56.7 278.0 L 62.3 283.3 L 66.3 279.9 L 69.3 282.9 L 63.1 289.6 L 51.7 281.3 L 63.7 257.8 L 66.4 259.5 Z M 117.7 316.1 L 113.5 319.1 L 109.8 313.9 L 114.0 310.9 Z M 83.4 238.5 L 80.1 235.7 L 83.2 232.3 L 85.9 236.0 Z M 104.9 254.0 L 101.7 257.4 L 97.7 253.5 L 101.1 249.9 Z M 107.5 256.6 L 103.5 260.4 L 101.9 259.0 L 105.6 255.0 Z M 397.1 314.0 L 395.9 315.0 L 394.7 313.6 L 395.9 312.6 Z M 91.9 255.8 L 77.5 272.1 L 70.0 265.5 L 84.4 249.2 Z M 93.7 241.4 L 89.7 246.4 L 83.5 241.5 L 87.5 236.4 Z M 140.4 288.7 L 138.3 290.7 L 136.3 288.7 L 138.4 286.6 Z M 113.3 288.0 L 111.1 290.0 L 115.7 295.2 L 111.7 298.6 L 106.8 293.0 L 109.4 290.8 L 105.9 286.7 L 109.4 283.6 Z M 141.6 317.3 L 139.7 319.3 L 137.9 317.6 L 139.8 315.6 Z M 155.5 280.0 L 156.2 279.1 L 156.8 279.7 L 157.5 278.9 L 159.1 280.2 L 159.6 279.7 L 160.3 279.8 L 160.7 280.5 L 160.4 281.1 L 164.2 284.4 L 163.3 285.2 L 164.5 286.2 L 166.0 286.0 L 168.2 287.9 L 169.0 287.9 L 170.4 289.7 L 167.7 292.9 L 167.1 293.1 L 165.4 291.7 L 165.3 290.9 L 163.1 289.8 L 162.1 290.4 L 160.4 289.0 L 160.3 288.2 L 158.3 287.2 L 158.2 286.4 L 156.2 285.5 L 156.1 284.6 L 154.0 283.7 L 154.1 283.0 L 154.0 282.3 L 155.6 280.3 Z M 367.9 301.9 L 364.8 301.1 L 365.4 299.2 L 368.5 300.0 Z M 95.7 316.6 L 91.8 320.0 L 87.3 320.0 L 93.4 314.0 Z M 361.3 107.3 L 357.8 110.5 L 355.8 108.2 L 359.3 105.0 Z M 429.6 84.3 L 425.7 88.0 L 419.3 81.4 L 423.2 77.7 Z M 434.9 24.8 L 428.6 30.8 L 419.2 21.1 L 425.5 15.0 Z M 183.9 10.5 L 178.9 11.5 L 178.0 7.4 L 183.1 6.4 Z M 206.0 70.6 L 211.3 68.1 L 215.5 82.2 L 209.3 88.0 L 203.2 88.0 L 203.1 88.8 L 185.0 89.5 L 185.0 81.2 L 204.1 80.9 L 208.3 78.5 Z M 252.4 49.4 L 249.4 49.4 L 249.4 46.8 L 252.4 46.8 Z M 194.3 43.5 L 188.7 42.9 L 189.3 37.7 L 194.8 38.3 Z M 426.7 58.1 L 391.9 91.1 L 389.1 88.1 L 423.9 55.1 Z M 400.7 71.0 L 388.6 81.9 L 386.3 79.3 L 398.4 68.5 Z M 410.5 88.0 L 423.4 102.3 L 418.5 106.7 L 405.6 92.4 Z M 433.8 76.2 L 430.1 79.6 L 424.9 74.0 L 428.6 70.6 Z M 394.7 69.6 L 386.1 76.2 L 380.7 68.4 L 389.5 61.9 Z M 409.2 25.5 L 407.0 27.6 L 405.0 25.5 L 407.2 23.4 Z M 436.0 48.8 L 432.2 44.5 L 440.0 37.5 L 440.0 45.3 Z M 373.9 34.3 L 372.8 35.2 L 376.8 40.7 L 375.7 41.5 L 380.0 47.5 L 375.8 50.7 L 371.5 44.6 L 372.5 43.9 L 368.5 38.2 L 369.6 37.5 L 365.4 31.6 L 369.8 28.5 Z M 360.8 67.0 L 356.6 71.3 L 355.0 69.7 L 359.2 65.5 Z M 412.9 43.8 L 398.1 58.1 L 393.0 52.8 L 407.8 38.5 Z M 373.4 67.8 L 371.9 69.2 L 370.3 67.6 L 371.9 66.1 Z M 408.0 112.6 L 412.5 117.3 L 410.0 119.8 L 405.5 115.1 Z M 418.9 22.8 L 415.3 26.2 L 413.2 24.0 L 416.8 20.6 Z M 405.2 35.5 L 401.6 39.8 L 397.0 35.8 L 400.6 31.6 Z M 323.6 217.4 L 322.2 216.6 L 323.0 215.3 L 324.4 216.0 Z M 233.4 0.0 L 233.5 0.8 L 211.0 4.2 L 210.4 0.0 Z M 224.0 47.4 L 225.0 56.6 L 230.3 58.8 L 236.9 52.5 L 240.9 58.4 L 230.7 66.4 L 218.7 62.0 L 216.3 48.7 Z M 437.9 38.4 L 436.2 36.9 L 440.0 32.6 L 440.0 36.1 Z M 437.2 61.8 L 439.7 64.3 L 434.9 69.1 L 432.4 66.6 Z M 74.9 102.0 L 68.9 102.2 L 68.3 87.9 L 74.3 87.7 Z M 168.4 74.7 L 163.5 75.0 L 162.6 59.3 L 167.5 59.0 Z M 183.1 34.7 L 181.6 52.1 L 175.3 51.5 L 176.8 34.1 Z M 165.0 32.7 L 163.1 51.0 L 157.0 50.4 L 158.9 32.1 Z M 177.6 58.6 L 177.2 72.7 L 173.0 72.6 L 173.4 58.5 Z M 139.4 74.5 L 136.0 74.0 L 136.8 69.3 L 135.2 69.1 L 137.7 52.6 L 142.8 53.3 Z M 137.9 102.7 L 137.8 104.1 L 138.6 105.0 L 140.6 106.7 L 141.1 108.0 L 155.1 109.1 L 156.0 108.3 L 157.8 106.3 L 158.9 105.8 L 159.0 104.4 L 165.1 104.9 L 164.9 107.2 L 164.4 108.2 L 163.1 109.3 L 164.0 110.3 L 160.3 113.8 L 158.7 114.8 L 157.9 113.8 L 156.5 115.0 L 155.5 114.9 L 151.5 114.9 L 151.4 115.6 L 149.1 115.4 L 143.5 114.9 L 143.6 114.3 L 139.6 114.0 L 138.6 113.5 L 137.5 112.1 L 136.5 113.0 L 133.1 109.4 L 132.1 107.7 L 133.1 106.9 L 132.0 105.6 L 132.1 104.5 L 131.9 102.2 Z M 437.4 56.5 L 435.2 54.2 L 440.0 49.8 L 440.0 54.1 Z M 432.5 56.5 L 435.3 59.5 L 427.5 66.9 L 429.4 69.0 L 396.6 100.2 L 391.9 95.2 Z M 419.9 0.0 L 418.3 1.6 L 416.7 0.0 Z M 422.0 54.2 L 408.3 66.2 L 406.6 64.3 L 402.7 67.7 L 400.0 64.6 L 417.6 49.2 Z M 403.7 0.0 L 391.2 11.6 L 384.8 4.7 L 376.0 13.0 L 377.7 14.8 L 372.4 19.6 L 370.5 17.6 L 368.5 14.6 L 365.3 11.8 L 363.9 9.5 L 361.5 7.9 L 366.8 3.0 L 371.3 7.9 L 379.6 0.0 Z M 200.4 16.1 L 195.6 17.0 L 194.4 10.5 L 199.1 9.6 Z M 432.4 53.0 L 427.1 57.6 L 420.8 50.3 L 426.1 45.7 Z M 199.1 5.8 L 195.8 6.3 L 195.0 0.9 L 198.4 0.4 Z M 177.8 88.9 L 174.3 89.0 L 173.8 77.4 L 177.3 77.2 Z M 248.0 41.9 L 241.5 42.7 L 237.6 8.9 L 244.0 8.1 Z M 227.2 71.8 L 225.7 74.5 L 222.7 74.6 L 221.1 72.0 L 222.5 69.3 L 225.6 69.2 Z M 169.0 90.5 L 165.6 90.6 L 165.1 79.5 L 168.5 79.3 Z M 206.8 48.6 L 203.1 48.9 L 202.9 46.5 L 206.6 46.2 Z M 416.8 110.0 L 412.5 114.3 L 398.6 100.1 L 403.0 95.8 Z M 201.9 31.3 L 197.7 31.9 L 196.7 25.6 L 200.9 24.9 Z M 300.6 276.3 L 299.6 276.0 L 300.0 274.6 L 301.0 274.9 Z M 146.0 83.1 L 145.5 88.3 L 137.6 87.5 L 138.1 82.3 Z M 186.4 21.7 L 180.6 22.7 L 179.5 16.0 L 185.3 15.1 Z M 425.7 92.9 L 421.4 97.1 L 412.3 87.9 L 416.7 83.7 Z M 201.7 21.8 L 197.7 22.6 L 197.1 19.4 L 201.1 18.7 Z M 326.0 211.4 L 325.8 212.0 L 324.7 211.5 L 325.0 210.9 Z M 20.8 48.6 L 16.0 49.1 L 15.4 42.3 L 20.2 41.9 Z M 31.0 38.1 L 31.3 41.9 L 25.6 42.4 L 25.3 38.6 Z M 49.1 32.6 L 42.7 32.3 L 42.9 27.7 L 45.7 27.8 L 45.8 26.2 L 47.5 26.2 L 47.5 27.9 L 49.3 28.0 Z M 19.7 39.8 L 13.8 40.3 L 13.4 34.2 L 19.2 33.8 Z M 29.0 19.3 L 23.6 20.2 L 22.5 13.5 L 27.9 12.6 Z M 90.1 29.2 L 90.2 38.1 L 84.2 38.2 L 84.1 29.2 Z M 19.1 32.0 L 11.6 32.6 L 11.3 28.4 L 18.8 27.8 Z M 171.0 7.8 L 166.6 7.3 L 167.2 2.4 L 171.6 2.9 Z M 12.5 115.2 L 7.9 111.0 L 21.4 97.9 L 25.9 102.6 Z M 88.0 57.3 L 82.0 57.5 L 81.7 47.9 L 87.7 47.8 Z M 100.7 0.0 L 96.3 0.9 L 96.2 0.0 Z M 164.5 19.0 L 164.2 21.5 L 168.2 21.8 L 167.8 26.3 L 155.4 25.2 L 156.0 18.3 Z M 56.3 50.5 L 56.2 54.5 L 43.9 54.1 L 44.1 50.1 Z M 12.0 24.3 L 5.0 25.1 L 4.1 16.4 L 11.1 15.7 Z M 150.2 20.3 L 149.6 24.9 L 142.1 24.0 L 142.6 19.4 Z M 127.7 8.4 L 128.4 8.4 L 128.6 11.1 L 127.9 11.2 L 128.1 14.1 L 129.0 14.1 L 129.3 17.0 L 128.3 17.1 L 128.4 17.9 L 130.2 19.3 L 126.9 23.4 L 125.1 22.0 L 124.0 22.1 L 123.1 23.1 L 121.9 22.2 L 118.8 22.5 L 118.2 23.3 L 116.8 23.4 L 115.8 22.7 L 114.1 22.8 L 113.7 17.0 L 115.5 16.9 L 115.4 15.5 L 118.2 15.3 L 118.3 16.6 L 121.2 16.4 L 121.1 14.6 L 122.9 14.5 L 122.7 11.6 L 121.5 11.7 L 121.3 8.9 L 122.5 8.9 L 122.4 7.4 L 127.6 7.0 Z M 66.2 70.3 L 58.5 70.4 L 58.4 64.9 L 66.2 64.7 Z M 178.0 25.9 L 171.2 25.6 L 171.5 20.1 L 178.2 20.4 Z M 150.2 11.6 L 149.2 11.5 L 149.0 13.7 L 150.8 13.9 L 150.5 16.9 L 143.9 16.2 L 144.6 8.9 L 150.4 9.5 Z M 149.0 0.0 L 149.0 1.0 L 147.9 1.0 L 148.0 3.8 L 144.1 3.9 L 144.0 0.0 Z M 84.3 4.9 L 83.8 15.2 L 77.0 14.9 L 77.5 4.6 Z M 54.8 13.8 L 48.9 13.8 L 48.8 8.3 L 54.8 8.2 Z M 65.9 41.4 L 61.6 41.3 L 61.6 39.1 L 66.0 39.2 Z M 57.4 36.4 L 57.2 42.3 L 46.1 42.0 L 46.2 36.1 Z M 32.3 30.0 L 32.5 33.3 L 29.0 33.5 L 29.2 37.1 L 24.7 37.4 L 24.2 30.5 Z M 33.1 48.7 L 25.5 49.2 L 25.0 43.2 L 32.7 42.6 Z M 106.5 17.6 L 100.5 17.8 L 100.2 8.4 L 106.2 8.1 Z M 79.8 31.7 L 71.0 31.3 L 71.3 25.1 L 73.2 25.2 L 73.3 24.5 L 78.5 24.7 L 78.5 25.4 L 80.0 25.5 Z M 28.0 3.3 L 24.3 3.4 L 24.3 1.2 L 28.0 1.1 Z M 2.4 89.0 L 0.0 91.4 L 0.0 86.6 Z M 39.1 0.0 L 39.3 2.2 L 36.5 2.5 L 36.3 0.0 Z M 11.1 35.5 L 11.3 39.7 L 6.8 40.0 L 6.6 35.7 Z M 26.8 4.3 L 27.4 10.9 L 22.7 11.3 L 22.1 4.7 Z M 4.9 67.5 L 12.7 76.8 L 15.1 79.7 L 9.6 84.3 L 0.0 72.8 L 0.0 71.5 Z M 60.6 108.2 L 60.6 110.8 L 64.6 113.7 L 75.5 113.6 L 75.5 109.5 L 82.3 109.4 L 82.0 120.7 L 62.3 120.5 L 56.7 116.9 L 53.7 113.4 L 53.5 108.7 Z M 46.7 65.5 L 52.8 65.6 L 52.7 69.9 L 46.6 69.8 Z M 71.6 77.1 L 73.7 76.7 L 75.7 77.1 L 75.7 82.9 L 73.8 83.0 L 69.9 83.0 L 69.9 81.4 L 69.3 81.4 L 69.2 78.8 L 69.9 78.8 L 69.9 77.1 Z M 74.1 64.9 L 74.0 69.6 L 68.9 69.5 L 69.0 64.8 Z M 85.1 66.6 L 85.0 71.0 L 78.9 70.9 L 79.0 66.5 Z M 46.7 76.6 L 53.8 76.7 L 53.7 81.7 L 46.6 81.6 Z M 41.7 72.4 L 37.0 72.3 L 37.1 66.5 L 41.8 66.6 Z M 103.3 76.4 L 103.3 78.0 L 103.7 79.6 L 104.0 81.3 L 103.6 82.9 L 102.9 82.9 L 102.8 84.5 L 103.5 84.5 L 104.3 85.2 L 105.7 86.3 L 106.3 87.3 L 106.2 88.0 L 107.8 88.0 L 107.8 87.3 L 111.1 86.9 L 114.3 87.3 L 114.3 88.1 L 115.9 88.1 L 115.9 89.7 L 116.9 89.8 L 116.9 91.8 L 115.8 91.7 L 115.8 93.4 L 112.6 93.3 L 107.7 93.7 L 107.7 93.0 L 105.8 93.0 L 104.6 92.4 L 100.6 92.9 L 100.6 93.5 L 97.9 93.5 L 97.9 91.1 L 98.4 88.2 L 98.0 86.6 L 97.7 82.9 L 96.9 80.4 L 97.2 77.9 L 97.7 76.3 Z M 115.2 116.7 L 112.1 117.1 L 112.2 117.7 L 109.2 118.1 L 109.1 117.4 L 103.2 118.1 L 103.2 118.8 L 100.2 119.2 L 100.2 118.5 L 97.5 118.8 L 96.8 119.2 L 95.7 119.0 L 95.3 118.0 L 95.5 117.2 L 94.5 108.7 L 93.9 108.8 L 93.5 105.9 L 94.2 105.7 L 93.8 102.6 L 99.7 101.9 L 100.1 105.2 L 100.7 107.8 L 100.9 112.5 L 108.6 111.5 L 114.5 110.9 Z M 247.5 157.1 L 250.0 159.9 L 250.6 159.4 L 252.3 161.2 L 251.7 161.8 L 254.4 164.5 L 256.4 167.2 L 257.2 167.2 L 259.6 165.0 L 261.3 162.9 L 262.4 162.0 L 264.1 160.8 L 264.9 159.5 L 269.6 155.3 L 269.0 154.7 L 270.9 153.0 L 271.5 153.6 L 274.1 150.9 L 275.9 152.8 L 278.5 155.2 L 278.8 156.0 L 276.5 158.7 L 272.7 162.1 L 270.2 163.6 L 269.2 165.5 L 258.0 175.7 L 256.5 175.7 L 255.7 175.4 L 244.7 164.8 L 243.4 163.2 L 242.5 161.8 L 243.1 161.3 L 245.3 158.6 L 245.6 158.9 Z M 245.5 113.3 L 230.6 127.1 L 221.7 117.6 L 221.0 118.0 L 220.2 117.2 L 220.3 113.6 L 221.2 112.8 L 221.8 113.5 L 233.3 102.7 Z M 304.6 0.0 L 292.3 12.9 L 287.0 7.8 L 294.4 0.0 Z M 375.6 84.1 L 368.1 91.1 L 360.5 82.9 L 367.9 75.9 Z M 273.8 18.2 L 274.0 12.4 L 273.1 11.3 L 277.6 7.3 L 281.4 10.7 L 280.9 20.4 L 263.2 36.3 L 259.3 31.8 Z M 52.5 205.2 L 56.7 209.2 L 56.2 209.6 L 63.1 216.3 L 60.3 219.2 L 49.3 208.5 Z M 88.4 0.0 L 88.4 3.0 L 83.4 3.0 L 83.4 0.0 Z M 99.5 209.5 L 103.8 213.8 L 109.3 208.3 L 113.7 212.7 L 102.4 223.9 L 93.8 215.2 Z M 36.7 133.6 L 43.1 127.9 L 44.8 129.8 L 38.5 135.6 Z M 58.9 1.8 L 64.7 1.5 L 65.0 5.7 L 59.1 6.0 Z M 343.2 49.0 L 340.2 46.4 L 337.3 45.0 L 335.2 47.0 L 329.9 41.2 L 334.4 37.1 L 339.9 38.1 L 347.1 44.4 Z M 297.7 96.4 L 298.7 95.4 L 302.3 99.0 L 301.5 99.8 L 304.6 102.9 L 305.3 102.2 L 308.4 105.4 L 307.5 106.3 L 311.8 110.6 L 312.5 109.9 L 315.6 113.1 L 314.8 113.8 L 316.3 115.4 L 312.2 119.5 L 310.6 117.9 L 306.9 114.7 L 307.3 114.2 L 299.9 107.1 L 293.8 100.7 L 292.6 98.8 L 296.4 95.0 Z M 278.7 107.1 L 280.2 108.5 L 281.0 107.7 L 284.8 111.7 L 284.0 112.5 L 286.8 115.4 L 287.5 114.7 L 291.4 118.8 L 290.7 119.5 L 294.2 123.4 L 294.9 122.7 L 298.9 126.7 L 298.0 127.5 L 299.5 128.9 L 296.7 131.7 L 295.1 130.2 L 294.3 131.0 L 290.4 126.9 L 291.3 126.0 L 287.7 122.3 L 286.9 123.1 L 283.0 119.0 L 283.7 118.1 L 281.1 115.2 L 280.2 116.0 L 276.5 112.1 L 277.3 111.3 L 275.8 109.9 Z M 272.0 100.6 L 271.5 101.0 L 270.7 100.2 L 268.1 98.0 L 267.4 96.9 L 267.9 96.5 L 266.3 94.6 L 266.8 94.2 L 266.3 93.7 L 267.2 92.9 L 267.9 91.6 L 267.4 91.1 L 270.1 88.7 L 270.5 89.2 L 272.9 87.2 L 273.4 87.7 L 274.0 87.1 L 273.6 86.6 L 275.8 84.3 L 275.3 83.8 L 277.9 81.4 L 278.3 81.9 L 279.4 80.9 L 280.5 80.4 L 281.0 80.9 L 281.7 80.2 L 286.6 85.4 L 286.1 85.8 L 287.3 87.1 L 284.2 90.0 L 283.3 90.0 L 282.5 89.1 L 280.9 87.9 L 280.9 87.1 L 278.4 89.3 L 278.0 88.8 L 274.7 91.8 L 275.2 92.4 L 272.9 94.5 L 273.4 95.0 L 275.1 96.1 L 275.5 97.3 L 275.0 97.7 L 275.4 98.2 L 272.4 101.0 Z M 89.6 26.5 L 84.7 26.5 L 84.7 20.6 L 89.6 20.6 Z M 248.0 88.7 L 270.6 67.8 L 275.6 73.2 L 253.0 94.1 Z M 258.0 135.0 L 255.8 137.0 L 256.3 137.5 L 253.7 139.8 L 253.3 139.4 L 249.1 143.3 L 249.6 143.8 L 247.1 146.1 L 246.7 145.7 L 242.7 149.4 L 243.1 149.9 L 240.6 152.2 L 240.2 151.8 L 236.0 155.7 L 236.4 156.2 L 233.9 158.6 L 233.5 158.1 L 229.2 162.1 L 229.7 162.6 L 227.2 164.9 L 226.8 164.5 L 226.2 165.0 L 224.9 165.5 L 224.1 164.6 L 222.4 163.6 L 222.0 164.0 L 219.6 161.5 L 220.1 161.1 L 217.9 158.8 L 222.2 154.7 L 223.5 156.1 L 225.5 157.5 L 229.7 153.5 L 228.7 152.4 L 230.6 150.6 L 231.6 151.7 L 236.4 147.2 L 235.4 146.0 L 237.3 144.3 L 238.0 145.1 L 242.5 140.7 L 241.8 140.0 L 243.7 138.2 L 244.8 139.3 L 249.6 134.8 L 248.5 133.6 L 250.4 131.9 L 251.5 133.0 L 253.9 130.7 Z M 0.3 5.3 L 0.9 5.2 L 1.2 8.2 L 0.6 8.3 L 0.9 11.7 L 0.0 11.8 L 0.0 2.6 Z M 13.5 135.2 L 8.7 139.8 L 0.0 130.7 L 0.0 121.4 Z M 207.7 285.0 L 213.3 291.4 L 195.7 306.2 L 190.7 300.2 Z M 172.9 260.8 L 175.1 258.8 L 176.7 256.2 L 178.2 255.1 L 178.6 255.5 L 179.8 254.1 L 180.6 254.7 L 181.4 253.7 L 182.1 253.8 L 184.5 255.8 L 184.7 256.5 L 183.9 257.5 L 184.7 258.1 L 183.6 259.5 L 184.1 259.9 L 184.0 260.6 L 183.4 261.3 L 181.3 263.3 L 180.4 264.9 L 178.5 266.7 L 177.7 268.2 L 175.2 270.7 L 174.6 272.0 L 174.0 272.2 L 171.8 273.9 L 172.8 274.8 L 172.4 275.4 L 173.7 276.5 L 175.4 277.3 L 175.9 276.7 L 177.8 278.3 L 177.3 278.9 L 178.4 279.8 L 181.2 282.6 L 182.8 283.5 L 183.3 282.9 L 185.3 284.5 L 184.8 285.1 L 185.9 286.0 L 186.1 286.7 L 185.7 287.1 L 187.8 289.0 L 187.8 289.7 L 186.2 291.5 L 185.5 291.7 L 184.7 291.0 L 183.7 292.2 L 182.4 291.1 L 182.0 291.6 L 181.3 291.5 L 180.6 290.9 L 178.4 288.6 L 177.2 288.1 L 177.0 287.4 L 177.4 286.9 L 174.9 284.9 L 174.5 285.4 L 173.8 285.3 L 173.1 284.7 L 171.0 282.5 L 169.7 282.0 L 169.5 281.3 L 169.9 280.8 L 168.6 279.7 L 169.1 279.0 L 168.0 278.1 L 166.7 277.5 L 165.4 275.9 L 162.0 273.8 L 164.5 270.8 L 166.0 269.9 L 166.5 268.6 L 168.2 267.1 L 168.7 265.9 L 171.3 263.5 L 171.2 262.9 Z M 17.1 13.8 L 13.6 14.2 L 12.9 8.5 L 16.5 8.1 Z M 144.0 176.1 L 138.7 175.0 L 140.2 167.4 L 148.8 164.5 L 150.4 169.2 L 145.0 171.0 Z M 245.9 0.0 L 260.2 0.0 L 246.4 2.7 Z M 310.1 84.2 L 312.8 87.2 L 310.8 89.1 L 308.1 86.2 Z M 205.1 123.4 L 220.9 140.0 L 218.5 142.3 L 219.0 142.8 L 216.5 145.2 L 216.0 144.7 L 215.1 145.6 L 213.1 143.4 L 212.3 144.2 L 209.9 141.8 L 210.8 140.9 L 206.9 136.8 L 206.0 137.7 L 203.7 135.2 L 204.5 134.4 L 199.3 129.0 Z M 68.9 19.8 L 68.8 22.9 L 66.9 22.9 L 66.9 19.8 Z M 71.8 50.9 L 73.7 50.5 L 74.4 51.1 L 74.2 53.3 L 75.0 53.3 L 74.9 54.7 L 74.1 54.6 L 74.0 56.3 L 73.2 56.3 L 73.1 57.1 L 71.3 56.9 L 71.4 56.1 L 69.0 55.9 L 69.1 55.1 L 68.4 55.1 L 68.7 51.6 L 69.4 51.7 L 69.5 50.7 Z M 77.0 38.0 L 77.1 43.7 L 72.4 43.8 L 72.3 38.1 Z M 52.0 124.7 L 45.5 130.6 L 40.6 125.1 L 47.1 119.2 Z M 38.0 112.2 L 26.7 123.6 L 21.3 118.2 L 32.6 106.9 Z M 246.1 183.9 L 250.4 183.1 L 251.2 187.3 L 243.3 188.8 L 241.0 176.3 L 244.6 175.6 Z M 146.0 214.0 L 159.4 197.8 L 168.0 205.0 L 170.1 206.4 L 174.7 210.5 L 176.8 211.9 L 179.0 214.2 L 175.0 219.1 L 171.4 216.3 L 171.0 215.2 L 164.8 210.8 L 164.3 209.7 L 160.0 206.5 L 159.5 207.3 L 155.5 212.4 L 154.6 212.9 L 156.3 214.3 L 152.3 219.2 Z M 104.0 60.5 L 104.5 61.4 L 113.5 62.9 L 114.6 62.0 L 114.9 60.1 L 117.4 43.0 L 124.6 44.1 L 122.2 59.8 L 121.5 63.4 L 120.5 66.6 L 119.5 67.2 L 119.9 67.8 L 117.0 69.8 L 116.6 69.3 L 115.7 70.0 L 112.7 69.5 L 103.1 68.4 L 100.2 67.4 L 99.6 66.5 L 99.1 66.9 L 97.0 64.0 L 97.5 63.6 L 96.8 62.7 L 97.3 59.5 L 101.4 31.3 L 108.5 32.5 Z M 389.1 46.8 L 386.3 43.4 L 395.0 36.2 L 397.8 39.6 Z M 76.1 140.6 L 103.8 138.1 L 103.4 133.8 L 109.4 133.3 L 110.2 142.2 L 109.8 143.9 L 76.6 146.9 Z M 59.5 28.3 L 59.4 32.5 L 54.4 32.3 L 54.5 28.1 Z M 45.0 86.6 L 45.0 92.1 L 38.9 92.1 L 38.9 86.6 Z M 34.6 76.2 L 34.6 80.8 L 29.4 80.7 L 29.4 76.1 Z M 33.0 67.1 L 33.4 72.5 L 28.2 72.8 L 27.9 67.4 Z M 17.2 213.1 L 12.9 219.9 L 9.7 217.9 L 14.0 211.1 Z M 246.5 105.6 L 244.4 107.6 L 238.9 101.9 L 241.0 99.9 Z M 279.1 193.7 L 291.3 207.3 L 286.7 211.4 L 274.5 197.8 Z M 167.8 228.4 L 169.9 229.8 L 174.6 234.1 L 175.3 235.0 L 178.5 230.9 L 179.7 228.7 L 185.3 222.1 L 187.5 219.8 L 192.4 223.9 L 176.1 243.6 L 161.4 231.3 L 165.4 226.4 Z M 142.8 209.6 L 140.2 213.2 L 129.2 205.6 L 131.8 202.0 Z M 103.1 183.2 L 125.4 178.1 L 126.5 183.0 L 128.9 182.5 L 130.3 188.5 L 127.4 189.2 L 128.6 194.2 L 113.0 197.9 L 102.9 189.3 L 102.1 185.2 L 101.8 184.7 L 103.4 183.6 Z M 347.1 44.4 L 354.3 50.7 L 355.9 55.2 L 356.3 59.7 L 354.4 62.6 L 348.3 68.8 L 343.2 63.8 L 349.1 57.7 L 349.1 54.8 L 343.4 48.9 Z M 114.5 37.8 L 113.6 35.1 L 116.6 34.0 L 125.5 35.6 L 125.0 38.2 L 117.1 36.8 Z M 15.7 0.0 L 16.1 5.0 L 11.9 5.4 L 11.4 0.0 Z M 218.6 15.3 L 224.0 47.4 L 216.3 48.7 L 210.8 16.6 Z M 426.6 2.0 L 428.2 3.5 L 426.0 5.8 L 424.3 4.3 Z M 431.6 7.8 L 429.3 10.0 L 427.7 8.2 L 430.0 6.0 Z M 425.1 6.1 L 439.0 20.9 L 436.9 22.9 L 423.0 8.1 Z M 418.9 9.5 L 423.7 14.6 L 419.8 18.2 L 415.1 13.1 Z M 58.7 6.9 L 63.8 6.6 L 64.0 10.5 L 58.9 10.8 Z M 0.2 34.7 L 0.0 32.8 L 0.0 21.7 L 1.4 21.5 L 2.7 34.4 Z M 321.2 130.5 L 325.2 134.3 L 322.7 136.7 L 323.8 137.8 L 322.9 138.7 L 324.2 140.1 L 325.1 139.3 L 325.9 140.2 L 327.3 138.9 L 328.5 140.1 L 326.3 142.2 L 327.4 143.4 L 319.0 151.3 L 317.9 150.1 L 315.7 152.3 L 314.5 151.0 L 315.9 149.7 L 315.1 148.8 L 315.9 148.0 L 314.6 146.6 L 311.8 149.2 L 310.7 148.1 L 308.0 146.0 L 307.2 145.7 L 305.4 143.2 L 307.7 140.9 L 308.9 142.1 L 314.3 136.9 L 313.7 136.2 L 314.6 135.4 L 315.2 136.1 L 317.7 133.8 L 316.1 132.1 L 317.2 130.9 L 317.8 131.5 L 320.1 129.3 Z M 361.8 127.3 L 364.2 129.7 L 362.1 131.9 L 359.6 129.4 Z M 36.5 149.5 L 55.3 166.5 L 53.9 168.3 L 52.1 167.4 L 49.8 167.0 L 37.9 166.2 L 36.4 165.7 L 29.1 157.4 Z M 272.4 133.5 L 277.0 138.6 L 270.6 144.5 L 263.6 137.0 L 264.2 136.5 L 262.1 134.3 L 268.1 128.8 Z M 242.1 232.1 L 242.9 232.8 L 244.9 231.3 L 244.4 230.4 L 251.6 226.6 L 252.1 227.5 L 254.5 226.8 L 254.4 225.8 L 258.5 225.3 L 258.6 226.6 L 262.6 226.0 L 265.3 225.9 L 273.0 228.0 L 275.5 228.7 L 280.3 232.1 L 281.4 233.1 L 283.7 234.0 L 284.5 235.1 L 286.5 236.1 L 285.0 238.5 L 284.4 240.4 L 283.4 241.0 L 282.0 240.0 L 280.1 239.4 L 278.5 237.8 L 276.6 237.2 L 274.5 235.2 L 272.7 234.7 L 272.1 233.7 L 271.0 233.4 L 269.1 233.5 L 266.5 232.4 L 264.6 232.5 L 263.7 231.8 L 262.7 231.9 L 260.9 232.6 L 258.0 232.5 L 256.1 233.3 L 255.0 232.9 L 254.2 233.4 L 252.6 234.8 L 250.1 235.5 L 248.6 236.8 L 247.5 236.8 L 246.7 237.6 L 245.8 239.4 L 243.7 241.0 L 242.7 242.8 L 241.7 243.1 L 241.2 244.1 L 241.0 246.1 L 239.4 248.4 L 239.2 250.5 L 238.2 251.3 L 238.2 252.3 L 238.7 254.2 L 238.5 257.7 L 237.9 259.3 L 238.5 259.6 L 238.0 260.2 L 238.5 261.7 L 240.3 265.8 L 240.3 267.5 L 240.9 267.5 L 240.7 268.4 L 241.7 269.6 L 244.8 272.8 L 245.3 274.4 L 246.1 274.4 L 246.0 275.0 L 247.3 275.9 L 253.9 279.6 L 255.1 281.0 L 257.1 281.6 L 252.0 289.6 L 250.4 291.0 L 249.0 290.1 L 247.1 289.5 L 244.7 287.3 L 246.9 283.9 L 248.1 284.7 L 249.0 283.3 L 245.1 280.8 L 242.1 279.5 L 242.5 279.0 L 241.6 278.3 L 241.1 278.7 L 239.1 276.0 L 239.6 275.6 L 238.1 273.5 L 237.5 274.0 L 235.5 271.1 L 236.0 270.7 L 235.5 269.8 L 234.9 270.0 L 233.9 266.8 L 234.6 266.6 L 234.2 265.4 L 232.4 266.0 L 231.1 261.5 L 232.8 261.0 L 232.6 259.7 L 230.7 259.5 L 231.0 255.3 L 232.3 255.3 L 232.4 253.1 L 231.1 253.0 L 231.3 250.6 L 232.3 250.8 L 232.8 248.6 L 231.7 248.4 L 235.0 240.5 L 236.0 240.9 L 237.4 238.8 L 236.6 238.0 Z M 267.3 287.1 L 269.5 283.6 L 270.0 284.0 L 272.0 280.8 L 303.0 233.5 L 308.5 236.9 L 304.2 243.6 L 302.3 245.6 L 299.4 251.1 L 297.4 253.1 L 294.4 258.8 L 292.5 260.9 L 289.5 266.5 L 287.6 268.5 L 284.5 274.2 L 282.5 276.3 L 279.5 282.0 L 277.6 283.9 L 273.6 291.2 Z M 254.0 250.5 L 254.8 248.1 L 255.9 247.5 L 257.5 248.5 L 258.7 249.4 L 260.7 250.1 L 261.0 249.6 L 262.6 250.5 L 262.1 251.4 L 265.2 253.3 L 265.7 252.5 L 267.2 253.4 L 268.5 254.9 L 272.3 256.6 L 270.4 259.6 L 271.0 260.0 L 269.7 262.0 L 269.1 261.7 L 268.4 262.8 L 265.0 260.7 L 263.5 259.0 L 261.5 258.5 L 259.3 256.5 L 257.4 255.9 L 255.8 254.3 L 253.8 253.7 L 252.8 252.4 Z M 354.9 309.5 L 375.3 310.9 L 379.0 310.7 L 383.1 310.6 L 382.6 317.9 L 356.2 316.1 L 356.3 315.5 L 354.5 315.3 Z M 318.1 317.9 L 323.4 318.1 L 325.3 318.9 L 325.1 320.0 L 315.8 320.0 L 316.1 317.6 Z M 308.9 315.2 L 311.7 315.1 L 314.5 315.5 L 316.3 316.3 L 315.8 320.0 L 306.5 320.0 L 307.2 315.0 Z M 300.2 312.6 L 305.6 313.1 L 307.4 313.7 L 306.5 319.4 L 305.1 319.2 L 298.7 318.8 L 297.5 318.1 L 298.4 312.3 Z M 291.3 309.8 L 294.0 309.9 L 298.6 310.9 L 297.7 316.9 L 296.3 316.6 L 288.6 316.1 L 289.6 309.6 Z M 280.2 305.9 L 284.5 306.5 L 288.0 307.6 L 289.8 308.4 L 288.9 314.4 L 287.4 314.1 L 279.1 313.4 Z M 270.1 299.3 L 267.5 303.3 L 271.3 305.8 L 268.1 310.8 L 265.7 309.2 L 265.3 309.8 L 258.9 305.7 L 265.1 296.0 Z M 18.3 204.2 L 21.5 206.2 L 20.7 207.5 L 21.2 207.9 L 19.9 209.9 L 19.4 209.6 L 17.2 213.1 L 14.0 211.1 Z M 91.1 300.9 L 88.9 304.2 L 74.7 294.5 L 76.9 291.2 Z M 109.8 201.0 L 108.6 202.7 L 105.3 200.5 L 106.4 198.8 Z M 38.3 216.0 L 42.2 219.6 L 53.3 230.9 L 45.5 238.9 L 30.4 223.8 Z M 185.3 266.7 L 190.3 260.6 L 194.6 264.1 L 196.1 262.2 L 207.0 271.3 L 205.5 273.1 L 207.3 274.7 L 199.9 283.7 L 198.0 282.2 L 196.3 284.3 L 185.3 275.3 L 187.1 273.2 L 182.3 269.2 L 184.7 266.2 Z M 195.5 94.9 L 195.4 96.7 L 196.2 97.5 L 176.9 116.1 L 176.3 115.4 L 172.9 115.5 L 172.9 106.4 L 174.2 105.0 L 174.2 101.4 L 176.0 99.7 L 177.2 97.6 L 177.7 98.1 L 181.1 94.8 Z M 86.9 90.9 L 87.0 92.9 L 81.4 92.9 L 81.4 91.0 Z M 145.1 120.7 L 145.9 127.4 L 130.4 132.5 L 129.4 132.1 L 128.9 131.3 L 128.7 127.5 L 128.9 123.7 Z M 255.4 187.2 L 255.4 186.6 L 255.6 187.3 L 257.4 187.3 L 257.4 186.7 L 259.9 186.9 L 261.4 187.5 L 261.3 189.3 L 261.7 191.3 L 262.3 191.3 L 261.6 191.5 L 261.6 193.0 L 262.3 193.0 L 261.6 193.2 L 261.5 195.2 L 262.2 195.3 L 261.5 195.5 L 261.4 196.9 L 262.1 196.9 L 261.4 197.2 L 261.1 204.2 L 261.8 204.2 L 261.1 204.4 L 261.0 205.9 L 261.7 205.9 L 261.0 206.1 L 260.9 208.1 L 261.6 208.2 L 260.9 208.4 L 260.9 209.8 L 261.6 209.8 L 260.9 210.1 L 260.8 212.0 L 260.2 215.7 L 256.3 215.6 L 256.3 213.6 L 254.5 213.5 L 254.5 214.2 L 254.3 213.5 L 252.9 213.5 L 253.0 211.7 L 252.3 211.6 L 253.0 211.4 L 253.2 208.6 L 252.5 208.5 L 252.6 205.0 L 253.3 205.0 L 253.4 202.2 L 252.7 202.1 L 253.4 201.9 L 253.6 198.8 L 252.9 198.7 L 253.6 198.5 L 253.7 195.7 L 253.0 195.6 L 253.2 192.1 L 253.8 192.1 L 254.0 189.3 L 253.3 189.0 L 254.0 189.0 L 254.1 187.2 Z M 202.1 61.5 L 201.2 58.4 L 200.8 55.0 L 201.1 53.4 L 205.0 52.9 L 205.2 54.5 L 206.3 54.6 L 206.5 55.5 L 205.3 56.0 L 205.7 59.4 L 207.0 59.6 L 207.1 60.5 L 205.9 61.0 L 206.1 62.5 L 202.3 63.0 Z M 86.2 99.3 L 85.6 99.4 L 85.6 101.6 L 81.5 101.7 L 81.5 99.4 Z M 86.2 97.2 L 86.2 99.3 L 81.5 99.4 L 81.4 98.1 L 81.9 97.2 Z M 86.2 95.0 L 86.2 97.2 L 81.9 97.2 L 81.8 95.1 Z M 87.0 92.9 L 86.1 93.0 L 86.2 95.0 L 81.8 95.1 L 81.8 93.0 L 81.4 92.9 Z M 87.5 86.2 L 87.1 88.3 L 81.8 88.3 L 81.8 86.2 Z M 87.5 84.1 L 87.5 86.2 L 81.8 86.2 L 82.2 84.3 L 81.8 84.2 Z M 87.5 82.1 L 87.1 84.1 L 81.8 84.1 L 81.8 82.1 Z M 87.5 80.0 L 87.5 82.1 L 81.8 82.1 L 82.2 80.2 L 81.7 80.0 Z M 87.4 78.0 L 87.0 80.0 L 81.7 80.0 L 81.7 78.0 Z M 87.4 75.9 L 87.4 78.0 L 81.7 78.0 L 82.1 76.0 Z "/><path class="context-major-road" fill-rule="evenodd" d="M 143.3 287.0 L 148.5 292.1 L 154.4 296.5 L 164.6 303.3 L 179.3 310.9 L 198.8 320.0  M 295.2 25.8 L 323.2 -0.0  M 34.5 182.7 L 33.8 186.1 L 34.0 189.5 L 35.1 192.7 L 37.0 195.6  M 51.8 198.8 L 58.4 202.1 L 83.9 226.2 L 86.7 229.5 L 123.7 266.5 L 139.5 283.5 L 143.3 287.0  M 207.4 320.0 L 172.0 303.7 L 163.6 299.0 L 155.8 293.7 L 144.9 284.2 L 113.9 252.2 L 72.9 210.9 L 65.6 204.3 L 61.0 198.7 L 58.9 190.9  M 30.2 169.1 L 23.9 163.2 L 0.0 139.1  M 54.2 176.7 L 51.1 175.1 L 47.8 174.3 L 44.3 174.4 L 41.1 175.5 L 38.3 177.3 L 36.1 179.8 L 34.5 182.7  M 51.8 198.8 L 54.2 197.5 L 56.2 195.7 L 57.8 193.4 L 58.9 190.9  M 58.9 190.9 L 59.5 187.6 L 59.2 184.5 L 58.2 181.5 L 56.5 178.8 L 54.2 176.7  M 67.5 178.2 L 97.7 173.5 L 106.7 171.7 L 122.5 167.4  M 37.0 195.6 L 40.1 198.2 L 43.9 199.6 L 47.9 199.9 L 51.8 198.8  M 164.5 146.4 L 177.6 135.9 L 188.7 126.1  M 188.7 126.1 L 203.1 112.9  M 203.1 112.9 L 225.0 93.0  M 259.9 59.4 L 275.8 44.0  M 275.8 44.0 L 295.2 25.8  M 234.4 83.9 L 259.9 59.4  M 225.0 93.0 L 234.4 83.9  M 122.5 167.4 L 132.6 163.4 L 149.7 155.9 L 160.5 149.3 L 164.5 146.4  M 44.3 174.4 L 39.9 173.8 L 36.2 172.8 L 30.2 169.1  M 30.2 169.1 L 33.6 176.1 L 34.5 182.7  M 67.5 178.2 L 54.2 176.7  M 59.5 187.6 L 62.0 183.5 L 67.5 178.2  "/><path class="context-road" fill-rule="evenodd" d="M 122.5 167.4 L 122.7 147.4 L 122.5 124.0 L 123.3 111.6 L 123.5 98.7 L 124.8 75.4 L 126.1 65.7 L 127.8 56.2 L 129.4 51.6 L 133.4 43.5  M 192.8 30.8 L 189.4 33.2 L 170.6 31.9 L 151.1 28.5  M 154.4 -0.0 L 151.1 28.5  M 90.8 18.5 L 69.8 18.1 L 68.2 -0.0  M 77.4 207.5 L 80.3 208.1 L 89.2 199.2 L 90.2 194.6 L 90.1 191.5  M 416.6 46.0 L 402.5 30.3 L 400.6 24.0 L 421.3 -0.0  M 234.4 83.9 L 325.3 181.3  M 90.8 18.5 L 91.8 -0.0  M 203.1 112.9 L 223.9 136.0 L 229.0 131.3 L 214.9 116.3  M 291.1 14.9 L 294.4 14.8 L 308.9 -0.0  M 371.3 61.8 L 354.6 81.0 L 360.5 88.7 L 359.4 94.5 L 341.0 111.6 L 365.5 138.9 L 388.8 117.2  M 224.6 12.1 L 228.7 49.3 L 231.3 50.4 L 237.8 47.4 L 245.4 55.7 L 245.1 59.5 L 238.1 65.5  M 254.8 44.1 L 254.6 31.7 L 271.1 16.9 L 271.7 9.0 L 276.8 6.5  M 255.8 47.5 L 291.1 14.9 L 283.4 7.0 L 290.4 -0.0  M 259.9 59.4 L 255.8 47.5 L 254.8 44.1 L 237.8 47.4 L 233.3 11.2 L 204.3 14.2  M 262.9 184.2 L 298.8 152.8  M 315.6 193.0 L 314.9 190.6 L 293.0 165.5 L 302.5 156.8  M 0.0 102.0 L 12.4 90.0 L 22.9 80.3  M 336.8 -0.0 L 351.4 26.8 L 369.4 58.1 L 371.3 61.8 L 379.6 73.5 L 404.5 121.9  M 13.3 296.8 L 18.6 295.4  M 18.6 295.4 L 43.3 287.4 L 46.5 285.1 L 49.5 281.4 L 74.8 236.1 L 83.9 226.2  M 0.0 299.4 L 13.3 296.8  M 22.9 80.3 L 21.2 67.9 L 20.5 60.1 L 20.5 53.8  M 20.5 60.1 L 92.1 61.5  M 340.8 34.1 L 352.3 28.4  M 170.6 31.9 L 169.0 46.4 L 170.0 56.1  M 55.6 106.2 L 37.1 95.1 L 30.4 85.4 L 22.9 80.3  M 43.8 47.6 L 60.2 48.0 L 59.5 60.9  M 85.5 105.6 L 55.6 106.2  M 122.5 124.0 L 89.2 127.3 L 85.5 105.6  M 92.1 61.5 L 91.9 77.5 L 91.2 88.0  M 354.6 81.0 L 325.5 107.4 L 311.5 93.1 L 338.8 68.8  M 164.5 146.4 L 150.8 138.9 L 136.9 147.2 L 122.6 151.7  M 316.8 46.3 L 298.4 66.0  M 91.2 88.0 L 91.1 97.2 L 85.5 105.6  M 22.9 80.3 L 30.0 81.7 L 40.3 85.0 L 66.1 85.4 L 65.9 103.1  M 295.2 25.8 L 318.3 47.8 L 331.0 36.3 L 335.9 35.9 L 340.8 34.1 L 350.5 41.2 L 361.1 53.6 L 360.8 61.0 L 351.8 70.1 L 350.9 71.4 L 349.9 74.5 L 350.7 77.3 L 354.6 81.0  M 92.1 61.5 L 95.1 30.9 L 90.8 18.5  M 188.8 -0.0 L 192.8 30.8  M 16.9 156.1 L 21.4 151.0 L 33.2 139.4 L 34.3 134.8  M 305.5 58.4 L 301.1 54.8 L 297.2 54.3 L 291.8 59.8 L 293.9 63.9 L 298.4 66.0  M 37.3 207.5 L 33.0 204.9 L 29.4 200.7  M 75.9 234.9 L 84.4 244.5  M 225.0 93.0 L 216.0 68.4 L 212.3 55.1 L 207.6 32.9 L 201.9 -0.0  M 76.6 196.8 L 79.2 192.5 L 83.5 191.1 L 90.1 191.5 L 90.9 183.0 L 90.2 174.6  M 89.2 127.3 L 67.7 129.6  M 0.0 154.9 L 11.3 166.5 L 12.2 176.5 L 0.0 177.3  M 2.5 157.5 L 4.2 177.0  M 0.0 149.2 L 25.0 174.4 L 29.1 170.3  M 32.8 178.4 L 32.6 181.8 L 31.7 187.3 L 32.9 192.8 L 36.2 197.5 L 40.9 200.5 L 46.5 201.5 L 52.1 201.5  M 61.2 191.7 L 61.9 187.3  M 177.1 314.4 L 186.8 319.2  M 35.8 171.3 L 31.6 167.6  M 142.0 288.3 L 147.4 293.4 L 153.4 297.9 L 163.7 304.8 L 178.4 312.3 L 194.6 320.0  M 214.0 320.0 L 204.8 314.9 L 173.9 301.0 L 166.0 296.5 L 157.5 290.7 L 148.8 283.5 L 142.6 277.9 L 135.2 270.0 L 115.1 250.1 L 96.3 232.1 L 62.5 197.7 L 61.6 194.5 L 61.2 191.7  M 179.0 306.9 L 211.2 277.8  M 101.9 312.8 L 119.4 294.4 L 130.7 290.9 L 139.5 283.5  M 196.6 319.0 L 196.1 320.0  M 32.8 178.4 L 32.5 176.9 L 31.1 175.2 L 29.1 170.3  M 90.2 226.0 L 85.4 230.8  M 179.3 310.9 L 177.1 314.4 L 169.5 310.1  M 54.6 174.4 L 51.1 173.0 L 47.1 172.2 L 40.3 172.7 L 35.8 171.3  M 61.9 187.3 L 64.0 183.9 L 66.3 182.0 L 63.9 177.7 L 64.4 175.3  M 82.9 172.2 L 73.3 173.5 L 60.4 175.9 L 57.6 175.5 L 54.6 174.4  M 52.1 201.5 L 57.4 203.6 L 82.7 227.5 L 85.4 230.8 L 122.4 267.7 L 138.1 284.6 L 142.0 288.3  M 18.5 -0.0 L 20.4 18.0 L 22.7 45.9 L 22.4 48.8 L 21.7 51.2 L 20.5 53.8  M 210.3 120.5 L 231.1 101.6  M 260.2 159.6 L 272.2 147.4  M 310.3 104.5 L 294.1 87.0 L 267.7 111.4 L 263.4 114.9 L 226.4 149.5  M 8.3 65.7 L 19.7 78.8 L 10.2 87.2 L 12.4 90.0  M 20.5 53.8 L 5.2 54.8 L 0.0 36.9  M 236.6 86.2 L 231.1 101.6  M 235.0 2.1 L 235.8 6.4 L 233.3 11.2  M 238.1 65.5 L 235.3 69.6 L 237.9 80.5  M 235.8 6.4 L 249.6 3.9  M 283.4 7.0 L 276.8 6.5  M 95.1 233.5 L 99.7 228.4 L 90.1 219.3  M 284.0 96.4 L 309.3 123.4 L 293.0 138.4 L 288.6 142.0  M 278.0 101.9 L 303.3 128.9  M 258.6 101.2 L 267.7 111.4 L 293.0 138.4  M 239.8 143.9 L 236.1 140.6  M 244.7 149.2 L 239.8 143.9  M 260.2 159.6 L 257.1 162.2 L 244.7 149.2  M 240.5 90.3 L 269.6 64.5  M 226.8 133.3 L 234.3 142.3  M 123.5 98.7 L 94.4 96.9 L 91.1 97.2  M 69.8 18.1 L 65.5 19.1 L 62.8 24.1 L 62.8 32.8  M 62.8 24.1 L 54.0 23.8  M 239.6 320.0 L 238.8 306.6 L 238.3 303.2 L 237.2 299.9 L 233.5 295.0 L 227.1 287.7 L 198.4 252.9  M 440.0 166.9 L 416.5 133.3 L 404.5 121.9  M 42.8 213.1 L 41.0 216.1 L 62.1 236.8 L 64.4 234.4 L 66.2 232.0  M 79.3 231.2 L 72.8 224.9 M 72.8 224.9 L 64.3 216.6 L 54.5 206.2 L 49.7 204.3 L 37.6 205.5 L 37.3 207.5 L 42.8 213.1 L 45.9 213.2 L 66.2 232.0 L 72.8 224.9  M 369.4 58.1 L 377.3 55.1 L 384.1 51.0 L 396.7 62.7 L 416.6 46.0  M 131.4 198.6 L 117.4 202.6 L 103.9 193.5 L 90.9 183.0  M 216.7 153.4 L 221.0 151.6 L 223.7 151.1 L 226.4 149.5  M 234.8 163.5 L 253.2 182.8  M 188.7 126.1 L 207.7 147.7 L 210.5 149.7 L 213.9 149.7 L 216.7 153.4 L 212.9 157.3 L 212.4 161.7 L 217.0 166.7 L 223.1 168.5 L 227.7 168.0 L 234.8 163.5 L 246.7 151.5 L 259.4 139.5  M 281.6 217.5 L 286.1 213.4 M 286.1 213.4 L 293.9 206.5 L 279.8 190.8 L 272.1 197.8 L 286.1 213.4  M 0.0 118.3 L 3.1 121.2 L 15.7 116.0 L 30.6 102.3 L 19.5 91.5 L 0.0 113.5  M 21.6 128.8 L 12.1 139.1 L 21.4 151.0  M 133.4 43.5 L 114.9 40.5 M 114.9 40.5 L 111.1 60.9 L 106.0 60.0 L 109.8 39.5 L 114.9 40.5  M 151.1 28.5 L 149.8 32.7 L 147.9 35.4 L 145.4 37.8 L 140.8 40.5 L 133.4 43.5  M 129.5 37.5 L 125.3 36.8  M 128.1 34.9 L 114.0 32.7  M 116.1 -0.0 L 115.1 4.2 L 115.3 11.9 L 109.5 11.7 L 109.0 20.9 L 109.8 25.0 L 125.6 27.6 L 127.2 30.4 L 128.1 34.9 L 129.5 37.5 L 133.4 43.5  M 196.6 291.0 L 184.2 280.6  M 156.2 246.7 L 162.8 254.7 L 147.5 267.6 L 146.7 268.9 L 147.1 271.8 L 146.3 274.8 L 140.6 279.6  M 160.7 229.1 L 165.1 223.7 L 157.5 217.3 L 162.3 211.5 L 177.9 224.5 L 185.6 215.2  M 141.8 215.5 L 158.6 195.4  M 114.0 32.7 L 112.1 33.6 L 95.1 30.9  M 29.1 170.3 L 31.6 167.6  M 29.4 200.7 L 11.4 194.7 L 7.2 181.7 L 0.0 182.4  M 3.1 121.2 L 17.2 133.6  M 33.2 139.4 L 63.4 167.8  M 89.4 149.0 L 77.8 150.1  M 90.2 174.6 L 89.5 164.3  M 100.8 165.0 L 96.9 167.1 L 97.7 173.5  M 53.2 130.6 L 59.7 138.7  M 30.6 102.3 L 45.8 114.6  M 72.9 210.9 L 77.4 207.5 L 74.9 199.4  M 74.9 199.4 L 76.6 196.8  M 264.6 281.0 L 248.3 270.8 L 245.0 266.5 L 243.8 264.0 L 243.0 261.4 L 242.5 258.7 L 242.4 255.9 L 242.7 253.2 L 243.3 250.6 L 244.3 248.0 L 245.6 245.6 L 247.3 243.4 L 249.4 241.3 L 254.5 238.1 L 260.2 236.6 L 263.2 236.4 L 269.1 237.5 L 285.3 247.6  M 123.3 111.6 L 130.9 111.7 L 137.0 115.7 L 157.6 117.3 L 162.5 115.0 L 166.1 110.6 L 167.0 103.0 L 165.9 99.8 L 163.8 97.9 L 139.2 96.2  M 335.2 47.0 L 341.9 63.2 L 341.5 65.9 L 349.9 74.5  M 318.1 70.1 L 350.7 77.3  M 308.5 55.0 L 312.0 54.7 L 314.6 55.6 L 319.6 61.0 L 322.2 60.8 L 326.0 64.2 L 330.2 64.7 L 334.1 60.9 L 341.5 65.9  M 322.2 60.8 L 335.6 48.0  M 328.4 54.9 L 334.1 60.9  M 331.0 57.6 L 337.1 51.7  M 90.9 183.0 L 99.7 182.0 L 124.7 176.6 L 122.5 167.4  M 29.4 200.7 L 35.4 196.4 L 37.0 195.6  M 29.4 200.7 L 28.0 203.9 L 26.7 207.9 L 25.5 218.9 L 25.7 222.9 L 26.7 225.3 L 30.9 229.0  M 246.8 224.8 L 247.3 225.8  M 244.0 221.9 L 242.2 220.4  M 245.6 221.0 L 245.5 219.3  M 246.8 224.8 L 247.5 224.2 L 247.8 223.3 L 247.7 222.4 L 247.2 221.6 L 246.5 221.1 L 244.7 221.3 L 244.0 221.9 L 243.7 222.8 L 243.8 223.7 L 244.3 224.5 L 245.0 225.0 L 246.8 224.8  M 249.2 224.8 L 249.6 223.5 L 249.5 222.2 L 248.9 221.0 L 248.0 220.0 L 245.5 219.3 L 243.1 220.3 L 242.3 221.4 L 241.9 222.7 L 242.0 224.0 L 242.6 225.2 L 243.5 226.2 L 245.3 226.8  M 239.0 224.4 L 242.3 229.0  M 233.5 230.6 L 233.1 232.7 L 233.3 233.8 L 234.3 235.7 L 235.1 236.4  M 218.0 234.5 L 218.5 237.0 L 219.4 239.3 L 220.6 241.5 L 222.2 243.4 L 225.7 246.1 L 229.8 247.6  M 228.3 234.5 L 228.8 236.2 L 229.6 237.9 L 230.8 239.4 L 232.3 240.6  M 254.0 209.7 L 249.1 211.4 L 239.0 224.4 L 236.3 228.3 L 230.5 233.1 L 227.7 234.9 L 224.7 235.5 L 220.5 235.1 L 213.0 233.4 L 207.9 231.4 L 198.8 226.2  M 241.9 290.3 L 242.6 287.2 L 242.5 285.6 L 232.3 271.8 L 230.4 268.4 L 229.8 266.3 L 229.6 262.0 L 230.2 256.8 L 229.4 252.8 L 229.8 247.6 L 231.1 242.6 L 234.0 237.7 L 239.1 231.6 L 244.8 227.1 L 250.8 223.9 L 254.5 222.8 L 257.4 223.0 L 261.2 224.1 L 271.2 224.8 L 275.7 226.2 L 289.4 234.6  M 250.9 296.0 L 241.9 290.3  M 241.9 290.3 L 243.4 307.6  M 239.2 313.0 L 240.6 312.0 L 260.6 280.7  M 250.0 237.6 L 252.4 239.2  M 241.1 250.1 L 243.1 251.3  M 278.3 239.8 L 276.7 242.3  M 271.6 235.6 L 268.6 240.4  M 248.2 273.1 L 249.3 271.4  M 271.6 235.6 L 265.8 233.9 L 262.7 233.7 L 256.7 234.5 L 253.8 235.5 L 248.6 238.6 L 246.4 240.7 L 244.4 243.0 L 242.8 245.6 L 241.6 248.4 L 240.8 251.3 L 240.3 254.3 L 240.3 257.3 L 240.7 260.3 L 241.5 263.2 L 242.6 266.0 L 244.2 268.6 L 246.1 271.0 L 248.2 273.1  M 283.9 243.3 L 271.6 235.6  M 260.6 280.7 L 248.2 273.1  M 268.6 240.4 L 263.5 239.4 L 258.3 239.9 L 255.9 240.8 L 251.5 243.6 L 249.7 245.5 L 248.3 247.7 L 247.2 249.9 L 246.5 252.3 L 246.1 254.7 L 246.2 257.2 L 246.5 259.6 L 247.3 261.9 L 248.3 264.2 L 251.4 268.0  M 257.4 258.4 L 249.3 271.4  M 276.7 242.3 L 270.7 252.0  M 277.0 254.5 L 252.4 239.2  M 263.7 275.7 L 251.4 268.0  M 280.9 248.1 L 268.6 240.4  M 256.7 243.3 L 279.3 257.4  M 249.3 251.2 L 253.9 243.7  M 272.7 268.0 L 249.7 253.7  M 253.9 243.7 L 255.2 243.1 L 256.7 243.3  M 249.7 253.7 L 249.1 252.5 L 249.3 251.2  M 268.9 267.4 L 243.1 251.3  M 260.6 280.7 L 292.9 228.8  M 259.5 289.1 L 295.5 231.3  M 241.4 320.0 L 247.5 311.9 L 259.5 289.1  M 295.5 231.3 L 287.7 223.9 L 281.6 217.5  M 301.7 203.0 L 325.3 181.3  M 272.2 147.4 L 278.4 147.6  M 262.2 116.1 L 285.3 141.2  M 269.6 121.6 L 260.7 129.7  M 278.4 147.6 L 286.7 139.9  M 1.8 191.5 L 1.9 190.3  M 3.0 191.5 L 5.5 194.4  M 0.3 191.5 L 1.8 190.6 L 2.0 189.8 L 1.8 188.9 L 1.2 188.3 L 0.0 188.1 M 0.0 191.4 L 0.3 191.5  M 2.0 189.5 L 2.2 187.5 L 4.6 182.0  M 0.0 191.5 L 3.0 191.5  M 32.6 179.3 L 0.0 180.8  M 10.5 192.0 L 7.4 192.6 L 0.0 200.5  M 112.7 145.3 L 112.8 147.4  M 100.8 148.1 L 100.7 146.3  M 115.9 143.8 L 116.0 145.0 L 90.3 147.3 L 89.4 149.0  M 69.1 147.4 L 73.0 149.5 L 77.8 150.1  M 59.7 138.7 L 69.1 147.4  M 79.6 172.6 L 72.5 166.6  M 122.6 143.2 L 115.9 143.8 L 115.0 133.8  M 122.5 130.1 L 115.4 130.9 L 112.6 130.0 L 58.1 136.7  M 89.5 164.3 L 89.4 149.0  M 37.1 143.1 L 45.7 133.8  M 63.4 167.8 L 89.5 164.3  M 82.9 172.2 L 100.9 169.7 L 117.2 166.2 L 118.7 165.3 L 119.7 164.1 L 120.4 162.2 L 120.8 147.5  M 115.2 147.9 L 115.1 147.2 L 99.8 148.1 L 99.8 148.9  M 115.2 147.9 L 122.7 147.4  M 115.9 159.3 L 115.2 147.9  M 99.8 148.9 L 100.8 165.0  M 100.8 165.0 L 110.6 163.4 L 114.6 160.9 L 115.9 159.3  M 175.8 248.7 L 168.4 255.6 L 162.8 254.7  M 161.2 238.8 L 175.8 248.7 L 177.0 246.6 L 176.9 245.1  M 154.0 243.7 L 156.2 246.7  M 159.9 233.0 L 161.2 238.8 L 156.2 242.9 L 150.4 244.6 L 145.8 246.7 L 137.4 252.3 L 134.4 253.4 L 131.0 253.7 L 127.8 253.3  M 146.3 266.2 L 147.5 267.6  M 156.2 246.7 L 154.2 246.9 L 152.4 247.7 L 134.9 262.3 L 139.9 268.2 L 138.9 269.1 L 140.5 271.1 L 161.7 253.4  M 146.7 190.9 L 135.4 201.4  M 131.4 198.6 L 142.4 188.3  M 157.1 197.1 L 142.4 188.3  M 156.1 230.5 L 155.4 231.4  M 142.4 220.7 L 141.4 222.0  M 129.1 214.1 L 129.4 215.7  M 128.0 213.3 L 125.8 213.8  M 128.9 211.0 L 127.9 211.9 L 127.8 212.6 L 128.5 213.8 L 129.1 214.1 L 130.4 213.7 L 131.0 212.5  M 133.2 217.6 L 134.4 216.5 L 134.8 215.2  M 160.3 231.2 L 158.7 231.3 L 156.1 230.5 L 127.5 210.0  M 128.9 206.3 L 126.7 209.4 L 127.5 210.0 L 125.0 213.4 L 139.8 221.0 L 156.4 232.0 L 158.5 233.0 L 161.9 232.5  M 195.2 223.2 L 176.9 245.1 L 160.3 231.2 L 167.5 222.5  M 171.0 225.5 L 174.6 228.5 L 177.9 224.5  M 165.1 223.7 L 166.7 221.9 L 171.0 225.5 L 174.3 221.5  M 198.8 226.2 L 185.6 215.2  M 162.2 195.7 L 185.6 215.2  M 158.6 195.4 L 160.4 194.9 L 162.2 195.7  M 128.9 206.3 L 160.7 229.1  M 157.5 217.3 L 152.5 223.2  M 117.4 202.6 L 128.9 206.3  M 146.9 209.4 L 131.4 198.6  "/><path class="context-waterline" fill-rule="evenodd" d="M 421.7 320.0 L 423.0 315.5 L 423.7 306.6 L 424.0 305.0 L 423.1 303.2 L 422.2 302.3 L 403.0 295.9 L 401.1 295.8 L 376.0 301.6 L 370.2 301.8  M 440.0 280.2 L 426.6 301.4 L 424.0 305.0  M 14.6 320.0 L 15.3 291.3 L 18.5 257.9 L 19.0 256.1 L 21.0 254.1 L 23.2 244.5 L 29.2 221.7 L 30.4 214.8 L 31.1 212.5  M 31.4 211.5 L 31.1 212.5  "/></g><circle class="place-focus-ring" cx="220.0" cy="160.0" r="22"/><path class="place-focus" d="M 220.0 152.0 l 8 8 -8 8 -8 -8 Z"><title>Кранц Пицца</title></path></svg>