<svg xmlns="http://www.w3.org/2000/svg" class="route-diagram place-diagram" viewBox="0 0 440 320" width="440" height="320" role="img" aria-labelledby="title-card-image-2gis-70000001065316839" data-focus-lon="20.47845" data-focus-lat="54.961139" data-projection-coords="[[20.47845,54.961139]]" data-theme="day"><title id="title-card-image-2gis-70000001065316839">Кофе Крендель: берег и улицы рядом</title><style>
.route-context { --context-sea:#d0e1e9;--context-land:#f3f3ec;--context-green:#e2e9dd;--context-sand:#ece3d1;--context-water:#c8dee8;--context-road:#d8dcd8;--context-major:#c3cdd0;--context-coast:#a9c2ce;--context-rail:#c5cac5; }
.context-sea { fill:var(--context-sea); }
.context-land { fill:var(--context-land); }
.context-green { fill:var(--context-green); }
.context-sand { fill:var(--context-sand); }
.context-water { fill:var(--context-water); }
.context-building { fill:var(--context-building,#dde0d9);stroke:var(--context-building-line,#ccd3d0);stroke-width:.3px; }
.context-road,.context-major-road,.context-rail,.context-coastline,.context-waterline { fill:none;stroke-linecap:round;stroke-linejoin:round; }
.context-road { stroke:var(--context-road);stroke-width:.65px; }
.context-major-road { stroke:var(--context-major);stroke-width:1.4px; }
.context-rail { stroke:var(--context-rail);stroke-width:.7px;stroke-dasharray:2 3; }
.context-coastline { stroke:var(--context-coast);stroke-width:1px; }
.context-waterline { stroke:var(--context-water);stroke-width:2px; }
:root[data-theme=night] .route-context { --context-sea:#152f42;--context-land:#26343a;--context-green:#2a3b39;--context-sand:#393b36;--context-water:#1e4255;--context-road:#34434b;--context-major:#43545d;--context-coast:#426075;--context-rail:#3a484d; }
:root[data-theme=night] .route-context { --context-building:#35464d;--context-building-line:#42535b; }
.place-focus-ring { fill: #c9b08a; fill-opacity: .17; stroke: #ad865b; stroke-width: .7px; }
.place-focus { fill: #9d703f; stroke: #f7f5ef; stroke-width: 2px; }</style><defs><clipPath id="context-card-image-2gis-70000001065316839"><rect width="440" height="320" rx="3"/></clipPath></defs><g class="route-context" aria-hidden="true" clip-path="url(#context-card-image-2gis-70000001065316839)" data-source="OpenStreetMap" data-snapshot="2026-10-01"><rect class="context-sea" width="440" height="320"/><path class="context-land" fill-rule="evenodd" d="M 440.0 0.0 L 440.0 320.0 L 0.0 320.0 L 0.0 164.3 L 1.2 163.5 L 17.5 157.2 L 23.3 154.3 L 31.1 149.6 L 43.9 144.1 L 54.4 138.9 L 65.0 133.2 L 88.9 121.2 L 93.5 118.1 L 112.5 108.1 L 114.6 107.2 L 116.2 106.4 L 136.7 95.6 L 146.2 91.6 L 159.8 85.8 L 164.9 83.6 L 183.3 76.7 L 211.5 64.1 L 226.6 59.6 L 240.5 51.2 L 247.4 48.3 L 258.6 44.3 L 277.3 37.7 L 288.4 33.8 L 298.2 29.1 L 313.5 21.7 L 317.5 19.1 L 325.9 13.5 L 336.8 6.7 L 344.9 1.7 L 347.3 0.0 Z"/><path class="context-green" fill-rule="evenodd" d="M 345.5 25.6 L 346.8 24.5 L 347.5 25.9 L 352.6 46.5 L 350.5 48.1 L 349.8 49.9 L 347.9 50.7 L 346.8 50.4 L 346.3 48.7 L 346.8 47.0 L 348.7 44.1 L 348.7 43.2 L 345.0 27.5 Z M 431.3 85.0 L 440.0 82.8 L 440.0 146.3 ZM 436.5 66.2 L 440.0 65.2 L 440.0 82.7 ZM 438.7 36.9 L 430.3 14.2 L 431.6 0.0 L 440.0 0.0 L 440.0 44.3 Z M 125.6 234.2 L 132.6 252.1 L 117.1 260.7 L 110.5 242.7 L 112.2 239.9 Z M 123.6 115.8 L 125.1 115.8 L 126.1 115.3 L 127.1 113.5 L 127.9 113.1 L 129.0 113.4 L 129.6 114.2 L 129.1 115.6 L 126.4 117.9 L 123.6 118.0 L 123.0 117.4 L 123.1 116.5 Z M 130.2 117.1 L 130.2 116.3 L 131.7 113.5 L 132.6 113.3 L 133.2 114.1 L 133.3 114.9 L 132.6 117.2 L 131.2 117.9 Z M 128.0 120.1 L 127.3 119.1 L 127.3 118.2 L 128.7 118.0 L 130.4 119.1 L 130.6 119.7 L 130.5 120.4 L 129.9 120.9 Z M 125.0 121.6 L 125.1 120.9 L 125.9 120.2 L 126.7 120.3 L 127.3 121.2 L 127.1 121.9 L 126.5 122.4 L 125.5 122.3 Z M 116.1 122.3 L 115.5 121.5 L 115.4 120.5 L 116.0 119.2 L 117.9 119.0 L 118.4 117.8 L 119.0 117.6 L 119.6 117.6 L 120.0 118.5 L 119.6 120.1 L 118.3 121.7 L 117.6 122.2 Z M 118.0 125.1 L 117.4 124.0 L 117.7 123.3 L 119.4 121.4 L 120.1 121.1 L 121.7 121.3 L 122.8 122.3 L 123.0 123.2 L 122.8 124.2 L 120.0 124.2 L 118.7 125.1 Z M 136.6 134.4 L 136.3 144.6 L 135.8 145.0 L 131.1 135.0 Z M 125.0 136.3 L 127.1 135.8 L 128.4 137.0 L 129.8 139.6 L 126.0 140.8 L 124.4 136.8 Z M 132.6 159.6 L 134.0 158.8 L 135.3 159.3 L 135.8 164.4 L 134.7 165.0 L 134.2 164.7 Z M 128.6 144.6 L 131.3 144.4 L 132.6 144.6 L 133.8 145.3 L 135.9 149.7 L 135.4 157.3 L 134.1 157.8 L 131.6 156.0 L 127.3 145.1 Z M 126.0 123.7 L 127.5 123.4 L 127.9 122.4 L 128.8 121.9 L 131.1 121.6 L 131.5 121.0 L 131.7 119.1 L 132.9 118.4 L 133.6 117.3 L 136.8 118.6 L 138.6 120.4 L 136.0 130.0 L 134.7 129.8 L 133.2 130.5 L 132.3 130.0 L 131.8 129.1 L 131.0 128.5 L 128.3 128.1 L 125.9 124.0 Z M 122.4 125.3 L 124.0 124.6 L 126.2 129.0 L 126.0 129.6 L 125.2 130.7 L 125.4 132.1 L 125.3 132.7 L 124.1 134.0 L 123.5 134.0 L 123.0 133.5 L 120.3 125.9 L 120.4 125.3 L 120.7 125.1 Z M 136.5 114.0 L 138.1 114.5 L 138.9 114.3 L 139.9 113.3 L 140.0 112.4 L 141.8 111.5 L 140.4 115.4 L 139.5 116.0 L 136.8 116.2 L 134.9 114.7 Z M 135.3 110.7 L 143.4 107.1 L 142.2 110.5 L 139.6 111.7 L 138.6 110.9 L 137.5 110.9 L 136.3 112.0 L 136.2 113.2 L 134.4 114.0 L 134.3 111.9 Z M 155.9 320.0 L 120.0 320.0 L 106.5 304.7 L 104.4 301.0 L 111.7 296.2 L 114.2 300.0 L 123.3 293.6 L 126.7 286.9 L 137.4 279.1 L 134.5 275.1 L 136.5 273.4 L 140.4 271.9 Z M 203.7 133.4 L 201.8 142.0 L 180.5 165.5 L 165.7 170.6 L 151.0 172.6 L 136.7 173.0 L 138.7 142.0 L 141.4 143.6 L 146.1 156.1 L 148.3 159.8 L 153.3 160.5 L 159.3 158.4 L 158.5 154.8 L 161.0 146.8 L 168.6 145.1 L 167.8 141.5 L 170.1 141.0 L 171.9 137.9 L 170.1 132.1 L 169.9 126.3 L 172.9 120.1 L 188.7 110.2 L 192.6 105.6 L 194.9 105.6 L 197.9 108.4 L 199.5 111.2 L 201.5 116.3 Z M 219.4 122.6 L 223.8 129.0 L 215.6 134.3 L 209.4 134.0 L 207.2 132.8 L 206.5 128.2 L 210.5 127.9 L 212.0 127.0 L 212.5 125.3 L 208.9 124.4 L 207.5 123.6 L 206.7 122.3 L 206.7 119.9 L 208.4 119.2 Z M 82.1 274.8 L 81.3 273.8 L 81.1 273.2 L 81.2 272.5 L 82.0 271.5 L 83.8 271.4 L 84.9 272.7 L 84.8 273.9 L 83.9 274.8 Z M 104.2 302.5 L 105.2 302.5 L 106.5 304.7 L 113.7 312.8 L 108.9 316.6 L 103.5 315.9 L 98.5 318.1 L 89.6 317.2 L 86.4 316.0 L 85.0 313.7 L 84.6 311.4 L 88.0 312.2 L 89.4 306.5 L 90.4 304.8 L 92.1 303.6 L 92.5 304.1 L 95.1 302.2 L 96.9 298.5 L 99.9 301.5 L 101.5 299.9 Z M 79.4 270.0 L 80.3 280.6 L 78.1 280.7 L 77.5 270.2 Z M 12.4 198.7 L 15.3 193.4 L 17.7 196.8 L 15.8 200.7 Z "/><path class="context-sand" fill-rule="evenodd" d="M 1.2 163.5 L 17.5 157.2 L 23.3 154.3 L 31.1 149.6 L 43.9 144.1 L 88.9 121.2 L 88.3 124.3 L 29.9 157.4 L 0.0 176.9 L 0.0 164.3 Z M 325.9 13.5 L 347.3 0.0 L 360.6 0.0 L 337.4 12.8 Z "/><path class="context-building" fill-rule="evenodd" d="M 219.6 218.9 L 218.6 214.4 L 226.3 212.6 L 227.3 217.1 Z M 212.6 215.3 L 213.8 220.1 L 208.8 221.4 L 207.6 216.5 Z M 79.6 287.1 L 81.8 286.9 L 82.5 293.7 L 81.8 293.8 L 82.0 295.3 L 79.4 295.6 L 79.2 293.7 L 78.2 293.8 L 78.1 292.7 L 76.6 292.8 L 75.8 285.2 L 79.4 284.5 ZM 80.3 291.8 L 81.1 291.5 L 80.4 291.2 ZM 79.2 292.9 L 79.9 293.3 L 79.5 292.2 L 79.2 292.4 Z M 105.2 320.0 L 108.9 316.6 L 112.0 320.0 Z M 425.0 260.9 L 420.3 262.0 L 418.7 255.4 L 423.4 254.3 Z M 436.7 195.9 L 434.7 196.7 L 432.7 191.6 L 434.8 190.8 Z M 427.5 304.1 L 422.5 305.1 L 421.6 301.0 L 426.7 300.0 Z M 426.2 197.0 L 421.4 198.6 L 420.5 195.8 L 425.3 194.2 Z M 438.2 280.0 L 433.0 280.3 L 432.9 277.6 L 433.6 277.6 L 433.5 275.3 L 437.9 275.1 Z M 420.6 180.5 L 418.3 181.2 L 417.5 178.9 L 419.8 178.1 Z M 436.7 209.6 L 434.8 202.2 L 440.0 201.0 L 440.0 208.8 Z M 426.2 206.5 L 427.8 213.3 L 423.4 214.5 L 421.5 207.7 Z M 427.1 283.9 L 428.6 283.5 L 429.0 286.7 L 427.8 287.3 L 428.4 289.5 L 423.1 290.2 L 423.0 288.2 L 421.5 288.2 L 420.9 284.8 L 422.5 284.7 L 422.2 282.2 L 426.9 281.5 Z M 439.2 310.6 L 438.0 304.1 L 440.0 303.7 L 440.0 310.5 Z M 439.4 299.9 L 438.6 294.5 L 440.0 294.3 L 440.0 299.8 Z M 430.7 223.6 L 424.6 225.1 L 423.0 218.5 L 429.1 217.1 Z M 426.7 271.6 L 420.2 272.5 L 419.2 265.1 L 425.7 264.3 Z M 424.3 277.0 L 420.3 277.5 L 419.9 273.7 L 423.9 273.2 Z M 440.0 172.7 L 440.0 179.1 L 436.9 180.1 L 438.6 184.9 L 433.1 186.7 L 431.0 180.5 L 429.4 181.0 L 426.8 173.2 L 429.3 172.4 L 430.0 174.5 L 435.3 172.7 L 434.4 170.0 L 438.6 168.6 Z M 437.0 251.6 L 429.1 253.0 L 428.4 249.0 L 436.3 247.6 Z M 423.5 251.3 L 415.5 250.6 L 416.0 245.8 L 424.0 246.6 Z M 432.5 232.1 L 434.5 232.3 L 433.9 238.8 L 422.8 237.8 L 423.2 233.3 L 426.7 233.6 L 427.3 227.6 L 432.8 228.1 Z M 436.4 266.6 L 437.4 266.5 L 437.7 269.3 L 435.6 269.5 L 435.8 271.3 L 431.7 271.7 L 431.0 265.6 L 436.3 265.1 Z M 430.0 315.3 L 424.2 316.2 L 423.2 309.6 L 428.9 308.7 Z M 436.0 292.0 L 435.5 286.5 L 440.0 286.1 L 440.0 291.6 Z M 250.5 89.0 L 252.1 88.8 L 252.7 93.7 L 244.9 94.7 L 244.3 90.1 L 241.9 90.4 L 241.5 87.4 L 246.2 86.8 L 246.4 87.7 L 250.3 87.2 Z M 143.2 178.3 L 145.6 178.1 L 147.4 189.2 L 142.4 190.2 L 142.2 189.3 L 141.2 189.5 L 141.1 188.4 L 140.1 188.6 L 140.0 187.6 L 139.1 187.8 L 138.5 183.9 L 140.1 183.7 L 139.1 179.6 L 139.5 179.1 Z M 373.9 63.4 L 367.3 63.6 L 367.2 60.4 L 368.3 60.4 L 368.2 56.0 L 373.6 55.8 Z M 341.8 263.7 L 337.1 264.2 L 336.6 259.8 L 338.3 259.6 L 337.8 255.4 L 340.8 255.0 Z M 377.4 10.0 L 376.9 8.4 L 386.0 5.7 L 386.3 6.8 L 387.0 7.3 L 389.0 15.6 L 387.8 16.1 L 384.1 17.7 L 385.1 20.9 L 385.7 20.7 L 386.0 21.4 L 385.3 21.6 L 389.5 35.1 L 388.8 35.3 L 389.1 36.2 L 384.3 37.7 L 381.4 28.3 L 380.2 25.3 L 380.4 24.4 L 376.4 12.0 L 375.6 10.5 Z M 384.3 219.2 L 380.4 221.0 L 375.7 210.7 L 379.6 208.9 Z M 270.5 89.6 L 270.6 94.1 L 262.5 94.2 L 262.4 89.7 Z M 331.1 268.6 L 325.4 269.0 L 325.1 263.9 L 330.8 263.5 Z M 148.1 139.2 L 143.0 139.0 L 143.3 130.8 L 148.4 131.0 Z M 254.0 79.8 L 254.9 84.1 L 252.3 84.6 L 251.4 80.4 Z M 343.6 268.8 L 344.8 281.9 L 339.4 282.4 L 338.2 269.3 Z M 386.2 229.9 L 382.4 230.6 L 381.3 224.7 L 385.1 224.0 Z M 368.9 259.4 L 363.6 259.7 L 363.3 251.9 L 368.6 251.6 Z M 355.5 77.1 L 356.4 75.8 L 357.7 76.8 L 354.6 81.2 L 352.1 79.4 L 354.3 76.3 Z M 371.5 142.7 L 362.8 147.1 L 359.4 140.4 L 368.1 136.0 Z M 348.4 79.5 L 343.3 75.1 L 347.6 70.1 L 352.7 74.4 Z M 272.6 312.9 L 267.3 313.8 L 266.2 307.1 L 271.5 306.2 Z M 117.0 183.0 L 107.3 185.6 L 106.9 184.4 L 111.2 182.6 L 110.9 181.5 L 110.1 181.6 L 110.9 181.4 L 110.5 180.2 L 109.8 180.3 L 110.5 180.1 L 110.2 178.9 L 109.4 179.0 L 110.1 178.8 L 109.8 177.7 L 109.1 177.8 L 109.7 177.6 L 109.4 176.4 L 108.7 176.5 L 109.4 176.3 L 108.7 173.9 L 108.0 173.9 L 108.6 173.7 L 108.3 172.6 L 106.7 173.0 L 105.0 166.3 L 105.6 165.6 L 106.4 165.5 L 106.5 166.1 L 113.1 164.3 L 112.8 163.2 L 115.5 162.5 L 116.0 164.4 L 117.1 164.1 L 116.0 160.0 L 116.9 159.8 L 116.4 157.9 L 119.4 157.0 L 120.9 157.5 L 122.2 159.1 L 122.2 162.8 L 121.1 163.0 L 122.5 168.6 L 122.0 169.3 L 118.8 170.1 L 119.9 174.3 L 121.1 174.2 L 121.7 176.8 L 121.1 177.6 L 119.6 178.0 L 120.0 179.4 L 119.7 180.2 L 116.5 181.3 Z M 148.9 168.6 L 145.5 169.6 L 144.8 167.4 L 148.2 166.4 Z M 159.8 182.0 L 158.4 182.1 L 158.2 179.9 L 159.5 179.7 Z M 390.9 25.1 L 388.9 25.6 L 388.4 23.6 L 390.4 23.1 Z M 406.6 268.2 L 402.6 268.2 L 402.5 261.4 L 406.5 261.4 Z M 414.9 0.0 L 405.3 6.5 L 401.3 0.0 Z M 290.0 63.4 L 286.2 63.5 L 286.2 62.6 L 284.9 62.6 L 284.8 59.8 L 285.9 59.7 L 285.8 56.9 L 289.7 56.8 Z M 434.4 105.7 L 426.3 108.3 L 424.7 103.6 L 427.7 102.6 L 426.8 99.7 L 429.9 98.7 L 430.8 101.2 L 432.7 100.5 Z M 423.4 103.7 L 424.5 107.6 L 418.4 109.3 L 417.3 105.4 Z M 416.5 107.4 L 413.3 108.2 L 411.5 101.4 L 414.7 100.5 Z M 281.9 74.8 L 275.7 76.8 L 269.5 57.8 L 275.7 55.8 Z M 336.3 127.3 L 338.6 126.7 L 340.0 130.3 L 340.0 131.0 L 343.6 139.5 L 343.6 140.3 L 345.8 145.0 L 343.6 145.9 L 340.0 147.5 L 339.5 146.1 L 338.9 146.4 L 336.3 139.7 L 336.9 139.5 L 335.8 136.8 L 335.3 137.1 L 332.7 130.4 L 333.2 130.2 L 332.7 128.8 Z M 438.4 147.1 L 431.0 148.9 L 429.9 144.4 L 437.3 142.6 Z M 311.5 94.2 L 309.8 95.9 L 304.9 90.9 L 306.5 89.3 Z M 325.4 229.3 L 319.0 230.4 L 318.1 224.7 L 324.4 223.7 Z M 414.6 301.4 L 410.2 300.9 L 410.8 296.0 L 415.2 296.5 Z M 387.9 240.6 L 387.8 239.9 L 390.9 239.8 L 390.9 240.5 L 393.8 240.4 L 394.0 245.8 L 385.7 246.1 L 385.5 240.7 Z M 358.2 203.0 L 363.0 212.1 L 359.4 213.9 L 354.7 204.8 Z M 310.6 65.6 L 305.9 66.1 L 305.1 57.3 L 309.8 56.9 Z M 407.0 47.3 L 409.0 47.5 L 408.7 51.7 L 402.0 51.1 L 402.8 41.6 L 407.5 42.0 Z M 435.6 50.8 L 427.9 53.0 L 426.3 47.4 L 434.0 45.2 Z M 405.7 249.3 L 405.6 250.9 L 401.9 250.7 L 402.0 249.1 Z M 381.5 265.4 L 378.4 265.5 L 377.9 255.5 L 381.0 255.3 Z M 38.1 173.4 L 38.9 172.9 L 43.5 170.6 L 42.7 169.3 L 46.0 167.3 L 46.2 168.3 L 47.1 168.1 L 47.5 171.0 L 46.0 171.8 L 46.7 173.2 L 44.1 174.6 L 43.4 173.4 L 39.7 175.7 L 40.2 176.6 L 39.1 177.2 L 38.6 176.4 L 37.4 177.2 L 35.1 173.5 L 37.3 172.2 Z M 344.4 294.0 L 340.0 294.5 L 339.4 288.9 L 343.8 288.4 Z M 377.2 102.3 L 375.1 103.2 L 374.5 101.8 L 371.4 103.1 L 369.3 98.3 L 374.5 96.0 Z M 396.0 267.2 L 393.4 267.4 L 393.4 268.8 L 391.5 268.9 L 391.3 267.1 L 388.7 267.2 L 388.5 264.7 L 390.4 264.5 L 390.0 258.0 L 388.1 258.1 L 387.9 256.1 L 390.8 256.0 L 390.7 254.2 L 392.4 254.1 L 392.5 255.6 L 395.2 255.4 Z M 350.1 180.2 L 345.4 182.6 L 341.8 175.6 L 346.5 173.2 Z M 408.1 312.6 L 407.9 315.1 L 411.8 315.4 L 411.5 319.8 L 399.0 318.8 L 399.6 311.9 Z M 333.3 76.5 L 336.0 78.7 L 335.6 82.9 L 332.9 86.8 L 327.0 82.7 L 321.9 76.5 L 329.4 70.4 L 334.0 76.0 Z M 388.1 284.8 L 391.3 284.7 L 391.4 285.7 L 392.9 285.6 L 393.0 288.7 L 388.2 288.8 Z M 262.1 101.2 L 263.1 102.1 L 263.6 101.6 L 265.7 103.4 L 259.0 111.3 L 257.8 110.2 L 255.5 112.8 L 253.7 111.3 L 255.3 109.5 L 254.4 108.7 L 260.9 101.2 Z M 370.1 225.7 L 369.8 231.2 L 357.4 230.3 L 357.8 224.9 Z M 428.3 158.6 L 420.1 163.2 L 417.2 158.0 L 425.5 153.5 Z M 404.6 109.4 L 398.0 114.4 L 394.2 109.5 L 398.5 106.2 L 397.3 104.8 L 399.7 103.0 Z M 401.2 79.0 L 401.5 80.8 L 403.5 80.4 L 404.6 86.0 L 397.8 87.3 L 397.3 84.7 L 399.0 84.4 L 398.6 81.9 L 397.0 82.6 L 396.5 79.9 Z M 296.4 136.0 L 289.1 138.4 L 287.2 132.3 L 294.5 130.0 Z M 352.5 111.0 L 349.3 112.0 L 350.9 117.5 L 346.4 118.8 L 343.0 107.3 L 350.7 105.0 Z M 409.4 139.8 L 410.2 139.2 L 411.4 140.7 L 410.6 141.3 L 412.8 144.1 L 407.1 148.6 L 406.1 147.4 L 404.5 148.6 L 401.2 144.5 L 402.8 143.2 L 401.7 141.8 L 407.4 137.3 Z M 354.0 269.0 L 354.5 276.6 L 349.0 276.9 L 348.5 269.3 Z M 382.1 59.7 L 379.0 60.2 L 378.4 56.1 L 381.4 55.6 Z M 366.0 183.8 L 359.2 187.7 L 356.5 183.0 L 363.3 179.1 Z M 418.2 202.3 L 415.9 203.2 L 415.1 201.0 L 417.4 200.2 Z M 255.7 317.9 L 248.6 318.7 L 247.7 310.0 L 254.8 309.3 Z M 304.3 63.2 L 300.5 65.1 L 296.5 57.3 L 300.3 55.4 Z M 376.9 202.6 L 371.8 205.2 L 368.5 198.7 L 373.6 196.1 Z M 397.8 233.6 L 392.9 233.8 L 392.7 228.6 L 397.6 228.4 Z M 402.6 66.0 L 403.4 67.2 L 400.9 68.8 L 398.5 65.0 L 400.9 63.2 L 402.3 62.7 L 403.9 65.2 Z M 343.9 46.7 L 348.0 52.3 L 341.9 55.1 L 337.6 45.8 L 342.5 43.6 Z M 244.6 83.5 L 241.7 84.3 L 240.4 80.2 L 243.3 79.3 Z M 344.6 96.6 L 342.1 98.2 L 342.8 99.3 L 332.3 105.7 L 329.7 101.5 L 342.7 93.6 Z M 358.2 281.3 L 358.3 283.4 L 357.8 285.0 L 356.6 285.1 L 357.0 291.9 L 352.7 292.2 L 352.4 287.4 L 351.8 287.4 L 351.7 286.0 L 349.6 286.1 L 349.4 281.9 Z M 417.2 235.7 L 412.2 235.2 L 412.7 230.3 L 417.7 230.8 Z M 357.4 251.1 L 356.3 251.2 L 356.7 257.3 L 351.4 257.6 L 350.9 248.8 L 355.9 248.5 L 356.0 249.5 L 357.3 249.4 Z M 29.8 182.0 L 29.6 181.4 L 30.6 181.1 L 30.7 181.8 L 34.3 181.0 L 35.0 183.9 L 36.0 183.7 L 36.4 185.1 L 27.3 187.0 L 26.2 182.8 Z M 430.3 77.6 L 424.1 79.3 L 421.9 71.5 L 428.2 69.8 Z M 401.9 93.4 L 396.1 96.5 L 398.3 100.7 L 393.9 103.0 L 389.6 94.9 L 399.8 89.4 Z M 85.3 189.4 L 80.3 189.1 L 80.8 182.4 L 85.7 182.7 Z M 288.8 118.3 L 283.7 130.4 L 280.4 129.0 L 281.0 127.4 L 280.2 127.0 L 281.7 123.5 L 282.7 122.4 L 282.0 122.1 L 283.6 118.2 L 284.3 118.5 L 285.0 116.7 Z M 393.8 313.9 L 393.2 318.5 L 385.7 317.6 L 386.3 313.0 Z M 324.9 103.4 L 317.8 103.6 L 317.7 100.3 L 324.8 100.1 Z M 382.1 240.5 L 382.2 243.2 L 379.5 243.2 L 379.4 240.5 Z M 392.2 279.1 L 389.4 279.3 L 389.1 274.9 L 391.8 274.7 Z M 371.4 302.0 L 372.1 301.9 L 372.3 304.7 L 371.6 304.7 L 371.8 307.7 L 372.7 307.7 L 372.9 310.6 L 372.0 310.7 L 372.0 311.5 L 373.8 312.9 L 370.5 317.0 L 368.7 315.6 L 367.6 315.7 L 366.7 316.7 L 365.5 315.8 L 362.5 316.0 L 361.8 316.9 L 360.5 317.0 L 359.5 316.3 L 357.7 316.4 L 357.3 310.6 L 359.1 310.4 L 359.0 309.1 L 361.9 308.9 L 362.0 310.2 L 364.9 310.0 L 364.7 308.2 L 366.5 308.1 L 366.3 305.2 L 365.1 305.3 L 364.9 302.5 L 366.1 302.5 L 366.0 301.0 L 371.3 300.6 Z M 371.3 290.9 L 366.1 291.3 L 365.6 284.5 L 370.9 284.1 Z M 421.6 319.5 L 414.9 319.2 L 415.1 313.7 L 421.8 313.9 Z M 393.8 305.1 L 392.8 305.1 L 392.6 307.3 L 394.4 307.5 L 394.1 310.5 L 387.5 309.8 L 388.3 302.5 L 394.0 303.1 Z M 376.2 265.2 L 373.8 265.3 L 373.7 261.7 L 376.1 261.6 Z M 391.5 292.0 L 392.6 292.0 L 392.6 294.5 L 391.5 294.6 L 391.6 297.4 L 387.7 297.5 L 387.6 290.5 L 391.4 290.4 Z M 328.4 248.9 L 323.4 249.5 L 322.7 243.8 L 327.7 243.1 Z M 327.9 298.5 L 327.5 308.7 L 320.7 308.4 L 321.1 298.2 Z M 407.1 253.0 L 406.8 259.7 L 402.0 259.5 L 402.3 252.8 Z M 427.4 37.8 L 428.4 36.9 L 429.3 37.9 L 429.7 37.5 L 431.2 39.2 L 421.2 47.9 L 422.3 52.6 L 418.3 53.5 L 414.7 38.5 L 415.7 37.6 L 417.9 35.1 L 419.2 34.5 Z M 436.2 129.6 L 429.4 129.6 L 429.5 120.3 L 436.3 120.3 Z M 396.8 4.6 L 398.8 8.5 L 393.1 11.4 L 391.0 7.4 L 392.7 6.6 L 392.2 5.6 L 394.6 4.5 L 395.1 5.4 Z M 433.7 134.2 L 428.6 135.2 L 429.1 137.5 L 426.0 138.1 L 425.1 133.2 L 433.2 131.6 Z M 94.7 154.5 L 91.9 155.2 L 91.2 151.8 L 93.9 151.2 Z M 372.8 186.6 L 369.2 186.0 L 368.7 188.6 L 366.0 188.1 L 367.4 180.3 L 373.7 181.5 Z M 29.2 186.9 L 30.1 191.0 L 27.3 191.6 L 26.4 187.8 L 26.1 187.6 Z M 359.9 126.6 L 361.0 129.1 L 358.9 130.0 L 360.3 133.2 L 355.6 135.2 L 351.8 126.5 L 356.6 124.5 L 357.8 127.4 Z M 439.0 160.4 L 431.8 161.9 L 429.6 151.6 L 436.8 150.1 Z M 298.5 307.4 L 292.5 307.4 L 292.5 301.8 L 298.4 301.8 Z M 316.4 97.5 L 315.1 95.1 L 319.9 92.5 L 320.9 94.4 L 321.8 93.9 L 322.4 95.0 L 321.3 95.6 L 321.0 95.1 Z M 337.1 119.2 L 335.2 121.7 L 336.7 122.8 L 335.2 124.6 L 327.4 118.5 L 330.8 114.2 Z M 378.1 164.9 L 372.8 165.9 L 371.8 160.7 L 377.0 159.7 Z M 398.9 132.4 L 400.0 135.1 L 397.5 136.1 L 398.5 138.5 L 395.4 139.7 L 394.9 138.5 L 393.8 139.0 L 393.1 137.4 L 394.3 137.0 L 393.3 134.3 L 392.2 134.8 L 391.4 133.0 L 396.5 131.0 L 397.3 132.9 Z M 167.6 140.4 L 168.6 145.1 L 154.4 148.3 L 153.3 143.6 Z M 427.7 61.6 L 419.0 64.7 L 416.7 58.2 L 425.4 55.2 Z M 384.8 148.4 L 378.7 150.0 L 378.3 148.7 L 377.3 149.0 L 376.0 144.1 L 377.0 143.8 L 376.6 142.2 L 382.7 140.6 Z M 353.3 209.5 L 352.1 210.2 L 351.1 208.8 L 349.0 210.1 L 348.3 208.9 L 351.7 206.8 Z M 284.6 94.7 L 283.2 101.2 L 274.3 99.3 L 276.0 91.3 L 282.6 92.6 L 282.3 94.2 Z M 382.2 174.6 L 373.7 175.4 L 373.2 170.2 L 376.7 169.9 L 376.6 168.9 L 378.4 168.8 L 378.5 169.7 L 381.7 169.4 Z M 341.5 90.7 L 334.9 84.9 L 339.5 79.7 L 346.1 85.5 Z M 326.4 109.4 L 317.1 119.6 L 313.4 116.2 L 316.7 112.6 L 319.9 108.5 L 322.8 106.1 Z M 409.3 119.9 L 408.0 117.7 L 404.9 112.8 L 407.3 111.3 L 411.7 118.4 Z M 393.8 130.1 L 389.1 131.0 L 388.0 125.4 L 392.6 124.4 Z M 273.9 83.7 L 269.8 83.9 L 269.7 79.7 L 273.8 79.6 Z M 438.9 60.7 L 431.4 63.4 L 428.8 56.0 L 436.2 53.4 Z M 372.2 112.6 L 366.9 115.5 L 363.2 108.7 L 368.4 105.8 Z M 372.5 67.9 L 371.0 67.8 L 370.9 69.8 L 372.2 69.8 L 372.1 72.2 L 370.8 72.2 L 370.7 75.0 L 366.3 74.8 L 366.7 65.4 L 372.6 65.7 Z M 64.5 195.0 L 61.3 194.4 L 61.8 191.7 L 65.0 192.4 Z M 351.7 11.0 L 346.1 13.5 L 345.3 11.8 L 350.9 9.3 Z M 299.7 118.3 L 298.1 120.7 L 295.6 119.0 L 297.2 116.6 Z M 61.3 172.8 L 60.9 176.3 L 58.8 176.0 L 58.7 176.8 L 56.1 176.5 L 56.2 175.7 L 54.0 175.4 L 54.5 172.0 Z M 215.9 89.8 L 216.1 90.7 L 221.3 89.5 L 221.0 88.0 L 223.1 87.5 L 224.9 95.8 L 222.9 96.3 L 222.7 95.3 L 217.4 96.5 L 217.7 97.5 L 215.6 98.0 L 215.0 95.3 L 213.8 95.6 L 213.2 93.0 L 214.3 92.7 L 213.8 90.2 Z M 293.0 114.3 L 289.7 112.2 L 287.2 113.2 L 287.4 111.3 L 289.6 108.0 L 292.5 109.9 L 293.7 108.0 L 296.1 109.5 Z M 260.3 64.0 L 259.0 64.7 L 260.0 66.6 L 238.9 77.6 L 235.3 70.7 L 238.4 69.0 L 239.4 70.9 L 243.4 68.7 L 242.6 67.2 L 249.2 63.8 L 250.3 65.8 L 254.8 63.4 L 254.0 62.0 L 256.8 60.6 L 258.2 63.2 L 259.5 62.5 Z M 323.6 66.4 L 318.5 68.1 L 314.3 55.3 L 319.4 53.6 Z M 362.8 163.3 L 354.4 166.5 L 352.8 162.4 L 361.2 159.2 Z M 150.7 155.1 L 153.5 154.5 L 154.2 157.6 L 148.7 158.8 L 146.8 150.2 L 149.5 149.6 Z M 288.2 138.6 L 275.4 142.0 L 274.6 138.5 L 277.7 129.6 L 282.0 131.3 L 281.2 133.3 L 286.3 131.7 Z M 404.9 242.4 L 404.9 247.6 L 400.5 247.5 L 400.5 242.3 Z M 335.3 236.4 L 335.2 235.3 L 336.9 235.1 L 337.0 236.3 L 338.0 236.2 L 338.3 240.4 L 334.0 240.7 L 333.6 236.5 Z M 149.5 149.6 L 145.7 150.4 L 143.9 142.0 L 147.8 141.2 Z M 280.5 106.3 L 277.8 111.8 L 279.7 112.7 L 278.5 115.4 L 272.6 112.5 L 276.5 104.4 Z M 304.8 55.4 L 300.8 55.2 L 301.0 52.5 L 304.9 52.7 Z M 325.4 161.3 L 322.8 152.8 L 332.2 150.0 L 334.7 158.5 Z M 320.8 83.2 L 313.5 90.6 L 309.4 86.5 L 316.7 79.1 Z M 356.1 242.9 L 353.5 243.0 L 353.6 244.5 L 351.6 244.6 L 351.3 238.9 L 352.5 238.8 L 352.4 237.6 L 354.2 237.5 L 354.3 238.8 L 355.8 238.7 Z M 407.7 269.3 L 407.9 277.3 L 401.2 277.5 L 401.1 275.4 L 402.9 275.4 L 402.8 272.0 L 401.0 272.0 L 400.9 269.5 Z M 311.4 71.3 L 306.0 75.5 L 303.1 71.8 L 308.5 67.6 Z M 396.0 199.4 L 397.4 199.0 L 399.5 205.5 L 397.2 206.2 L 398.2 209.4 L 393.2 211.0 L 392.1 207.4 L 389.5 208.2 L 387.7 202.7 L 389.6 202.1 L 387.8 196.5 L 389.0 196.1 L 388.4 194.4 L 390.5 193.7 L 391.1 195.8 L 394.5 194.7 Z M 308.4 130.7 L 298.0 135.8 L 294.2 127.9 L 295.5 127.3 L 295.0 126.2 L 296.6 125.4 L 297.2 126.5 L 304.6 122.9 Z M 360.1 158.4 L 356.1 159.5 L 354.0 151.3 L 358.0 150.3 Z M 165.4 131.3 L 165.4 136.3 L 158.7 136.3 L 158.7 131.3 Z M 299.0 90.7 L 290.8 100.0 L 287.1 96.8 L 289.4 94.2 L 287.4 92.3 L 293.4 85.6 Z M 412.7 94.1 L 408.2 95.7 L 405.6 88.3 L 410.1 86.7 Z M 349.1 200.8 L 336.0 209.1 L 332.8 204.1 L 336.1 202.0 L 335.5 201.0 L 339.8 198.3 L 340.4 199.3 L 345.9 195.8 Z M 338.4 174.9 L 334.5 168.5 L 339.7 165.4 L 343.6 171.7 Z M 258.5 90.7 L 256.8 91.0 L 257.1 93.1 L 255.5 93.4 L 255.2 91.7 L 254.4 91.9 L 253.4 86.5 L 257.6 85.8 Z M 331.4 276.5 L 326.5 277.2 L 325.7 271.5 L 330.6 270.8 Z M 342.9 242.3 L 340.3 242.4 L 340.2 240.3 L 342.7 240.2 Z M 117.7 185.4 L 120.4 185.1 L 120.5 186.6 L 121.0 188.2 L 121.5 189.7 L 122.0 191.2 L 122.5 192.7 L 122.8 193.7 L 121.4 194.1 L 122.0 195.9 L 119.3 196.8 L 119.6 197.9 L 118.1 198.1 L 116.6 198.6 L 115.1 199.1 L 113.6 199.6 L 112.9 198.2 L 111.4 198.7 L 111.0 197.4 L 111.6 197.1 L 111.3 196.3 L 110.8 194.7 L 109.7 191.3 L 112.3 190.4 L 113.4 193.7 L 116.6 192.9 L 115.7 190.1 L 115.2 188.6 L 114.8 185.7 L 116.2 185.2 L 116.4 185.8 Z M 154.9 184.8 L 153.0 184.9 L 152.9 181.5 L 154.7 181.4 Z M 407.9 71.2 L 409.3 71.0 L 409.6 73.6 L 407.7 73.9 L 407.9 75.6 L 409.0 75.5 L 409.2 77.0 L 408.3 77.1 L 408.5 78.7 L 403.5 79.3 L 402.4 70.9 L 407.8 70.2 Z M 393.0 104.1 L 379.1 113.6 L 374.6 107.0 L 377.6 105.0 L 378.5 106.4 L 389.5 98.9 Z M 409.4 235.0 L 402.7 234.6 L 403.1 227.4 L 409.8 227.8 Z M 357.2 66.1 L 357.8 66.9 L 358.7 66.3 L 359.5 67.6 L 358.6 68.1 L 359.3 69.3 L 360.3 68.7 L 361.1 69.9 L 360.2 70.6 L 360.9 71.7 L 357.1 74.2 L 353.4 68.5 Z M 372.3 239.9 L 372.7 247.9 L 367.9 248.2 L 367.4 240.2 Z M 350.1 311.2 L 344.2 311.4 L 343.8 301.9 L 349.8 301.7 Z M 403.7 130.2 L 400.6 127.6 L 401.2 123.9 L 405.2 124.8 L 407.0 126.3 Z M 295.3 101.8 L 301.7 93.4 L 306.2 96.8 L 299.8 105.2 Z M 407.2 278.7 L 407.5 284.8 L 403.4 285.0 L 403.0 278.9 Z M 397.9 122.3 L 393.6 121.3 L 394.6 116.5 L 399.0 117.5 Z M 397.6 218.7 L 398.7 218.7 L 398.5 225.0 L 394.9 224.9 L 395.0 223.1 L 394.0 223.1 L 394.2 217.4 L 397.6 217.5 Z M 323.6 320.0 L 314.9 320.0 L 314.9 318.7 L 316.9 318.8 L 316.9 318.1 L 322.2 318.3 L 322.1 319.0 L 323.7 319.1 Z M 354.8 263.3 L 355.1 267.0 L 351.6 267.3 L 351.3 263.6 Z M 339.8 250.3 L 336.3 250.7 L 335.9 247.5 L 339.4 247.0 Z M 363.1 103.2 L 363.4 104.8 L 365.4 104.4 L 365.9 106.6 L 359.9 107.8 L 359.2 104.0 Z M 408.9 292.1 L 404.0 292.0 L 404.1 287.1 L 409.1 287.3 Z M 351.5 159.9 L 347.3 161.9 L 344.1 155.3 L 348.3 153.2 Z M 411.2 106.7 L 406.5 108.7 L 404.1 103.2 L 408.9 101.2 Z M 415.0 86.3 L 410.9 87.3 L 409.0 78.7 L 413.1 77.7 Z M 418.2 190.5 L 412.4 192.7 L 411.1 189.2 L 409.2 189.9 L 408.2 187.0 L 409.5 186.5 L 408.0 182.6 L 414.4 180.3 Z M 90.3 169.6 L 89.3 169.7 L 89.5 171.2 L 84.1 172.0 L 83.9 170.1 L 81.4 170.4 L 81.0 167.8 L 83.7 167.5 L 83.5 166.1 L 87.2 165.5 L 87.4 167.1 L 89.9 166.8 Z M 369.3 263.2 L 369.4 264.2 L 370.2 264.2 L 370.4 266.7 L 369.6 266.8 L 369.7 268.2 L 365.3 268.6 L 364.9 263.6 Z M 18.5 300.8 L 22.0 310.0 L 17.1 311.8 L 13.6 302.6 Z M 7.2 298.1 L 3.7 299.7 L 4.2 300.9 L 0.4 302.7 L 0.0 301.8 L 0.0 298.6 L 2.1 297.7 L 0.0 293.0 L 0.0 292.4 L 3.9 290.6 Z M 17.8 319.7 L 12.4 320.0 L 16.2 317.1 Z M 32.8 212.4 L 34.1 215.4 L 31.0 216.7 L 29.7 213.7 Z M 215.3 146.5 L 213.9 147.4 L 218.9 155.0 L 216.8 156.4 L 217.8 157.9 L 207.7 164.7 L 206.8 163.3 L 204.9 164.5 L 197.2 153.0 L 210.9 143.8 L 211.8 145.0 L 213.5 143.8 Z M 131.9 256.5 L 133.3 255.7 L 135.5 259.8 L 129.1 263.3 L 126.1 257.9 L 131.2 255.1 Z M 239.0 221.3 L 240.6 229.6 L 231.4 231.4 L 229.7 223.1 Z M 228.9 233.2 L 218.7 236.3 L 216.3 228.7 L 226.5 225.6 Z M 271.6 296.9 L 267.9 297.0 L 267.9 294.8 L 271.6 294.7 Z M 267.9 284.9 L 268.2 289.3 L 264.0 289.6 L 263.8 285.1 Z M 293.9 211.0 L 294.8 217.0 L 288.1 218.1 L 287.1 212.1 Z M 324.5 176.9 L 329.3 186.0 L 327.4 187.0 L 329.7 191.4 L 327.0 192.8 L 324.8 188.6 L 323.6 189.3 L 321.2 184.8 L 322.5 184.1 L 320.0 179.2 Z M 241.3 212.9 L 233.1 214.8 L 231.7 209.0 L 240.0 207.1 Z M 38.6 225.7 L 35.0 227.0 L 33.9 223.9 L 37.4 222.6 Z M 315.8 166.5 L 320.0 174.2 L 317.6 175.5 L 313.4 167.8 Z M 222.8 257.1 L 214.6 258.6 L 213.3 251.5 L 221.5 250.1 Z M 256.0 183.7 L 256.0 187.1 L 251.4 187.2 L 251.4 183.7 Z M 234.0 170.0 L 230.1 171.5 L 230.7 173.0 L 229.1 173.5 L 228.5 172.0 L 222.6 174.2 L 221.0 169.9 L 224.9 168.3 L 224.4 167.0 L 231.8 164.2 Z M 282.4 290.4 L 283.0 295.8 L 280.2 296.1 L 279.6 290.7 Z M 204.7 243.3 L 199.0 244.8 L 197.6 239.0 L 203.3 237.6 Z M 147.5 219.9 L 155.9 217.0 L 157.6 221.8 L 152.9 223.5 L 153.1 224.1 L 149.4 225.4 Z M 7.0 268.9 L 3.3 270.8 L 1.1 266.5 L 2.8 265.7 L 3.1 266.4 L 5.2 265.4 Z M 128.5 262.9 L 127.3 263.6 L 126.1 261.6 L 121.9 264.1 L 120.3 261.4 L 125.8 258.2 Z M 261.6 144.2 L 253.9 147.7 L 252.2 144.0 L 259.9 140.5 Z M 302.2 165.4 L 305.2 176.3 L 302.9 176.9 L 305.1 184.9 L 294.5 187.9 L 291.7 177.7 L 287.9 178.8 L 286.9 175.5 L 289.9 174.7 L 288.3 169.2 Z M 239.2 245.4 L 239.7 251.4 L 231.8 252.0 L 231.4 246.0 Z M 140.9 195.9 L 145.6 196.6 L 144.5 204.3 L 139.9 203.7 Z M 262.6 272.9 L 264.1 272.7 L 263.6 267.1 L 268.8 266.6 L 269.7 275.5 L 262.9 276.1 Z M 281.4 239.8 L 272.3 241.4 L 271.3 236.2 L 280.5 234.6 Z M 172.6 201.2 L 165.0 203.8 L 163.2 198.6 L 170.8 196.0 Z M 30.3 230.3 L 27.3 231.6 L 25.6 227.6 L 28.7 226.3 Z M 227.6 210.7 L 223.9 211.5 L 222.2 203.1 L 222.9 202.9 L 222.5 201.1 L 224.7 200.7 L 225.0 202.5 L 225.8 202.3 Z M 162.1 232.9 L 154.7 236.4 L 152.5 231.8 L 160.0 228.3 Z M 11.4 236.2 L 7.5 238.0 L 4.5 231.4 L 8.4 229.6 Z M 18.5 251.3 L 14.6 252.8 L 12.0 246.2 L 15.9 244.7 Z M 295.6 281.2 L 296.5 290.7 L 291.1 291.2 L 290.2 281.7 Z M 88.5 252.9 L 84.5 256.7 L 81.0 253.0 L 85.0 249.2 Z M 132.6 272.4 L 129.3 274.6 L 126.5 270.5 L 129.7 268.3 Z M 268.5 264.9 L 263.3 265.4 L 262.6 256.6 L 267.8 256.1 Z M 243.8 227.2 L 240.2 227.8 L 238.9 219.9 L 242.8 219.2 L 242.6 218.1 L 250.7 216.8 L 253.6 234.0 L 245.1 235.4 Z M 329.8 163.8 L 334.5 172.7 L 329.3 175.5 L 324.6 166.6 Z M 156.4 216.1 L 164.2 212.9 L 166.3 218.0 L 158.5 221.2 Z M 221.3 175.5 L 225.2 180.0 L 216.9 187.1 L 213.0 182.6 Z M 235.4 257.5 L 241.2 257.5 L 241.6 261.7 L 238.4 261.9 L 238.5 262.9 L 233.8 263.3 L 233.4 257.7 Z M 168.7 225.7 L 168.5 225.0 L 170.0 224.6 L 170.1 225.2 L 173.5 224.2 L 174.9 228.9 L 171.9 229.7 L 172.2 230.9 L 169.9 231.6 L 169.5 230.4 L 166.6 231.3 L 165.2 226.6 Z M 289.8 237.3 L 290.3 240.8 L 285.8 241.5 L 285.2 238.1 Z M 145.4 264.3 L 150.5 262.4 L 154.6 273.8 L 149.6 275.7 Z M 211.8 292.4 L 204.2 294.1 L 197.5 261.8 L 191.5 262.9 L 192.1 264.9 L 187.5 265.7 L 185.8 258.2 L 203.5 254.5 Z M 144.4 227.4 L 133.9 230.2 L 133.1 227.2 L 133.8 227.1 L 133.0 224.1 L 142.8 221.5 Z M 39.5 228.4 L 41.1 232.1 L 38.0 233.5 L 36.4 229.7 Z M 250.2 160.9 L 249.4 157.0 L 259.0 154.8 L 259.9 158.7 Z M 251.9 190.6 L 252.6 193.9 L 249.4 194.5 L 248.8 191.2 Z M 32.3 236.5 L 28.9 238.0 L 27.4 234.4 L 30.8 233.0 Z M 205.2 192.3 L 202.3 188.9 L 203.4 188.0 L 201.7 185.9 L 203.2 184.7 L 204.3 186.0 L 206.0 184.5 L 204.9 183.1 L 206.9 181.4 L 211.6 187.0 Z M 201.2 195.7 L 195.0 201.3 L 191.9 197.8 L 193.8 196.1 L 193.1 195.2 L 196.0 192.6 L 196.8 193.4 L 198.1 192.2 Z M 156.1 248.3 L 156.6 249.3 L 154.2 250.4 L 153.7 249.4 L 152.3 250.1 L 150.4 246.4 L 155.8 243.8 L 157.7 247.5 Z M 138.0 280.7 L 127.0 288.3 L 122.9 282.0 L 133.8 274.5 Z M 259.1 290.0 L 253.2 290.4 L 253.0 286.1 L 258.9 285.7 Z M 189.4 246.6 L 184.4 247.9 L 183.0 242.7 L 188.0 241.4 Z M 271.2 186.3 L 267.4 187.2 L 266.3 182.2 L 270.2 181.4 Z M 188.3 189.2 L 182.7 193.7 L 179.0 189.1 L 184.6 184.6 Z M 46.6 266.2 L 42.2 268.1 L 40.2 263.5 L 44.6 261.5 Z M 52.7 250.5 L 53.9 249.5 L 53.0 248.7 L 55.1 246.4 L 56.6 247.8 L 58.6 245.6 L 56.6 243.7 L 58.5 241.6 L 65.5 248.0 L 56.2 258.0 L 54.5 256.4 L 55.3 255.5 L 51.4 251.8 Z M 322.7 275.5 L 323.1 279.8 L 318.2 280.3 L 317.7 276.0 Z M 301.7 234.0 L 302.3 240.8 L 300.0 241.0 L 294.6 241.0 L 294.1 235.6 L 299.5 235.1 L 299.4 234.3 Z M 25.3 215.6 L 27.7 220.8 L 23.7 222.7 L 21.3 217.5 Z M 8.7 256.0 L 5.6 257.4 L 4.6 255.1 L 7.7 253.7 Z M 257.5 136.2 L 253.4 138.6 L 252.9 137.6 L 250.8 138.8 L 249.9 137.1 L 252.2 135.8 L 251.6 134.7 L 255.4 132.5 Z M 193.3 164.7 L 194.8 165.5 L 195.4 165.8 L 198.5 167.2 L 199.7 167.4 L 200.0 168.0 L 201.1 168.2 L 201.5 168.8 L 202.5 169.0 L 204.1 170.1 L 205.3 171.7 L 205.4 173.4 L 204.4 174.9 L 203.9 175.8 L 203.2 176.0 L 202.6 176.9 L 201.9 177.1 L 200.4 178.5 L 199.1 180.0 L 198.1 180.3 L 194.0 184.3 L 188.8 178.6 L 186.5 176.5 L 184.0 173.4 L 188.4 165.2 L 187.8 164.9 L 189.1 162.5 Z M 273.1 282.9 L 273.0 281.8 L 277.0 281.2 L 277.2 282.7 L 279.5 282.3 L 280.4 288.4 L 272.1 289.6 L 271.2 283.1 Z M 307.6 201.6 L 305.0 202.1 L 304.8 201.0 L 301.5 201.6 L 301.7 202.7 L 299.1 203.2 L 297.8 196.9 L 306.3 195.1 Z M 260.8 158.4 L 259.0 152.8 L 271.8 149.1 L 271.3 155.3 Z M 76.5 312.3 L 78.6 312.0 L 79.4 318.0 L 77.1 318.3 L 77.3 320.0 L 70.6 320.0 L 69.1 305.2 L 75.6 304.5 Z M 107.6 219.0 L 103.6 220.7 L 101.9 216.6 L 106.0 215.0 Z M 280.6 218.6 L 264.8 221.6 L 266.3 229.1 L 260.6 230.2 L 258.0 216.3 L 279.4 212.3 Z M 258.7 284.7 L 252.6 285.1 L 252.3 280.6 L 258.4 280.1 Z M 237.7 153.6 L 224.7 159.6 L 222.1 154.2 L 235.2 148.1 Z M 340.8 186.1 L 333.6 191.5 L 330.8 187.8 L 338.1 182.4 Z M 264.1 128.7 L 264.9 128.3 L 266.2 130.6 L 260.9 133.5 L 256.8 126.2 L 261.4 123.7 Z M 315.6 226.1 L 316.2 231.3 L 309.4 232.1 L 308.8 226.9 Z M 155.5 201.2 L 157.6 207.3 L 150.7 209.6 L 148.7 203.5 Z M 2.4 257.9 L 3.3 257.5 L 4.4 259.7 L 1.9 260.9 L 2.8 262.7 L 0.1 264.0 L 0.0 255.8 L 1.1 255.3 Z M 287.1 189.4 L 288.3 195.0 L 283.3 196.0 L 282.1 190.4 Z M 135.2 208.5 L 138.0 207.7 L 138.4 209.0 L 142.0 207.9 L 143.6 213.1 L 136.2 215.3 L 134.6 210.1 Z M 41.1 257.5 L 37.3 259.3 L 35.4 255.4 L 39.2 253.6 Z M 29.7 244.5 L 25.7 246.4 L 22.5 239.7 L 26.5 237.8 Z M 178.9 207.0 L 185.5 202.6 L 184.9 201.7 L 186.5 200.7 L 187.1 201.6 L 190.2 199.5 L 194.8 206.3 L 183.4 213.9 Z M 312.3 208.9 L 312.4 209.7 L 318.3 208.8 L 319.4 216.1 L 315.6 216.7 L 315.3 214.4 L 310.1 215.2 L 309.2 209.4 Z M 231.8 261.0 L 232.6 265.6 L 227.6 266.4 L 226.8 261.8 Z M 109.4 231.1 L 111.0 235.5 L 104.9 237.7 L 103.3 233.3 Z M 56.2 211.9 L 57.3 216.5 L 50.8 218.1 L 49.7 213.4 Z M 254.9 166.2 L 255.8 171.4 L 250.8 172.3 L 249.9 167.1 Z M 62.1 236.6 L 56.7 238.0 L 57.0 239.1 L 55.5 239.6 L 53.8 240.6 L 52.0 241.7 L 51.6 240.8 L 50.6 241.0 L 50.2 239.4 L 48.3 239.9 L 47.7 239.6 L 45.5 236.6 L 45.1 235.3 L 49.7 233.9 L 50.3 235.9 L 54.1 234.8 L 52.2 226.4 L 52.9 226.3 L 52.2 223.3 L 58.3 221.7 Z M 238.9 199.7 L 233.8 200.7 L 232.5 194.0 L 237.6 193.0 Z M 205.4 217.1 L 206.9 221.8 L 201.3 223.6 L 199.9 218.8 Z M 250.4 171.3 L 244.0 172.7 L 245.7 180.4 L 250.9 179.3 L 251.7 183.1 L 239.7 185.7 L 235.1 164.6 L 248.4 161.8 Z M 82.4 297.0 L 83.8 296.4 L 85.2 296.8 L 86.0 298.0 L 86.0 299.3 L 85.0 300.4 L 84.1 300.7 L 82.7 300.3 L 81.8 299.1 L 81.7 298.3 Z M 3.1 248.6 L 0.0 250.1 L 0.0 243.6 L 0.6 243.3 Z M 258.9 209.7 L 255.1 210.6 L 254.1 206.0 L 257.9 205.2 Z M 282.5 199.6 L 283.6 205.8 L 267.7 208.9 L 266.5 202.7 Z M 16.6 289.3 L 13.0 291.1 L 9.6 284.1 L 13.1 282.4 Z M 39.4 262.5 L 33.5 265.1 L 32.2 262.3 L 29.0 263.7 L 27.0 259.4 L 32.9 256.8 L 34.9 261.2 L 38.1 259.7 Z M 194.0 239.9 L 195.9 246.5 L 192.1 247.6 L 190.2 241.0 Z M 270.5 297.9 L 271.0 304.5 L 266.3 304.9 L 265.8 298.3 Z M 80.7 217.6 L 77.2 218.7 L 75.8 214.0 L 79.2 212.9 Z M 80.0 224.5 L 81.6 230.3 L 72.2 232.9 L 70.5 227.2 Z M 299.9 160.8 L 287.4 164.9 L 285.2 158.0 L 297.7 153.9 Z M 144.9 207.0 L 144.6 205.8 L 146.4 205.2 L 146.8 206.4 L 149.4 205.6 L 151.1 210.8 L 143.6 213.1 L 142.0 207.9 Z M 40.5 297.6 L 41.4 304.7 L 37.2 305.3 L 36.3 298.1 Z M 309.5 251.2 L 307.7 251.4 L 308.1 256.1 L 304.1 256.5 L 303.3 248.0 L 309.1 247.5 Z M 257.8 275.9 L 253.0 276.5 L 251.9 267.5 L 249.8 267.8 L 249.5 265.4 L 256.4 264.6 Z M 248.3 133.2 L 243.4 126.1 L 247.8 123.0 L 252.7 130.1 Z M 252.9 203.9 L 254.1 211.7 L 252.1 212.0 L 251.8 210.4 L 247.1 211.1 L 247.4 212.7 L 244.9 213.1 L 243.7 205.3 Z M 163.9 274.4 L 164.3 275.4 L 165.9 274.9 L 166.8 277.5 L 165.3 278.0 L 166.0 280.1 L 153.3 284.5 L 151.3 278.8 Z M 324.8 236.1 L 325.8 236.0 L 326.0 238.2 L 325.0 238.3 L 325.1 239.8 L 320.9 240.2 L 320.5 234.8 L 324.7 234.5 Z M 109.4 231.1 L 122.7 226.4 L 125.2 233.5 L 111.9 238.2 Z M 1.1 235.2 L 3.2 239.4 L 1.4 240.3 L 0.0 237.6 L 0.0 235.8 Z M 255.1 260.7 L 248.1 261.6 L 247.7 258.6 L 248.5 258.5 L 247.7 252.0 L 245.4 252.3 L 244.9 248.6 L 247.2 248.4 L 247.0 246.9 L 253.3 246.1 Z M 172.5 215.4 L 167.0 218.2 L 164.5 213.2 L 170.0 210.4 Z M 178.2 266.9 L 179.0 269.0 L 166.0 272.9 L 165.3 270.6 Z M 265.7 142.4 L 262.2 137.6 L 264.1 136.3 L 267.6 141.0 Z M 35.4 315.8 L 31.5 315.5 L 31.6 311.7 L 31.9 308.5 L 35.8 308.7 L 35.8 309.4 L 38.6 309.5 L 38.4 312.0 L 39.1 312.0 L 39.0 313.7 L 38.3 313.7 L 38.2 315.2 L 35.5 315.1 Z M 280.9 244.4 L 281.5 251.4 L 276.9 251.8 L 276.6 248.8 L 270.3 249.4 L 270.0 245.4 Z M 163.2 198.6 L 165.0 203.8 L 157.3 206.4 L 155.5 201.2 Z M 91.9 241.8 L 92.3 239.5 L 93.9 237.8 L 93.7 237.1 L 97.1 235.9 L 97.6 235.1 L 101.9 234.2 L 107.4 250.2 L 102.9 251.7 L 103.3 252.8 L 100.1 253.9 L 98.2 248.6 L 93.5 250.2 L 93.3 249.6 L 92.2 249.9 L 91.6 248.0 L 90.3 248.5 L 89.7 246.8 L 89.0 246.3 L 88.4 243.0 Z M 125.1 276.1 L 120.7 279.1 L 117.7 274.7 L 122.1 271.7 Z M 123.3 288.6 L 104.4 301.0 L 98.3 291.7 L 100.6 290.2 L 103.3 294.1 L 119.8 283.3 Z M 180.3 275.4 L 170.2 278.9 L 169.3 276.8 L 179.6 273.3 Z M 15.0 270.2 L 16.6 269.3 L 18.0 271.9 L 12.5 274.7 L 10.2 270.3 L 14.0 268.3 Z M 253.5 175.9 L 253.6 177.3 L 257.1 177.0 L 257.4 180.9 L 251.8 181.3 L 251.4 176.0 Z M 115.3 248.7 L 113.7 249.4 L 111.9 245.4 L 113.5 244.6 Z M 277.4 196.4 L 268.8 197.7 L 268.3 194.5 L 276.9 193.1 Z M 317.1 200.3 L 314.4 200.8 L 314.1 199.4 L 311.0 200.1 L 311.3 201.3 L 308.9 201.9 L 307.3 194.8 L 315.5 193.1 Z M 266.1 245.0 L 260.4 245.2 L 260.3 243.6 L 261.4 243.6 L 261.2 240.4 L 259.6 240.5 L 259.3 235.9 L 265.9 235.5 L 266.1 238.7 L 267.4 238.7 L 267.6 241.3 L 266.9 241.4 L 267.0 243.0 L 265.9 243.0 Z M 150.5 255.2 L 141.7 258.4 L 141.1 255.8 L 140.4 256.0 L 138.8 251.7 L 139.5 251.4 L 139.3 250.8 L 145.3 248.4 L 146.1 249.3 L 145.3 249.6 L 145.8 251.0 L 146.1 251.8 L 146.9 252.6 L 146.7 253.5 L 147.3 253.3 L 148.6 252.3 L 149.6 252.4 Z M 323.7 192.2 L 326.1 197.3 L 319.7 200.4 L 317.3 195.2 Z M 273.8 192.2 L 270.0 193.1 L 269.3 190.2 L 273.1 189.3 Z M 103.9 310.1 L 102.0 312.5 L 98.8 309.9 L 100.7 307.6 Z M 21.9 204.9 L 23.4 208.6 L 19.1 210.4 L 17.6 206.6 Z M 29.3 201.9 L 30.5 204.7 L 26.9 206.2 L 25.7 203.3 Z M 281.3 184.5 L 277.7 186.6 L 274.0 180.2 L 277.6 178.1 Z M 42.9 305.1 L 43.3 308.9 L 37.1 309.5 L 36.7 305.7 Z M 296.6 266.1 L 297.9 276.7 L 291.0 277.5 L 289.8 266.9 Z M 321.4 159.7 L 312.1 163.4 L 302.5 139.7 L 311.5 136.1 L 314.2 142.8 L 311.3 144.0 L 315.9 155.3 L 319.1 154.0 Z M 166.6 283.9 L 178.1 280.0 L 180.1 285.8 L 182.4 284.9 L 183.9 289.3 L 171.5 293.8 L 171.0 292.3 L 169.8 292.8 L 169.2 291.0 L 169.2 289.6 L 168.6 289.5 Z M 298.7 257.4 L 294.1 257.8 L 293.7 253.1 L 298.3 252.7 Z M 292.9 196.0 L 293.3 197.8 L 292.2 198.0 L 293.0 202.3 L 294.1 202.0 L 294.5 203.8 L 287.8 205.2 L 287.3 202.6 L 286.2 202.8 L 285.5 199.9 L 286.5 199.6 L 286.1 197.4 Z M 24.8 264.6 L 21.3 266.1 L 20.5 264.3 L 16.3 266.1 L 14.1 261.0 L 21.8 257.7 Z M 40.9 203.6 L 44.1 202.5 L 45.3 206.0 L 42.1 207.1 Z M 98.5 225.3 L 84.2 229.2 L 82.1 221.9 L 96.5 218.0 Z M 221.8 190.8 L 222.1 202.5 L 220.5 202.5 L 220.6 203.9 L 217.9 204.0 L 217.8 199.2 L 216.3 199.2 L 216.1 193.8 L 217.5 193.7 L 217.4 190.9 Z M 261.2 196.4 L 262.9 204.0 L 259.2 204.9 L 257.5 197.2 Z M 41.3 267.1 L 42.9 271.8 L 39.7 272.9 L 40.4 275.0 L 37.5 275.9 L 35.2 269.1 Z M 196.7 218.2 L 198.0 223.0 L 190.5 225.1 L 189.2 220.3 Z M 165.6 259.0 L 166.8 263.2 L 156.6 265.6 L 155.4 261.5 Z M 306.6 233.1 L 302.1 233.7 L 301.4 229.1 L 306.0 228.4 Z M 272.2 118.1 L 267.5 123.6 L 263.9 120.5 L 268.7 115.1 Z M 150.7 236.7 L 151.9 236.1 L 152.9 238.2 L 143.9 242.6 L 142.8 240.4 L 144.1 239.8 L 142.9 237.2 L 149.4 234.1 Z M 178.2 242.1 L 180.5 249.2 L 172.5 251.8 L 169.8 243.6 L 175.4 241.8 L 173.9 237.4 L 189.9 232.1 L 191.8 237.7 Z M 279.2 267.0 L 278.3 266.9 L 278.6 272.1 L 275.8 272.5 L 275.4 268.4 L 274.4 268.5 L 274.5 271.1 L 271.6 271.2 L 271.2 266.3 L 274.2 266.2 L 274.2 265.1 L 279.0 265.0 Z M 198.2 237.4 L 196.5 230.0 L 202.2 228.6 L 203.9 236.1 Z M 51.3 276.5 L 65.2 275.5 L 65.6 280.8 L 51.6 281.8 Z M 34.8 217.1 L 36.2 220.4 L 32.7 221.9 L 31.3 218.6 Z M 45.8 303.3 L 47.1 318.4 L 44.9 318.6 L 43.6 303.5 Z M 336.6 225.1 L 336.9 225.9 L 336.8 226.7 L 336.1 227.7 L 335.4 228.1 L 333.8 227.8 L 333.0 226.5 L 333.0 225.7 L 333.4 224.9 L 334.4 224.3 L 335.6 224.3 Z M 408.2 161.3 L 411.0 168.8 L 408.8 169.6 L 408.1 167.8 L 403.8 169.4 L 404.5 171.2 L 401.9 172.2 L 399.1 164.7 Z M 331.7 148.8 L 328.7 150.1 L 324.0 138.8 L 321.4 139.9 L 318.6 133.1 L 324.2 130.8 Z M 24.6 279.5 L 15.6 284.0 L 12.8 278.3 L 21.8 273.8 Z M 30.4 277.7 L 33.2 283.4 L 26.2 286.8 L 23.4 281.0 Z M 22.6 270.3 L 23.1 269.0 L 24.2 268.5 L 25.5 268.8 L 27.5 267.9 L 29.4 272.7 L 26.8 274.0 L 27.2 274.9 L 25.9 275.5 L 25.5 274.6 L 22.6 275.8 L 20.7 271.3 Z M 361.5 79.0 L 362.2 81.8 L 361.8 82.5 L 362.6 82.4 L 362.9 85.4 L 360.7 85.6 L 360.6 83.9 L 357.9 84.1 L 357.4 78.0 L 361.4 77.7 Z M 368.3 272.8 L 368.3 272.0 L 370.4 271.9 L 370.4 272.8 L 371.5 272.8 L 371.6 280.6 L 370.4 280.6 L 370.4 281.6 L 368.4 281.6 L 368.4 280.6 L 366.6 280.7 L 366.4 272.8 Z M 1.4 189.3 L 10.2 184.4 L 14.6 191.6 L 12.7 194.7 L 4.3 199.9 L 0.0 192.9 L 0.0 189.5 Z M 211.6 305.9 L 210.7 304.1 L 225.0 297.3 L 227.2 302.4 L 229.3 301.1 L 231.1 307.7 L 232.9 308.0 L 231.5 316.6 L 233.6 316.3 L 233.4 320.0 L 206.9 320.0 L 203.9 313.9 L 205.3 313.1 L 204.0 310.1 Z M 356.0 88.6 L 353.8 91.1 L 350.4 88.1 L 352.5 85.6 Z M 33.2 253.6 L 26.9 256.2 L 24.9 251.3 L 31.2 248.7 Z M 51.6 320.0 L 49.9 303.7 L 53.1 303.3 L 54.8 320.0 Z M 353.3 192.1 L 355.7 196.6 L 354.9 197.0 L 355.8 198.7 L 352.3 200.5 L 351.5 198.9 L 350.6 199.3 L 348.2 194.8 Z M 332.0 290.4 L 332.0 296.6 L 327.0 296.6 L 327.0 290.4 Z M 300.3 282.6 L 307.7 282.6 L 307.7 287.5 L 300.3 287.5 Z M 302.5 295.4 L 308.4 295.1 L 308.6 299.3 L 302.8 299.6 Z M 17.7 215.6 L 20.7 222.4 L 17.4 223.9 L 16.5 221.8 L 14.3 222.7 L 12.6 218.9 L 14.8 218.0 L 14.4 217.1 Z M 333.3 320.0 L 328.3 320.0 L 328.3 314.2 L 333.3 314.2 Z M 7.3 308.9 L 10.5 314.4 L 2.6 318.9 L 0.0 314.4 L 0.0 313.1 Z M 9.3 271.9 L 11.1 275.5 L 7.6 277.3 L 6.7 275.5 L 5.7 275.2 L 5.8 273.7 Z M 0.0 289.8 L 0.0 282.7 L 2.7 288.5 Z M 372.3 133.1 L 371.4 131.2 L 372.7 130.7 L 371.9 128.9 L 367.5 130.8 L 366.1 127.5 L 374.7 123.7 L 375.6 125.8 L 376.9 125.2 L 379.1 130.1 Z M 369.8 119.2 L 373.5 117.4 L 374.1 118.6 L 375.5 117.9 L 376.4 119.9 L 375.1 120.6 L 375.6 121.6 L 371.9 123.5 Z M 336.1 67.0 L 343.9 63.8 L 345.6 68.1 L 337.8 71.3 Z M 349.9 66.2 L 347.1 67.8 L 344.7 63.4 L 347.5 61.8 Z M 362.0 50.1 L 361.8 49.3 L 358.5 50.2 L 355.9 41.2 L 360.4 39.6 L 360.8 41.2 L 361.8 40.9 L 362.3 42.5 L 361.3 42.8 L 363.4 49.7 Z M 221.4 271.0 L 241.0 269.0 L 241.3 271.8 L 241.9 271.8 L 242.2 274.8 L 241.6 274.8 L 242.0 279.7 L 242.7 279.7 L 243.0 282.6 L 242.3 282.7 L 243.0 289.3 L 243.6 289.2 L 243.9 292.2 L 243.3 292.3 L 243.9 298.9 L 244.6 298.8 L 244.9 301.8 L 244.2 301.9 L 244.6 305.3 L 238.7 305.9 L 238.3 302.2 L 237.9 299.8 L 237.3 292.6 L 235.6 275.5 L 228.4 276.2 L 228.5 276.9 L 225.5 277.2 L 225.4 276.5 L 223.5 276.7 L 223.4 276.0 L 221.9 276.2 Z M 341.4 210.9 L 348.3 221.8 L 348.2 227.8 L 340.6 227.3 L 340.7 222.4 L 335.9 214.1 Z M 260.8 307.4 L 257.2 307.8 L 256.6 302.1 L 260.1 301.7 Z M 271.3 128.5 L 272.6 129.2 L 271.2 132.1 L 269.8 131.5 Z M 299.2 82.6 L 302.8 86.2 L 299.5 89.6 L 295.8 86.0 Z M 232.2 68.5 L 233.6 71.9 L 233.8 73.7 L 230.7 75.0 L 230.3 74.2 L 215.9 80.2 L 216.2 81.0 L 212.9 82.4 L 212.3 80.9 L 210.3 77.6 Z M 253.9 147.7 L 246.3 151.2 L 244.6 147.5 L 252.2 144.0 Z M 195.3 162.1 L 195.0 161.0 L 195.4 159.9 L 196.3 159.2 L 197.4 159.0 L 198.5 159.3 L 199.2 160.2 L 199.4 161.3 L 199.1 162.4 L 198.2 163.1 L 197.1 163.4 L 196.0 163.0 Z M 410.3 14.0 L 408.1 9.8 L 409.7 8.9 L 410.5 10.3 L 413.5 8.7 L 415.0 11.4 Z M 192.1 301.1 L 188.7 302.4 L 187.3 298.4 L 190.6 297.1 Z M 376.6 270.5 L 376.6 273.1 L 374.4 273.2 L 374.4 270.5 Z M 312.5 313.4 L 312.4 316.5 L 310.5 316.4 L 310.6 313.4 Z M 380.7 283.2 L 380.7 283.8 L 382.4 283.7 L 382.5 286.0 L 380.8 286.0 L 380.9 288.9 L 378.9 289.0 L 378.7 283.3 Z M 388.4 281.6 L 390.4 281.6 L 390.5 284.7 L 388.5 284.8 Z M 408.0 117.7 L 409.3 119.9 L 408.4 120.8 L 406.6 119.0 Z M 406.6 119.0 L 410.0 122.3 L 408.2 124.1 L 404.8 120.7 Z M 399.0 117.5 L 393.5 116.3 L 393.9 114.6 L 399.4 115.9 Z M 396.0 149.0 L 394.7 149.5 L 395.3 150.9 L 391.3 152.6 L 389.4 147.9 L 394.7 145.7 Z M 380.1 152.4 L 384.7 152.0 L 385.1 155.9 L 380.4 156.3 Z M 251.3 81.3 L 251.9 84.6 L 248.8 85.1 L 248.2 81.8 Z M 137.1 113.7 L 136.7 112.9 L 136.8 111.9 L 137.5 111.3 L 138.5 111.3 L 139.2 111.9 L 139.4 112.8 L 138.9 113.7 L 138.0 114.0 Z M 265.1 178.3 L 260.9 179.1 L 259.8 173.8 L 264.0 173.0 Z M 230.0 207.1 L 230.3 209.2 L 228.0 209.6 L 227.7 207.5 Z M 229.5 205.2 L 228.1 205.5 L 227.5 202.9 L 228.9 202.6 Z M 233.2 204.5 L 229.5 205.2 L 228.7 201.7 L 232.4 200.9 Z M 204.5 213.9 L 202.0 215.0 L 198.5 207.4 L 201.0 206.3 Z M 179.7 219.9 L 181.9 226.6 L 177.9 228.0 L 175.7 221.2 Z M 68.7 152.0 L 70.7 156.3 L 68.1 157.5 L 66.1 153.2 Z M 36.0 164.9 L 41.9 161.6 L 43.7 164.8 L 37.8 168.1 Z M 26.2 196.4 L 30.4 197.1 L 31.4 199.5 L 25.1 202.1 L 23.2 197.6 Z M 221.0 88.0 L 219.9 80.5 L 220.3 79.9 L 221.7 79.6 L 222.3 80.0 L 222.6 80.6 L 223.8 85.8 L 224.8 85.6 L 226.4 92.4 L 224.3 92.9 L 223.1 87.5 Z M 222.0 115.4 L 227.2 122.9 L 235.3 117.3 L 230.1 109.8 L 234.3 106.9 L 242.5 118.8 L 226.1 130.1 L 217.9 118.3 L 216.8 119.1 L 211.0 110.7 L 215.0 108.0 L 220.7 116.3 Z M 141.1 233.8 L 137.5 235.1 L 136.9 233.2 L 140.4 231.9 Z M 148.8 231.1 L 141.1 233.8 L 140.2 231.2 L 147.9 228.5 Z M 162.5 188.9 L 164.3 195.1 L 162.3 195.7 L 162.8 197.3 L 158.0 198.7 L 155.7 190.9 Z M 307.8 234.8 L 308.7 246.1 L 303.0 246.5 L 302.7 243.3 L 306.6 243.0 L 305.9 235.0 Z M 332.7 211.2 L 331.9 209.9 L 329.5 206.2 L 332.8 204.1 L 336.0 209.1 Z M 356.4 261.8 L 350.2 262.1 L 350.1 258.8 L 356.3 258.6 Z M 345.7 239.1 L 348.4 238.8 L 348.5 240.3 L 345.8 240.6 Z M 344.5 242.9 L 346.2 242.8 L 346.0 241.5 L 347.8 241.3 L 347.9 242.6 L 348.9 242.5 L 349.2 245.4 L 344.8 245.8 Z M 366.4 171.4 L 365.4 166.2 L 370.0 165.3 L 371.0 170.5 Z M 376.6 205.2 L 378.1 208.0 L 375.1 209.5 L 373.6 206.8 Z M 31.4 206.6 L 32.3 208.7 L 33.3 209.8 L 31.7 210.5 L 29.0 211.0 L 27.8 208.2 Z M 430.3 70.1 L 435.8 68.7 L 436.4 71.1 L 430.9 72.5 Z M 324.3 251.9 L 329.9 251.4 L 330.5 256.9 L 324.8 257.4 Z M 23.8 235.5 L 20.4 237.0 L 18.5 232.3 L 22.0 230.9 Z M 0.7 211.7 L 3.0 216.0 L 0.0 217.6 L 0.0 212.0 Z M 429.3 15.8 L 431.1 19.3 L 432.2 18.8 L 432.8 20.2 L 432.7 21.4 L 429.5 23.2 L 428.4 22.8 L 427.6 21.2 L 428.9 20.4 L 427.1 16.9 Z M 387.0 68.5 L 392.7 66.1 L 394.4 71.2 L 392.9 71.7 L 393.3 72.8 L 393.8 75.8 L 393.2 76.0 L 395.7 83.7 L 369.2 92.3 L 366.9 85.3 L 387.8 78.6 L 384.7 69.2 Z M 406.4 205.2 L 402.9 206.5 L 399.5 198.1 L 403.1 196.7 Z M 108.5 284.8 L 107.5 283.4 L 109.4 282.2 L 110.3 283.6 Z M 115.3 276.3 L 116.1 276.5 L 117.2 278.2 L 117.1 279.0 L 112.2 282.3 L 110.4 279.5 Z M 119.4 261.0 L 120.8 264.8 L 117.8 266.6 L 117.0 265.1 L 118.2 264.4 L 117.3 261.6 Z M 22.0 310.0 L 22.7 311.5 L 17.2 314.1 L 16.5 312.6 Z M 409.4 20.1 L 416.2 16.3 L 418.9 21.2 L 409.7 26.2 L 407.1 21.2 L 400.8 24.5 L 401.3 25.3 L 400.0 26.0 L 398.3 22.8 L 399.4 22.2 L 398.1 19.8 L 406.7 15.2 Z M 385.6 51.6 L 395.8 51.3 L 398.5 53.9 L 402.0 60.3 L 397.7 62.7 L 394.6 57.0 L 394.5 56.3 L 393.8 56.2 L 393.6 57.0 L 391.1 56.2 L 391.2 58.8 L 385.9 59.0 Z M 371.7 46.9 L 371.3 45.7 L 368.1 46.8 L 368.5 47.8 L 366.9 48.3 L 366.5 47.2 L 364.9 43.1 L 371.9 40.9 L 373.2 45.1 L 373.4 46.4 Z M 309.4 112.3 L 300.4 105.2 L 304.1 100.4 L 313.2 107.4 Z M 318.1 133.3 L 320.8 139.9 L 314.2 142.7 L 311.5 136.1 Z M 310.9 120.5 L 313.9 126.5 L 309.1 128.8 L 306.2 122.8 Z M 211.2 229.3 L 212.2 234.3 L 203.9 236.1 L 202.8 231.1 Z M 86.7 264.2 L 84.9 261.8 L 88.3 258.9 L 89.1 259.9 L 91.0 259.1 L 96.1 270.7 L 97.9 270.5 L 99.8 271.7 L 112.0 264.5 L 115.0 269.4 L 95.2 281.5 L 90.6 273.3 Z M 50.8 257.0 L 45.7 252.6 L 46.7 251.6 L 47.1 250.3 L 46.5 249.8 L 46.9 249.2 L 41.4 244.5 L 44.8 240.5 L 53.5 248.2 L 53.0 248.7 L 53.9 249.5 L 51.4 251.8 L 53.6 253.9 Z M 264.4 293.8 L 264.1 289.7 L 268.2 289.4 L 268.5 293.4 Z M 265.9 247.2 L 266.5 255.5 L 261.4 255.9 L 260.7 247.6 Z M 259.2 291.6 L 259.8 298.6 L 255.5 298.9 L 255.0 292.0 Z M 273.0 171.7 L 276.3 176.8 L 272.7 179.1 L 269.4 174.0 Z M 435.9 2.1 L 435.3 5.7 L 434.2 5.5 L 434.7 1.9 Z M 391.8 38.6 L 393.4 38.0 L 394.6 41.3 L 393.0 41.8 Z M 390.3 30.5 L 393.1 29.5 L 394.7 33.6 L 391.9 34.7 Z M 296.2 144.1 L 294.1 144.7 L 293.4 142.3 L 295.5 141.7 Z M 303.2 43.1 L 304.3 38.2 L 308.1 39.1 L 306.9 43.9 Z M 341.2 28.3 L 342.0 28.0 L 342.9 30.2 L 342.0 30.5 Z M 369.4 7.0 L 371.0 6.3 L 371.8 8.3 L 370.2 9.0 Z M 168.8 131.3 L 168.8 135.0 L 165.4 134.9 L 165.4 131.3 Z M 152.5 158.0 L 158.1 156.7 L 158.4 158.6 L 152.9 159.8 Z M 408.0 272.8 L 407.8 269.0 L 410.8 268.8 L 411.0 272.6 Z M 413.8 260.7 L 419.6 260.8 L 419.5 263.9 L 413.7 263.8 Z M 408.1 252.9 L 412.0 252.9 L 412.0 256.1 L 408.1 256.1 Z M 302.3 300.5 L 307.4 300.2 L 307.6 304.1 L 302.5 304.3 Z M 243.0 320.0 L 242.5 315.4 L 245.0 315.1 L 245.6 320.0 Z M 319.1 246.6 L 319.5 250.3 L 322.0 250.1 L 322.6 253.8 L 318.9 254.3 L 318.5 251.2 L 316.6 251.4 L 316.1 247.0 Z M 92.1 303.6 L 90.4 304.8 L 89.4 306.5 L 88.0 312.2 L 84.6 311.4 L 86.6 303.3 L 88.2 300.9 L 89.8 300.6 Z M 231.8 130.0 L 235.9 136.5 L 222.8 144.8 L 218.6 138.3 Z M 235.4 148.3 L 243.3 144.7 L 245.8 150.4 L 237.9 153.9 Z M 68.7 301.6 L 75.2 300.9 L 75.6 304.5 L 69.1 305.2 Z M 88.3 291.6 L 87.2 291.0 L 87.1 289.8 L 88.1 289.0 L 89.0 289.2 L 89.6 289.9 L 89.4 291.1 Z M 94.2 299.1 L 93.1 298.5 L 93.0 297.3 L 94.0 296.5 L 94.9 296.7 L 95.5 297.4 L 95.3 298.6 Z M 80.5 281.9 L 81.6 281.1 L 82.4 281.2 L 84.4 283.3 L 84.9 284.3 L 84.3 285.8 L 81.7 286.1 L 80.8 285.8 L 81.9 283.9 L 80.6 283.0 Z M 87.3 277.6 L 86.2 277.0 L 86.1 275.7 L 87.1 274.9 L 88.0 275.1 L 88.5 275.8 L 88.4 277.0 Z M 64.0 273.1 L 62.1 273.0 L 59.8 270.3 L 61.5 268.4 L 62.1 268.1 L 63.1 268.4 L 64.0 269.6 Z M 208.7 93.3 L 206.0 93.9 L 206.2 95.6 L 201.5 96.1 L 201.1 93.3 L 197.7 93.7 L 198.1 97.0 L 189.8 97.9 L 189.4 94.5 L 189.3 88.5 L 206.2 81.9 Z M 187.8 272.7 L 190.8 271.9 L 196.9 293.9 L 194.0 294.8 Z M 134.0 266.1 L 138.4 273.2 L 136.1 274.6 L 131.7 267.6 Z M 94.3 302.2 L 92.6 303.7 L 90.4 301.1 L 92.2 299.6 Z M 119.1 127.5 L 126.7 147.7 L 124.7 148.4 L 117.1 128.3 Z M 44.8 154.6 L 45.6 156.1 L 39.7 159.5 L 38.9 157.9 Z M 60.8 164.5 L 54.0 167.0 L 53.2 164.6 L 60.0 162.2 Z M 19.4 178.2 L 20.8 180.7 L 16.9 182.8 L 15.5 180.4 Z M 211.5 208.3 L 211.6 211.2 L 208.7 211.3 L 208.6 208.4 Z M 241.3 127.8 L 246.2 140.6 L 244.1 141.3 L 239.3 128.6 Z M 100.7 122.5 L 101.6 124.1 L 95.7 127.4 L 94.8 125.9 Z M 87.3 142.0 L 81.4 145.1 L 79.3 141.1 L 85.2 138.0 Z M 141.0 128.5 L 141.5 123.9 L 147.8 105.1 L 158.1 107.0 L 163.0 108.8 L 168.6 109.1 L 170.1 98.1 L 186.1 91.8 L 186.8 102.5 L 180.5 102.5 L 179.6 117.7 L 177.9 117.7 L 177.6 119.4 L 172.4 119.5 L 155.0 117.5 L 151.9 128.3 Z M 317.5 97.1 L 318.9 99.9 L 317.4 100.0 L 316.2 97.8 Z M 324.6 99.7 L 318.9 99.9 L 318.2 98.2 L 323.3 96.3 Z M 93.6 254.8 L 94.7 254.3 L 95.5 256.2 L 94.5 256.6 Z M 106.6 236.5 L 108.0 240.9 L 111.7 250.8 L 109.4 251.6 L 104.7 237.3 Z M 98.9 255.4 L 99.3 256.3 L 95.8 258.4 L 95.2 257.1 Z M 104.8 254.3 L 106.3 256.7 L 102.9 258.8 L 101.4 256.4 Z M 100.2 257.1 L 101.7 259.6 L 94.6 263.8 L 94.1 262.5 L 96.4 261.0 L 96.1 259.6 Z M 102.3 260.4 L 104.0 263.3 L 96.4 267.9 L 95.1 264.8 Z M 104.6 264.3 L 106.4 267.1 L 100.7 270.6 L 97.1 269.6 L 96.9 269.1 Z M 80.5 281.9 L 80.6 283.0 L 81.9 283.9 L 80.8 285.8 L 80.3 285.2 L 79.9 282.6 Z M 170.0 264.0 L 171.5 268.9 L 168.7 269.6 L 167.3 264.7 Z M 23.0 181.3 L 23.8 180.8 L 27.3 180.3 L 27.8 182.5 L 26.2 182.8 L 27.3 187.0 L 24.5 187.6 Z M 32.1 200.2 L 31.4 197.5 L 34.5 196.8 L 37.5 197.2 L 37.7 199.2 Z M 108.9 253.3 L 110.8 253.4 L 111.9 254.4 L 112.7 256.7 L 112.6 257.6 L 112.0 258.4 L 105.2 262.6 L 103.5 259.7 L 108.0 257.0 L 106.6 254.7 Z M 385.8 3.0 L 386.5 5.6 L 377.4 8.2 L 376.7 5.8 Z M 372.6 40.8 L 373.7 40.4 L 372.8 37.4 L 371.7 37.8 L 370.4 33.5 L 378.9 30.9 L 379.9 34.4 L 378.8 34.8 L 380.7 41.5 L 377.6 42.6 L 378.1 44.3 L 376.7 44.8 L 376.2 43.1 L 373.5 43.9 Z M 363.7 34.3 L 369.9 32.5 L 371.1 36.1 L 364.8 38.0 Z M 373.2 32.6 L 370.4 33.5 L 366.8 21.4 L 378.2 17.9 L 380.4 25.2 L 371.7 27.8 Z M 127.8 171.6 L 128.4 174.6 L 126.7 174.9 L 126.1 171.9 Z "/><path class="context-major-road" fill-rule="evenodd" d="M 32.1 292.1 L 34.5 288.6 L 37.3 285.6  M 13.5 300.8 L 17.4 298.4 L 27.3 293.6 L 32.1 292.1  M 0.0 309.0 L 13.5 300.8  M 62.5 258.9 L 74.1 245.8  M 37.3 285.6 L 44.7 279.1 L 47.2 276.3  M 134.9 249.1 L 125.3 222.6  M 26.4 320.0 L 27.4 308.7 L 28.9 300.3 L 32.1 292.1  M 148.1 287.9 L 144.0 276.6 L 134.9 249.1  M 159.4 320.0 L 154.4 305.8  M 154.4 305.8 L 148.1 287.9  M 74.1 245.8 L 79.6 240.7 L 84.6 236.7 L 89.5 233.7 L 122.2 222.0 L 123.7 221.7 L 125.3 222.6  M 52.2 270.0 L 62.5 258.9  M 47.2 276.3 L 52.2 270.0  "/><path class="context-road" fill-rule="evenodd" d="M 125.3 222.6 L 130.8 220.6  M 69.0 285.2 L 68.7 296.1 L 69.2 297.7 L 70.3 299.0 L 71.6 299.8 L 73.7 299.9  M 330.6 64.5 L 336.7 72.2 L 343.1 77.5 L 362.8 92.0  M 357.3 54.1 L 340.8 59.3 L 330.6 64.5  M 252.8 214.3 L 255.8 235.8  M 366.6 175.6 L 345.0 167.4  M 58.3 198.4 L 29.3 194.6 L 25.5 194.9 L 20.0 196.3  M 353.7 182.3 L 357.7 190.3 L 375.9 235.2  M 324.4 213.2 L 322.0 203.3  M 289.9 103.4 L 282.5 112.4 L 277.0 123.5 L 271.9 136.0 L 271.3 144.7  M 395.0 237.5 L 396.0 248.3 L 398.6 288.8 L 395.0 320.0  M 281.8 229.5 L 287.1 272.5  M 183.0 252.5 L 184.6 269.2 L 194.3 304.4  M 139.3 262.4 L 153.8 258.5  M 334.4 312.1 L 313.4 311.7 L 310.6 279.4  M 144.0 276.6 L 130.0 320.0  M 271.3 144.7 L 274.4 154.8 L 275.1 167.5 L 275.6 169.5 L 285.6 184.6 L 293.7 193.5  M 364.2 97.4 L 350.9 100.4 L 341.7 103.2 L 332.0 109.2 L 321.2 121.5 L 319.0 125.2  M 366.6 175.6 L 353.7 182.3  M 438.5 242.4 L 438.0 234.5 L 432.1 202.4 L 420.1 170.3  M 364.2 97.4 L 377.0 116.6  M 271.3 144.7 L 277.6 143.9 L 298.3 138.0 L 314.2 131.7 L 316.6 129.3 L 319.0 125.2  M 353.7 182.3 L 325.6 201.8 L 322.0 203.3 L 302.4 205.8  M 302.4 205.8 L 243.0 216.0 L 194.5 227.7 L 166.1 235.8  M 329.2 231.3 L 375.9 235.2  M 440.0 259.3 L 439.5 255.9 L 438.5 242.4  M 319.0 125.2 L 310.0 117.7 L 289.9 103.4  M 330.6 64.5 L 316.7 75.6 L 305.2 86.7 L 289.9 103.4  M 73.7 299.9 L 75.2 299.3 L 76.5 298.1 L 76.5 297.2 L 75.1 291.6 L 73.5 287.6  M 20.0 196.3 L 19.4 194.1 L 10.9 176.2  M 20.0 196.3 L 9.2 218.9 L 5.7 221.8 L 0.0 224.8  M 395.0 237.5 L 438.5 242.4  M 20.0 196.3 L 23.9 207.0 L 43.0 250.6 L 52.2 270.0  M 0.0 275.1 L 8.0 290.9 L 13.5 300.8  M 353.7 182.3 L 345.0 167.4  M 362.8 92.0 L 364.1 82.6  M 330.6 64.5 L 328.6 60.4 L 325.3 55.6 L 323.4 53.9  M 432.6 -0.0 L 431.3 11.8 L 432.5 17.5  M 334.4 312.1 L 335.5 292.1 L 334.1 273.9 L 329.2 231.3  M 357.3 54.1 L 365.8 52.5  M 357.1 233.7 L 358.2 242.5  M 135.5 107.1 L 191.5 82.1 L 225.1 68.6 L 293.9 38.3 L 369.9 3.3 L 371.2 2.0  M 415.6 69.2 L 419.1 80.2 L 420.7 87.3 L 420.6 91.5 L 400.0 100.7 L 377.0 116.6  M 393.9 46.1 L 400.7 51.5 L 406.2 58.1 L 409.1 62.0 L 415.6 69.2 L 439.9 62.3  M 37.3 285.6 L 9.2 218.9  M 58.3 198.4 L 69.6 236.8 L 71.3 241.2 L 72.5 243.5 L 74.1 245.8  M 362.8 92.0 L 363.6 94.2 L 364.2 97.4  M 375.9 235.2 L 395.0 237.5  M 298.3 138.0 L 307.6 163.5  M 173.1 142.3 L 174.1 150.2 L 171.8 153.4 L 158.6 159.3 L 150.5 163.7 L 142.2 164.9 L 135.2 168.9  M 10.9 176.2 L 112.9 118.1 L 125.9 111.5 L 135.5 107.1  M 132.6 193.5 L 135.2 168.9 L 136.7 148.6 L 137.4 132.6 L 138.8 124.9 L 140.5 118.9 L 143.2 110.5 L 146.8 101.9  M 343.0 232.5 L 344.0 245.6  M 232.6 160.3 L 240.1 191.0 L 244.1 215.7  M 440.0 85.4 L 436.8 86.4 L 429.6 87.4 L 420.6 91.5  M 432.5 17.5 L 440.0 11.8 M 440.0 73.3 L 439.8 72.5 L 440.0 72.2 M 440.0 40.5 L 439.2 36.4 L 436.2 24.5 L 434.9 21.2 L 432.5 17.5  M 420.1 170.3 L 388.2 181.8 L 384.1 181.9 L 366.6 175.6  M 34.5 288.6 L 38.7 292.4 L 41.4 291.9 L 48.1 285.3 L 48.5 282.4 L 48.1 279.4 L 47.2 276.3  M 130.8 220.6 L 134.4 219.3  M 58.3 198.4 L 61.8 198.1 L 95.7 202.9 L 102.3 204.6 L 118.9 211.7  M 235.3 101.2 L 242.6 112.1 L 256.0 130.7 L 263.0 142.9 L 263.5 143.5 L 264.4 143.7 L 268.4 143.1 L 271.3 144.7  M 79.7 262.7 L 80.1 271.5 L 81.6 277.1 L 84.0 280.1 L 89.0 284.3 L 90.9 284.9 L 94.5 283.2 L 98.5 284.4  M 135.2 168.9 L 119.3 126.0  M 217.5 222.2 L 214.4 211.9 L 213.6 202.1  M 105.0 230.9 L 115.0 257.4 L 115.6 263.3 L 119.8 270.8  M 190.4 104.4 L 186.4 113.9 L 175.5 122.1 L 172.7 127.8 L 173.1 142.3  M 337.2 320.0 L 334.4 312.1  M 425.6 241.1 L 435.8 320.0  M 184.6 269.2 L 194.3 265.7 L 201.0 292.6  M 365.8 52.5 L 355.4 19.8  M 439.9 62.3 L 440.0 62.3  M 440.0 163.3 L 420.1 170.3  M 166.1 235.8 L 154.2 240.2 L 134.9 249.1  M 377.0 116.6 L 380.8 122.3 L 385.1 130.7 L 396.5 145.1 L 404.3 153.0 L 420.1 170.3  M 320.0 23.7 L 318.8 21.0  M 318.5 26.8 L 317.5 24.8 L 320.0 23.7  M 422.7 22.8 L 432.7 29.5  M 323.5 24.4 L 322.6 22.5 L 320.0 23.7  M 347.5 23.1 L 355.1 48.6 L 357.3 54.1  M 424.3 21.2 L 426.2 11.9 L 426.8 -0.0  M 393.9 46.1 L 397.3 42.2  M 293.7 193.5 L 297.1 201.0 L 298.2 206.5  M 94.2 57.7 L 92.6 54.1  M 91.4 59.2 L 89.7 55.7  M 89.7 55.7 L 88.5 53.0 L 91.4 51.6 L 92.6 54.1  M 439.2 36.4 L 440.0 36.3  M 371.2 2.0 L 372.8 1.2  M 371.2 2.0 L 370.1 -0.0  M 420.9 228.0 L 419.7 240.3  M 396.0 248.3 L 392.8 248.6 L 389.9 245.9  M 436.3 224.4 L 420.9 228.0 L 416.8 212.5  M 291.5 104.6 L 286.8 110.8 L 286.3 112.8 L 286.7 114.3 L 289.8 116.8 L 290.9 118.9 L 290.8 120.9 L 287.6 130.4 L 283.5 131.4 L 275.1 128.3  M 332.0 109.2 L 324.5 96.8 L 324.6 92.4  M 324.6 92.4 L 322.3 82.1 L 316.7 75.6  M 225.1 68.6 L 224.7 67.6 L 222.5 68.4  M 2.9 181.0 L 0.5 176.7 L 0.0 176.9  M 372.8 1.2 L 375.6 -0.0  M 118.1 112.8 L 125.0 109.6  M 191.5 82.1 L 190.9 80.7 L 187.3 82.0 L 187.0 81.3 L 184.4 82.3 L 184.0 81.4  M 440.0 160.5 L 423.8 166.1 L 434.5 203.7 L 438.3 224.4 L 439.8 234.3 L 440.0 236.9  M 395.4 47.3 L 398.3 43.3 L 400.9 41.3 L 407.4 38.6 L 411.2 35.6 L 425.6 22.3  M 215.0 282.1 L 233.7 281.1  M 206.4 247.8 L 216.5 287.8  M 260.6 279.4 L 264.0 311.6 L 264.7 320.0  M 260.6 279.4 L 287.5 276.7  M 242.6 320.0 L 241.8 312.2  M 194.5 227.7 L 199.5 249.0  M 307.6 163.5 L 312.7 165.5 L 340.3 160.9  M 306.7 95.8 L 315.9 108.9 L 310.0 117.7  M 340.3 160.9 L 335.6 149.5 L 328.3 133.0 L 327.0 131.3 L 319.0 125.2  M 313.4 311.7 L 309.1 312.7 L 306.5 317.7 L 306.5 320.0  M 306.5 317.7 L 297.6 317.4  M 391.5 154.1 L 394.4 158.7 L 404.3 153.0  M 380.8 122.3 L 389.1 120.8 L 398.2 124.0 L 400.6 117.8  M 360.3 124.2 L 364.3 135.5 L 378.3 135.6 L 385.1 130.7  M 135.5 107.1 L 133.7 112.2 L 133.9 115.4 L 140.5 118.9  M 119.9 114.5 L 129.4 133.0  M 113.1 115.1 L 114.2 117.4  M 118.1 112.8 L 113.1 115.1  M 125.9 111.5 L 125.0 109.6  M 119.3 126.0 L 120.5 124.7 L 123.1 124.7 L 124.3 123.3  M 213.2 103.3 L 207.0 76.0  M 260.6 84.8 L 272.9 87.3  M 260.2 83.1 L 258.1 73.2 L 245.0 77.8  M 213.6 162.2 L 217.9 168.5  M 177.9 192.1 L 173.6 194.7 L 173.8 196.4  M 179.3 194.1 L 177.9 192.1 L 177.5 193.9  M 174.4 203.9 L 173.8 196.4 L 177.5 193.9 L 179.3 194.1 L 184.3 197.5  M 134.4 219.3 L 133.9 217.4 L 130.0 208.4  M 329.9 222.9 L 328.6 223.2 L 330.2 226.5  M 326.7 227.8 L 330.2 226.5  M 339.2 219.8 L 341.3 219.2 L 344.5 222.1 L 344.3 227.5  M 339.8 225.1 L 340.3 227.8  M 339.8 225.1 L 335.8 228.8 L 332.9 228.3 L 331.8 224.5  M 336.5 220.7 L 339.8 225.1  M 340.3 227.8 L 344.3 227.9 L 344.3 227.5  M 336.5 220.7 L 339.2 219.8  M 333.0 225.7 L 329.9 222.9 L 336.5 220.7  M 330.0 212.3 L 333.8 221.6  M 324.4 213.2 L 336.5 211.3  M 90.9 284.9 L 91.9 290.3 L 90.3 292.3 L 87.4 292.8 L 85.1 294.9 L 80.5 296.5 L 76.4 296.1  M 358.2 242.5 L 360.5 290.3 L 358.7 297.8 L 359.0 305.5 L 353.1 305.3 L 352.7 314.4 L 353.4 318.5 L 362.1 320.0  M 289.9 103.4 L 249.6 96.4 L 241.5 96.9  M 345.0 167.4 L 340.3 160.9  M 428.4 19.4 L 430.5 18.2  M 430.5 18.2 L 432.5 17.5  M 421.1 24.3 L 420.4 7.9 L 420.6 1.0 L 421.2 -0.0  M 426.6 3.0 L 432.2 3.5  M 328.6 60.4 L 339.0 25.0 L 336.2 18.7  M 341.0 16.5 L 341.6 18.6 L 344.7 22.7 L 344.1 26.8 L 349.8 46.5 L 350.0 56.2  M 287.1 272.5 L 287.7 279.2  M 259.6 81.1 L 271.1 77.2 L 263.3 55.6  M 258.1 73.2 L 264.8 59.8  M 371.2 3.5 L 376.1 1.1  M 369.2 3.7 L 370.3 5.0 L 373.9 3.6 L 375.2 6.5 L 385.6 2.9  M 420.4 7.9 L 416.7 -0.0  M 419.7 6.2 L 416.7 4.8 L 415.2 3.6 L 406.0 8.3  M 357.9 94.6 L 357.8 93.4 L 357.5 92.8 L 356.5 92.2 L 354.7 92.7 L 354.2 93.8 L 354.4 95.0 L 355.4 95.8 L 356.6 95.8 L 357.9 94.6  M 356.5 92.2 L 358.3 88.6  M 352.7 100.0 L 354.0 98.0 L 356.9 97.4 L 359.6 96.2 L 360.3 95.6 L 360.5 93.6 L 359.1 91.4 L 357.5 90.0  M 360.4 94.5 L 357.9 94.0  M 385.3 48.9 L 385.1 47.2 L 385.0 44.2 L 388.8 42.5  M 371.2 3.5 L 368.1 6.2 L 361.4 9.6 L 295.1 40.0 L 262.8 54.2 L 207.3 77.6 L 183.2 87.2 L 134.9 109.2 L 113.5 119.4 L 11.6 177.6 L 0.0 183.3  M 143.2 110.5 L 139.2 112.2  M 133.9 115.4 L 132.7 117.8 L 131.5 118.4 L 130.0 117.9  M 130.8 118.4 L 131.1 119.3 L 131.0 120.4 L 130.7 120.9 L 129.7 121.4 L 128.8 121.2 L 127.4 120.2  M 127.9 120.9 L 127.9 121.7 L 127.3 122.6 L 124.3 123.3  M 127.4 120.2 L 126.2 118.9 L 122.5 119.6  M 126.2 118.9 L 128.5 117.0 L 130.0 117.9  M 128.5 117.0 L 129.5 116.2 L 131.0 112.8 L 132.1 112.2 L 133.7 112.2  M 129.4 133.0 L 136.7 148.6  M 129.4 133.0 L 122.9 135.8  M 132.4 139.2 L 125.3 142.4  M 116.0 124.1 L 120.2 120.3 L 122.5 119.6  M 293.9 38.3 L 295.1 40.0 L 304.3 46.0 L 308.5 47.7  M 338.3 27.6 L 323.6 33.2 L 322.6 34.7  M 338.3 27.6 L 346.0 42.5 L 349.8 46.5  M 119.3 126.0 L 116.7 125.4  M 116.7 125.4 L 112.9 118.1  M 129.4 133.0 L 137.4 132.6  M 118.1 112.8 L 89.9 52.3  M 397.3 42.2 L 396.2 32.9 L 394.2 23.8 L 394.1 20.4  M 153.8 258.5 L 206.4 247.8 L 281.8 229.5 L 324.8 221.0  M 153.8 258.5 L 152.3 253.8  M 151.9 259.0 L 155.8 270.5 L 165.4 268.3  M 431.3 200.2 L 440.0 197.2  M 9.2 218.9 L 0.0 198.0  M 316.9 34.2 L 315.9 28.0  M 94.2 57.7 L 95.3 60.1 L 92.4 61.5 L 91.4 59.2  M 261.6 98.6 L 260.6 84.8 L 260.2 83.1  M 263.3 55.6 L 262.2 52.4  M 235.3 101.2 L 231.9 102.0 L 190.4 104.4  M 118.9 211.7 L 130.0 208.4  M 241.5 96.9 L 235.3 101.2  M 311.1 164.9 L 306.9 176.9 L 309.1 185.5 L 297.1 189.5 L 296.0 198.5  M 302.4 205.8 L 305.9 217.3 L 313.9 220.5 L 314.7 223.0  M 324.8 221.0 L 328.3 227.2 L 329.2 231.3  M 76.5 298.1 L 78.8 304.1 L 79.7 310.7 L 80.6 313.6 L 81.4 315.4 L 82.9 316.9 L 87.5 318.1 L 101.4 320.0  M 386.1 64.8 L 380.2 66.7 L 383.3 76.3 L 364.1 82.6  M 0.0 202.4 L 1.4 201.3  M 432.2 3.5 L 434.4 3.9  M 255.8 235.8 L 260.6 279.4  M 132.6 193.5 L 146.7 195.0 L 153.2 192.6 L 153.8 187.1  M 130.0 208.4 L 132.6 193.5  M 134.4 219.3 L 155.7 212.3 L 165.1 208.4 L 174.4 203.9 L 184.3 197.5 L 189.5 193.3 L 202.6 180.9 L 217.9 168.5 L 224.3 164.5 L 232.6 160.3 L 271.3 144.7  M 235.9 173.8 L 226.2 177.3  M 74.1 245.8 L 78.3 249.7 L 79.7 252.2 L 79.9 261.7 L 85.5 267.2 L 89.1 271.5 L 94.5 283.2  M 79.9 261.7 L 79.7 262.7  M 88.2 299.2 L 86.0 296.7 L 85.1 294.9 L 84.4 289.7 L 84.5 288.1 L 85.4 286.9 L 89.0 284.3  M 74.8 283.1 L 78.0 282.7 L 79.5 283.6 L 80.3 285.6 L 83.2 286.8 L 85.4 286.9  M 137.1 262.0 L 129.1 239.5 L 124.5 227.4 L 123.5 225.9 L 122.5 225.3 L 120.7 225.2 L 91.7 236.1 L 86.2 239.3 L 82.2 242.5 L 70.1 254.6 L 69.1 255.9 L 68.7 258.0 L 51.2 275.6  M 129.1 239.5 L 127.5 240.2 M 127.5 240.2 L 126.2 239.5 L 124.5 239.2 L 122.6 239.2 L 120.4 239.9 L 118.7 240.6 L 117.8 241.6 L 117.4 242.7 L 117.3 244.3 L 118.2 246.8 L 119.3 248.5 L 120.9 249.6 L 123.7 250.3 L 125.8 249.9 L 127.3 248.7 L 127.9 246.8 L 128.2 244.3 L 127.5 240.2  M 123.3 246.3 L 121.8 245.6 L 121.5 244.6 L 122.9 243.0 L 123.9 243.2 L 124.7 243.9 L 124.7 245.4 L 123.3 246.3  M 118.2 241.2 L 121.8 243.8  M 120.3 249.2 L 122.4 246.1  M 124.7 245.4 L 127.7 247.4  M 123.7 243.1 L 124.2 239.2  M 67.7 263.2 L 62.5 258.9  M 72.1 263.3 L 79.7 262.7  M 73.5 287.6 L 72.6 283.2 L 72.1 263.3 L 67.7 263.2  M 67.7 263.2 L 69.1 283.4 L 69.0 285.2  M 369.9 3.3 L 371.2 3.5  M 376.1 1.1 L 375.6 0.1  M 376.1 1.1 L 377.6 -0.0  M 436.6 -0.0 L 438.0 5.5 L 440.0 5.9  M 10.9 176.2 L 0.0 182.6  M 222.5 68.4 L 221.9 67.0  M 69.1 283.4 L 74.8 283.1  M 199.2 320.0 L 202.6 307.0  M 202.6 307.0 L 174.9 320.0  M 203.5 320.0 L 200.6 314.5  M 324.8 221.0 L 324.4 213.2  M 206.2 103.5 L 206.2 115.0 L 207.0 116.8 L 220.0 121.3  M 212.1 98.5 L 191.4 99.2  M 405.5 57.2 L 410.1 54.3  M 422.2 47.6 L 423.6 53.2 L 411.3 56.2 L 406.7 58.7  M 432.9 36.7 L 428.1 41.0 L 428.8 41.8 L 422.2 47.6  M 410.1 54.3 L 416.9 52.6 L 412.4 34.4  M 420.2 52.9 L 419.9 51.8  M 420.2 52.9 L 411.2 55.1  M 406.2 58.1 L 408.1 56.5 L 411.2 55.1  M 432.6 39.7 L 433.1 38.8 L 433.2 37.8 L 433.0 36.8 L 432.5 36.0  M 431.1 41.1 L 432.6 39.7  M 418.5 26.9 L 432.5 36.0  M 425.6 22.3 L 428.4 19.4  M 98.5 284.4 L 126.6 266.5 L 129.7 265.4 L 137.1 262.0 L 139.3 262.4  M 95.7 292.7 L 93.4 293.6 L 91.8 294.9 L 90.0 297.4 L 87.1 300.4 L 84.5 302.0 L 78.8 304.1  M 91.9 290.3 L 95.7 292.7 L 107.3 310.2  M 129.3 237.9 L 128.6 238.1  M 132.3 236.9 L 129.3 237.9  M 55.1 264.9 L 54.6 264.4  M 57.8 267.4 L 55.1 264.9  M 58.6 268.2 L 57.8 267.4  M 73.2 251.5 L 72.4 250.8  M 69.7 248.3 L 68.8 247.4  M 72.4 250.8 L 69.7 248.3  M 75.6 237.0 L 71.6 235.7 L 69.3 235.6  M 74.9 241.4 L 75.6 237.0 L 78.8 235.0 L 82.3 235.3  M 64.3 218.2 L 44.2 223.5 L 47.8 234.0  M 78.0 223.5 L 66.7 226.7  M 58.3 198.4 L 56.7 192.8 L 48.7 179.6  M 17.0 202.7 L 12.1 199.9  M 36.4 283.3 L 42.2 278.2 L 51.4 268.1 L 59.1 259.4 L 59.8 256.8 L 66.6 249.6 L 72.5 243.5 L 80.0 236.8 L 89.2 230.8 L 98.2 228.0 L 100.7 226.8 L 133.1 215.5  M 213.6 202.1 L 215.2 193.3 L 214.3 189.2 L 212.1 185.1 L 206.3 177.9  M 178.7 232.2 L 172.9 214.6 L 168.8 206.6  M 327.0 131.3 L 329.6 129.4 L 341.4 124.8 L 349.3 144.8  M 221.9 166.0 L 218.4 161.0 L 220.4 154.5  M 207.5 142.2 L 208.8 141.3 L 214.9 143.3 L 217.4 147.0 L 220.4 154.5  M 206.9 135.5 L 205.7 137.4 L 205.8 139.1 L 207.5 142.2 L 196.0 149.9  M 206.2 115.0 L 204.1 119.3 L 204.0 125.3 L 205.4 132.6 L 206.9 135.5 L 215.1 139.0 L 218.2 141.1 L 223.3 149.2 L 239.7 138.8 L 236.1 129.2  M 174.1 150.2 L 185.8 146.1 L 196.3 141.5 L 206.5 134.6  M 247.2 135.8 L 243.2 128.4  M 260.2 137.8 L 249.5 142.7 L 246.6 137.7 L 247.2 135.8 L 256.0 130.7  M 242.6 112.1 L 247.6 108.5  M 350.9 100.4 L 355.7 116.2  M 364.1 82.6 L 363.2 71.5 L 362.2 67.1 L 360.9 62.4 L 357.3 54.1  M 365.8 52.5 L 372.2 50.8 L 385.3 48.9  M 385.3 48.9 L 389.0 48.0 L 393.9 46.1  M 397.3 42.2 L 407.3 37.0 L 416.2 29.2 L 424.3 21.2  "/><path class="context-rail" fill-rule="evenodd" d="M 55.2 288.6 L 58.2 320.0  M 65.9 320.0 L 62.5 287.9  M 59.8 288.2 L 60.3 293.2  M 60.3 293.2 L 62.9 320.0  "/><path class="context-coastline" fill-rule="evenodd" d="M 347.3 -0.0 L 325.9 13.5 L 313.5 21.7 L 288.4 33.8 L 247.4 48.3 L 240.5 51.2 L 226.6 59.6 L 211.5 64.1 L 183.3 76.7 L 164.9 83.6 L 136.7 95.6 L 93.5 118.1 L 88.9 121.2 L 43.9 144.1 L 31.1 149.6 L 23.3 154.3 L 17.5 157.2 L 1.2 163.5 L 0.0 164.3  "/></g><circle class="place-focus-ring" cx="220.0" cy="160.0" r="22"/><path class="place-focus" d="M 220.0 152.0 l 8 8 -8 8 -8 -8 Z"><title>Кофе Крендель</title></path></svg>