<svg xmlns="http://www.w3.org/2000/svg" class="route-diagram place-diagram" viewBox="0 0 440 320" width="440" height="320" role="img" aria-labelledby="title-card-image-2gis-70000001080218641" data-focus-lon="20.405917" data-focus-lat="54.938954" data-projection-coords="[[20.405917,54.938954]]" data-theme="night"><title id="title-card-image-2gis-70000001080218641">Кафе: берег и улицы рядом</title><style>
.route-context { --context-sea:#d0e1e9;--context-land:#f3f3ec;--context-green:#e2e9dd;--context-sand:#ece3d1;--context-water:#c8dee8;--context-road:#d8dcd8;--context-major:#c3cdd0;--context-coast:#a9c2ce;--context-rail:#c5cac5; }
.context-sea { fill:var(--context-sea); }
.context-land { fill:var(--context-land); }
.context-green { fill:var(--context-green); }
.context-sand { fill:var(--context-sand); }
.context-water { fill:var(--context-water); }
.context-building { fill:var(--context-building,#dde0d9);stroke:var(--context-building-line,#ccd3d0);stroke-width:.3px; }
.context-road,.context-major-road,.context-rail,.context-coastline,.context-waterline { fill:none;stroke-linecap:round;stroke-linejoin:round; }
.context-road { stroke:var(--context-road);stroke-width:.65px; }
.context-major-road { stroke:var(--context-major);stroke-width:1.4px; }
.context-rail { stroke:var(--context-rail);stroke-width:.7px;stroke-dasharray:2 3; }
.context-coastline { stroke:var(--context-coast);stroke-width:1px; }
.context-waterline { stroke:var(--context-water);stroke-width:2px; }
:root[data-theme=night] .route-context { --context-sea:#152f42;--context-land:#26343a;--context-green:#2a3b39;--context-sand:#393b36;--context-water:#1e4255;--context-road:#34434b;--context-major:#43545d;--context-coast:#426075;--context-rail:#3a484d; }
:root[data-theme=night] .route-context { --context-building:#35464d;--context-building-line:#42535b; }
.place-focus-ring { fill: #c9b08a; fill-opacity: .17; stroke: #ad865b; stroke-width: .7px; }
.place-focus { fill: #9d703f; stroke: #f7f5ef; stroke-width: 2px; }</style><defs><clipPath id="context-card-image-2gis-70000001080218641"><rect width="440" height="320" rx="3"/></clipPath></defs><g class="route-context" aria-hidden="true" clip-path="url(#context-card-image-2gis-70000001080218641)" data-source="OpenStreetMap" data-snapshot="2026-10-01"><rect class="context-sea" width="440" height="320"/><path class="context-land" fill-rule="evenodd" d="M 440.0 0.0 L 440.0 320.0 L 0.0 320.0 L 0.0 17.9 L 0.8 17.6 L 8.1 14.1 L 24.2 7.3 L 37.1 0.8 L 38.7 0.0 Z"/><path class="context-green" fill-rule="evenodd" d="M 0.0 320.0 L 0.0 286.7 L 103.3 200.2 L 66.0 320.0 Z M 180.0 320.0 L 183.1 314.6 L 198.0 313.8 L 200.5 307.6 L 201.4 306.4 L 206.1 304.3 L 223.5 293.5 L 225.0 293.5 L 232.1 295.4 L 235.0 294.9 L 238.0 293.3 L 238.9 292.1 L 240.1 288.6 L 248.4 285.0 L 262.7 285.1 L 266.3 285.7 L 269.1 284.3 L 274.0 294.7 L 274.2 300.8 L 284.1 320.0 L 273.5 320.0 L 272.7 316.2 L 273.4 307.9 L 269.4 302.3 L 269.3 299.9 L 270.9 298.3 L 270.6 295.2 L 269.4 289.4 L 267.5 286.6 L 262.7 285.4 L 255.9 285.6 L 245.3 287.6 L 241.0 289.1 L 239.7 291.4 L 238.9 293.8 L 236.6 295.1 L 232.4 296.0 L 225.3 294.3 L 223.7 294.2 L 218.5 297.1 L 200.8 308.1 L 198.8 313.8 L 198.2 314.3 L 183.3 315.3 L 180.6 320.0 ZM 126.9 320.0 L 127.5 319.0 L 129.6 317.4 L 134.0 315.4 L 136.1 314.8 L 147.7 314.3 L 152.6 320.0 L 151.9 320.0 L 147.5 314.8 L 134.1 316.1 L 129.9 318.1 L 127.6 320.0 Z M 136.4 194.3 L 133.1 203.5 L 98.1 216.9 L 103.3 200.2 Z M 35.2 64.2 L 51.4 69.9 L 39.9 76.7 L 24.7 78.0 L 18.4 81.1 L 7.3 78.4 L 8.6 64.0 Z M 234.4 0.0 L 223.8 4.4 L 108.4 48.7 L 71.8 65.6 L 41.7 60.1 L 55.3 37.6 L 40.9 40.3 L 19.1 39.5 L 13.7 28.5 L 75.9 6.5 L 81.5 0.1 L 233.6 0.0 Z M 0.0 65.8 L 8.6 64.0 L 7.3 78.4 L 18.4 81.1 L 24.7 78.0 L 39.9 76.7 L 51.4 69.9 L 66.1 71.5 L 0.0 123.1 Z M 283.2 293.0 L 299.6 286.6 L 303.5 296.9 L 288.0 302.9 Z M 244.0 163.0 L 263.8 161.2 L 283.7 158.7 L 303.6 152.4 L 334.0 149.8 L 345.3 174.8 L 245.2 214.1 L 222.4 166.5 Z M 210.1 169.3 L 242.8 237.4 L 219.2 240.7 L 145.8 252.3 L 120.4 256.6 L 149.2 190.7 Z M 159.8 320.0 L 154.6 313.2 L 153.3 312.6 L 147.7 314.3 L 143.0 304.8 L 143.6 304.5 L 147.5 312.2 L 152.4 309.9 L 159.8 320.0 Z M 193.0 305.6 L 198.0 313.8 L 194.7 314.0 L 189.2 302.8 L 191.2 301.8 Z M 194.7 314.0 L 183.1 314.6 L 182.2 312.6 L 191.7 307.9 Z M 212.8 168.1 L 218.0 178.7 L 245.6 234.8 L 241.9 235.3 L 210.1 169.3 Z "/><path class="context-sand" fill-rule="evenodd" d="M 0.0 17.9 L 24.2 7.3 L 38.7 0.0 L 81.6 0.0 L 75.9 6.5 L 4.1 32.8 L 0.0 34.6 Z "/><path class="context-water" fill-rule="evenodd" d="M 127.6 320.0 L 129.9 318.1 L 134.1 316.1 L 147.5 314.8 L 151.9 320.0 ZM 180.6 320.0 L 183.3 315.3 L 198.2 314.3 L 198.8 313.8 L 200.8 308.1 L 218.5 297.1 L 223.7 294.2 L 225.3 294.3 L 232.4 296.0 L 236.6 295.1 L 238.9 293.8 L 239.7 291.4 L 241.0 289.1 L 245.3 287.6 L 255.9 285.6 L 262.7 285.4 L 267.5 286.6 L 269.4 289.4 L 270.6 295.2 L 270.9 298.3 L 269.3 299.9 L 269.4 302.3 L 273.4 307.9 L 272.7 316.2 L 273.5 320.0 Z M 262.5 254.3 L 260.2 251.7 L 260.2 248.7 L 262.8 247.0 L 267.6 246.1 L 271.1 247.5 L 272.3 250.6 L 272.4 253.8 L 269.9 256.2 L 267.3 256.7 L 264.3 255.5 Z M 207.1 189.7 L 205.3 187.3 L 204.5 183.8 L 205.3 180.3 L 207.3 178.4 L 211.5 177.9 L 214.0 179.7 L 215.7 183.9 L 214.9 186.8 L 213.3 189.1 L 210.5 190.0 Z "/><path class="context-building" fill-rule="evenodd" d="M 298.4 87.9 L 302.5 87.7 L 302.8 89.9 L 298.8 90.4 Z M 270.5 5.3 L 271.3 7.4 L 268.7 9.0 L 267.4 6.5 Z M 104.5 173.3 L 105.6 177.4 L 101.2 178.6 L 100.0 174.4 Z M 435.3 259.8 L 432.4 260.9 L 432.7 261.5 L 430.3 262.4 L 428.3 257.3 L 433.5 255.2 Z M 435.6 300.2 L 435.3 299.5 L 436.4 299.1 L 436.6 299.8 L 437.6 299.4 L 439.4 303.9 L 435.7 305.3 L 433.9 300.9 Z M 420.6 308.2 L 422.2 312.2 L 420.1 313.0 L 418.4 309.0 Z M 413.4 306.8 L 415.8 313.0 L 412.4 314.3 L 411.5 311.8 L 410.5 312.2 L 409.6 309.7 L 410.6 309.3 L 410.1 308.1 Z M 406.0 307.9 L 407.1 310.5 L 407.7 310.3 L 408.3 311.8 L 407.5 312.1 L 408.8 315.2 L 405.3 316.5 L 402.5 309.2 Z M 400.3 311.4 L 402.4 316.4 L 398.7 317.9 L 396.6 313.0 Z M 416.3 290.4 L 419.7 289.2 L 421.4 293.8 L 420.5 294.1 L 420.8 294.9 L 420.1 295.2 L 419.8 294.4 L 418.1 295.0 Z M 410.3 292.8 L 413.7 291.5 L 415.4 296.1 L 414.4 296.5 L 414.7 297.3 L 414.0 297.5 L 413.7 296.8 L 412.1 297.4 Z M 409.4 298.5 L 406.0 299.8 L 404.2 295.1 L 407.6 293.8 Z M 388.2 296.9 L 390.6 302.7 L 387.1 304.2 L 384.6 298.5 Z M 383.3 302.2 L 385.8 308.1 L 382.4 309.6 L 379.9 303.7 Z M 363.6 308.4 L 366.3 314.5 L 362.1 316.4 L 359.4 310.3 Z M 418.8 277.2 L 419.4 278.7 L 420.6 278.2 L 421.6 280.7 L 417.6 282.3 L 416.0 278.3 Z M 376.0 292.7 L 376.9 295.2 L 373.3 296.6 L 372.4 294.0 Z M 366.0 296.5 L 366.4 295.7 L 368.0 295.8 L 369.3 299.1 L 365.9 300.5 L 364.6 297.1 Z M 358.2 299.6 L 358.7 298.8 L 360.2 298.8 L 361.5 302.2 L 358.1 303.5 L 356.8 300.2 Z M 349.9 302.9 L 351.4 306.8 L 346.1 308.9 L 344.6 304.9 Z M 337.5 307.7 L 339.1 311.5 L 335.2 313.1 L 333.6 309.3 Z M 326.8 312.7 L 326.5 312.1 L 327.7 311.6 L 327.9 312.3 L 328.8 311.9 L 330.7 316.4 L 327.3 317.8 L 325.4 313.3 Z M 311.4 320.0 L 310.9 318.6 L 313.7 317.1 L 315.2 320.0 Z M 400.1 267.1 L 402.7 272.8 L 397.7 275.2 L 395.1 269.4 Z M 392.2 271.2 L 394.7 276.3 L 389.0 279.1 L 386.4 274.0 Z M 375.3 269.3 L 375.7 270.4 L 374.3 271.0 L 373.9 269.9 Z M 382.1 271.2 L 379.6 272.2 L 378.4 269.2 L 380.9 268.2 Z M 385.5 277.5 L 386.3 279.5 L 383.3 280.8 L 382.4 278.7 Z M 356.9 286.8 L 356.2 285.2 L 357.4 284.7 L 358.0 284.1 L 360.7 290.2 L 358.4 291.1 L 357.6 291.9 L 355.8 292.1 L 354.1 287.9 Z M 320.8 294.1 L 321.8 293.6 L 322.8 293.0 L 324.3 295.5 L 325.0 296.6 L 321.5 298.4 L 320.4 296.5 L 321.6 295.9 L 320.8 294.3 L 320.7 293.8 Z M 440.0 237.5 L 439.4 237.8 L 437.9 234.1 L 439.0 233.6 L 438.7 233.0 L 440.0 232.5 L 440.0 237.5 Z M 423.8 238.8 L 423.5 238.0 L 424.7 237.5 L 425.0 238.3 L 426.6 237.7 L 428.3 242.0 L 424.0 243.7 L 422.3 239.4 Z M 408.3 245.0 L 407.9 244.1 L 409.3 243.6 L 409.6 244.5 L 411.1 243.9 L 413.3 249.3 L 409.0 251.0 L 406.8 245.6 Z M 395.3 144.0 L 394.6 142.3 L 398.9 140.3 L 400.6 144.1 L 402.6 143.2 L 404.0 146.5 L 396.8 149.7 L 394.5 144.4 Z M 404.8 149.8 L 405.3 150.7 L 406.1 150.3 L 406.6 151.6 L 405.8 151.9 L 406.6 153.7 L 403.5 155.2 L 403.2 154.6 L 402.2 155.0 L 400.7 151.8 Z M 423.3 147.1 L 425.5 151.8 L 423.3 152.9 L 424.1 154.6 L 420.1 156.4 L 418.7 153.2 L 417.7 152.3 L 417.2 149.9 Z M 440.0 150.3 L 437.1 151.5 L 435.3 147.1 L 440.0 145.1 Z M 440.0 157.0 L 439.1 154.8 L 440.0 154.5 Z M 427.6 158.6 L 429.0 161.6 L 424.2 163.8 L 423.8 162.9 L 423.2 163.2 L 422.6 162.0 L 423.2 161.7 L 422.8 160.8 Z M 411.6 165.2 L 412.1 166.7 L 413.1 166.3 L 413.6 167.7 L 412.7 168.0 L 413.2 169.5 L 407.8 171.6 L 406.1 167.3 Z M 430.0 166.9 L 431.4 170.2 L 427.7 171.7 L 427.2 170.7 L 426.7 170.9 L 426.2 169.7 L 426.7 169.5 L 426.3 168.4 Z M 430.5 178.3 L 429.9 178.6 L 429.4 177.3 L 429.9 177.1 L 429.3 175.7 L 432.5 174.3 L 433.4 176.3 L 434.5 175.7 L 435.4 177.7 L 431.1 179.7 Z M 418.5 179.9 L 419.2 181.5 L 419.8 181.3 L 420.5 182.9 L 416.5 184.7 L 415.0 181.5 Z M 437.4 181.5 L 438.9 185.3 L 434.6 187.1 L 434.1 185.7 L 433.5 186.0 L 433.0 184.8 L 433.6 184.5 L 433.1 183.2 Z M 419.3 190.1 L 418.1 190.7 L 417.2 188.6 L 421.6 186.8 L 422.2 188.1 L 422.7 187.9 L 423.3 189.1 L 422.7 189.3 L 423.3 190.7 L 420.2 192.1 Z M 420.0 201.5 L 418.1 196.6 L 424.2 194.2 L 426.1 199.1 Z M 440.0 193.2 L 437.9 194.2 L 437.4 193.2 L 436.8 193.4 L 436.3 192.3 L 436.9 192.0 L 436.4 191.0 L 440.0 189.4 Z M 440.0 198.4 L 439.5 197.3 L 440.0 197.1 ZM 440.0 198.8 L 439.9 200.5 L 439.3 199.1 L 440.0 198.8 Z M 428.5 202.1 L 428.8 203.0 L 429.5 202.8 L 429.9 204.0 L 429.3 204.3 L 429.7 205.2 L 424.6 207.2 L 423.4 204.1 Z M 431.6 209.6 L 431.9 210.5 L 432.8 210.2 L 433.3 211.4 L 432.4 211.8 L 432.8 212.7 L 427.6 214.7 L 426.4 211.6 Z M 436.0 216.0 L 437.1 218.9 L 435.3 219.6 L 435.9 221.2 L 432.5 222.6 L 430.7 218.1 Z M 414.7 216.1 L 416.1 220.0 L 411.8 221.6 L 411.3 220.3 L 410.5 220.6 L 410.0 219.4 L 410.8 219.1 L 410.3 217.7 Z M 408.7 201.3 L 409.9 204.6 L 405.0 206.5 L 404.6 205.5 L 403.8 205.8 L 403.3 204.6 L 404.2 204.2 L 403.8 203.2 Z M 401.8 186.2 L 403.1 189.6 L 398.0 191.6 L 397.6 190.6 L 396.7 190.9 L 396.2 189.7 L 397.1 189.3 L 396.6 188.2 Z M 398.7 178.2 L 400.5 182.5 L 395.1 184.7 L 394.5 183.2 L 393.6 183.5 L 393.1 182.1 L 393.9 181.8 L 393.4 180.3 Z M 393.8 172.4 L 395.1 175.7 L 391.4 177.2 L 391.0 176.1 L 390.4 176.4 L 389.9 175.1 L 390.5 174.9 L 390.1 173.9 Z M 383.0 148.6 L 388.0 146.2 L 388.8 148.3 L 381.2 151.3 L 380.5 149.6 Z M 377.5 142.3 L 378.0 143.3 L 380.3 142.2 L 381.7 145.1 L 379.2 146.2 L 378.7 145.2 L 376.3 146.3 L 375.0 143.4 Z M 364.4 144.6 L 366.7 149.9 L 363.3 151.5 L 360.9 146.2 Z M 347.7 159.9 L 346.9 157.9 L 354.2 154.6 L 355.3 157.1 L 353.1 158.1 L 353.6 159.4 L 349.4 161.3 L 348.6 159.5 Z M 358.8 177.8 L 360.1 181.1 L 356.4 182.6 L 356.0 181.6 L 355.4 181.8 L 354.9 180.6 L 355.5 180.3 L 355.1 179.3 Z M 371.1 171.9 L 375.3 170.0 L 375.9 171.4 L 376.5 171.1 L 377.0 172.3 L 376.4 172.5 L 377.0 173.9 L 372.8 175.8 Z M 361.7 184.2 L 363.4 188.5 L 359.1 190.2 L 358.5 188.8 L 357.7 189.2 L 357.1 187.6 L 357.9 187.2 L 357.4 185.9 Z M 367.0 192.2 L 368.2 195.3 L 363.1 197.4 L 362.8 196.6 L 362.2 196.8 L 361.5 195.2 L 362.2 195.0 L 361.9 194.3 Z M 367.6 199.6 L 369.0 203.3 L 365.4 204.8 L 364.9 203.5 L 364.3 203.8 L 363.8 202.6 L 364.4 202.3 L 363.9 201.1 Z M 382.5 202.1 L 389.6 199.3 L 391.3 203.7 L 384.2 206.4 Z M 374.2 205.4 L 375.9 209.7 L 370.1 212.0 L 369.5 210.5 L 368.6 210.8 L 368.1 209.5 L 369.0 209.1 L 368.4 207.6 Z M 394.4 223.3 L 399.0 221.6 L 400.1 224.3 L 399.3 224.7 L 400.0 226.2 L 396.3 227.8 L 396.0 227.0 L 395.4 227.2 L 394.6 225.5 L 393.3 226.0 L 392.5 224.1 Z M 381.5 228.5 L 383.2 232.8 L 378.9 234.5 L 378.3 232.9 L 377.4 233.3 L 376.9 232.0 L 377.8 231.7 L 377.2 230.2 Z M 346.5 190.0 L 348.3 194.7 L 345.7 195.7 L 345.3 194.5 L 344.1 195.0 L 342.7 191.5 Z M 337.5 205.3 L 338.8 208.2 L 337.7 208.8 L 338.5 210.6 L 336.1 211.7 L 334.4 208.1 L 335.7 207.5 L 335.1 206.3 Z M 344.1 208.5 L 345.2 211.4 L 343.1 212.2 L 342.1 209.3 Z M 344.7 214.0 L 346.1 217.7 L 344.8 218.2 L 344.4 217.2 L 342.0 218.2 L 341.0 215.4 Z M 348.5 225.7 L 350.2 229.4 L 346.2 230.9 L 344.8 227.2 L 344.3 225.3 L 347.9 224.0 Z M 350.7 238.9 L 350.5 239.6 L 349.9 240.0 L 349.2 239.7 L 348.9 239.0 L 349.3 238.4 L 347.9 235.3 L 351.5 234.0 L 353.1 238.2 Z M 358.5 242.8 L 359.6 245.7 L 358.1 246.3 L 357.4 247.1 L 355.8 247.1 L 354.7 244.2 Z M 334.5 234.2 L 329.7 236.3 L 327.7 231.8 L 332.5 229.7 Z M 336.7 238.4 L 337.6 239.3 L 338.3 242.2 L 337.0 242.8 L 335.8 243.8 L 333.2 244.5 L 330.8 238.9 L 335.9 236.7 Z M 323.8 287.6 L 321.3 288.5 L 320.4 286.0 L 322.9 285.1 Z M 292.2 212.0 L 293.6 214.8 L 288.8 217.2 L 287.4 214.3 Z M 294.4 225.8 L 293.7 224.7 L 293.7 224.0 L 296.3 222.9 L 296.0 222.0 L 297.9 221.2 L 298.5 221.7 L 299.3 224.5 L 298.0 225.0 L 298.2 225.7 L 297.4 226.0 L 297.0 225.4 L 294.6 226.4 Z M 258.7 225.7 L 260.6 229.7 L 261.0 230.5 L 258.5 231.7 L 256.2 226.9 Z M 293.7 248.0 L 294.3 249.2 L 295.4 250.6 L 292.2 252.1 L 291.5 250.5 L 291.3 249.1 Z M 283.1 255.4 L 284.4 258.3 L 280.0 260.4 L 280.5 259.9 L 279.4 257.4 L 278.8 257.7 L 278.7 257.5 Z M 295.0 256.6 L 297.7 255.3 L 298.6 257.3 L 299.8 256.7 L 300.3 257.8 L 300.9 258.1 L 301.5 259.4 L 301.2 260.2 L 297.3 261.5 L 296.6 260.0 L 295.8 260.3 L 295.2 259.2 L 296.0 258.8 Z M 307.2 265.9 L 309.2 269.9 L 306.0 271.4 L 305.5 270.5 L 304.7 270.9 L 304.3 270.1 L 305.1 269.7 L 304.0 267.4 Z M 151.4 253.4 L 152.6 252.5 L 155.2 252.0 L 156.0 254.3 L 156.8 255.0 L 157.1 257.3 L 152.4 259.1 L 150.4 253.8 Z M 174.6 254.3 L 177.8 252.8 L 179.6 252.4 L 180.7 254.8 L 176.0 257.1 Z M 184.9 250.0 L 189.0 248.0 L 190.3 250.6 L 186.2 252.6 Z M 225.0 246.3 L 225.8 250.6 L 220.3 251.7 L 219.4 247.5 Z M 148.4 265.2 L 149.3 267.1 L 146.1 268.7 L 145.1 266.8 Z M 129.8 273.7 L 134.4 271.5 L 135.3 273.5 L 134.3 273.9 L 135.4 276.1 L 131.8 277.8 Z M 103.8 275.1 L 102.4 280.4 L 99.0 279.5 L 100.3 274.2 Z M 133.3 286.8 L 135.4 291.0 L 131.2 293.1 L 129.1 288.9 Z M 160.5 316.7 L 161.0 317.6 L 159.7 318.2 L 159.2 317.3 Z M 117.8 320.0 L 119.0 318.1 L 121.7 320.0 Z M 199.3 303.4 L 200.4 305.7 L 197.2 307.2 L 196.1 304.9 Z M 191.8 299.9 L 196.6 297.4 L 198.7 301.0 L 194.2 303.3 L 192.7 300.6 L 192.3 300.8 Z M 189.8 306.6 L 185.7 308.5 L 183.6 304.2 L 187.8 302.2 Z M 164.6 320.0 L 163.9 318.7 L 166.5 317.4 L 165.9 316.2 L 167.1 315.6 L 169.2 320.0 Z M 160.1 309.9 L 160.4 310.7 L 163.6 309.1 L 165.1 312.1 L 161.7 313.7 L 162.1 314.5 L 160.9 315.0 L 160.5 314.3 L 158.9 315.1 L 158.4 314.1 L 157.5 314.6 L 156.5 312.6 L 159.3 311.2 L 158.9 310.5 Z M 203.1 280.1 L 204.1 281.9 L 205.2 281.4 L 205.7 282.4 L 204.6 283.0 L 205.4 284.5 L 202.4 286.0 L 201.6 284.4 L 201.0 284.7 L 200.3 283.5 L 201.0 283.2 L 200.2 281.6 Z M 188.6 287.7 L 191.3 286.4 L 193.5 290.9 L 189.8 292.7 L 187.4 287.7 L 188.3 287.3 Z M 180.7 275.1 L 181.2 276.2 L 184.5 274.6 L 186.2 278.3 L 184.0 279.3 L 184.2 279.9 L 183.4 280.3 L 183.1 279.7 L 181.0 280.7 L 178.8 276.0 Z M 106.2 311.8 L 106.9 313.3 L 106.3 313.6 L 107.1 315.3 L 105.5 316.1 L 105.9 316.8 L 103.7 317.8 L 101.9 313.8 Z M 125.8 302.6 L 129.5 300.9 L 131.0 304.1 L 129.4 304.8 L 129.8 305.6 L 127.7 306.6 Z M 136.2 298.8 L 137.6 301.8 L 135.4 302.8 L 134.0 299.9 Z M 154.1 308.4 L 150.0 310.4 L 147.9 306.0 L 152.1 304.0 Z M 172.8 308.1 L 172.4 307.4 L 173.6 306.8 L 174.0 307.5 L 175.5 306.8 L 176.9 306.7 L 177.9 308.8 L 176.7 309.3 L 175.4 310.6 L 175.7 311.2 L 174.5 311.8 L 174.2 311.1 L 172.5 311.9 L 172.1 310.9 L 170.6 311.7 L 169.6 309.6 Z M 205.0 290.4 L 207.4 295.2 L 203.9 296.9 L 202.8 294.6 L 202.1 294.9 L 200.9 292.5 Z M 231.9 279.6 L 235.5 287.5 L 233.1 288.6 L 229.4 280.8 Z M 224.0 280.9 L 226.8 280.1 L 228.9 284.7 L 229.1 285.3 L 229.1 286.1 L 226.7 287.2 L 226.1 286.0 L 225.1 286.4 L 222.8 281.4 Z M 222.0 285.4 L 223.3 288.2 L 219.3 290.1 L 218.0 287.3 Z M 197.0 267.9 L 207.6 262.9 L 209.6 267.4 L 199.1 272.4 Z M 221.6 269.8 L 223.3 273.5 L 219.3 275.4 L 217.6 271.7 Z M 249.8 277.6 L 251.6 281.3 L 249.3 282.4 L 247.5 278.6 Z M 250.3 273.4 L 256.1 270.6 L 256.6 271.6 L 258.2 274.6 L 254.4 276.5 L 251.9 276.6 Z M 247.2 266.8 L 253.3 263.9 L 255.2 267.9 L 249.5 270.7 L 247.7 266.8 Z M 243.6 272.5 L 245.9 277.5 L 243.5 278.6 L 244.1 279.9 L 241.9 280.9 L 241.4 279.6 L 239.1 280.6 L 236.8 275.6 L 239.2 274.5 L 238.5 273.0 L 240.6 272.0 L 241.4 273.5 Z M 244.0 260.2 L 250.1 257.4 L 252.0 261.3 L 246.3 264.1 L 244.4 260.2 Z M 245.8 268.7 L 243.3 269.9 L 240.7 264.2 L 243.2 263.1 Z M 429.9 320.0 L 428.5 316.2 L 431.8 315.1 L 433.5 319.6 L 432.7 320.0 Z M 440.0 317.8 L 438.9 318.2 L 438.6 317.6 L 437.3 318.1 L 435.6 313.5 L 438.9 312.3 L 440.0 315.2 L 440.0 317.1 L 440.0 317.8 Z M 410.2 36.1 L 410.7 37.7 L 411.3 38.6 L 407.0 40.2 L 406.4 38.8 L 406.2 37.4 Z M 403.6 42.9 L 400.6 44.0 L 399.8 42.0 L 402.8 40.8 Z M 411.7 44.5 L 413.2 44.5 L 413.5 45.5 L 414.4 47.5 L 411.4 48.5 L 411.0 47.0 L 409.6 47.4 L 408.9 45.3 Z M 404.4 45.6 L 405.1 47.4 L 402.2 48.5 L 401.5 46.7 Z M 411.0 64.3 L 411.8 66.6 L 408.4 67.2 L 408.1 66.3 L 407.9 67.4 L 407.1 67.7 L 407.6 69.0 L 406.3 69.5 L 405.4 67.1 L 406.5 66.7 L 406.2 65.9 Z M 420.0 60.9 L 420.8 63.3 L 417.3 64.5 L 416.4 62.1 Z M 413.7 5.5 L 413.9 6.3 L 414.6 6.7 L 414.9 7.9 L 414.5 8.5 L 414.7 9.3 L 412.2 10.0 L 411.1 6.2 Z M 430.3 22.4 L 431.6 25.4 L 431.1 26.1 L 428.4 26.7 L 427.1 23.7 Z M 412.7 29.1 L 412.2 27.6 L 413.7 27.1 L 414.2 28.6 Z M 415.0 32.5 L 415.7 33.5 L 413.9 34.1 L 413.1 31.6 L 414.5 31.2 Z M 416.7 33.2 L 417.2 34.5 L 416.6 34.7 L 417.3 36.7 L 415.4 37.4 L 414.1 34.0 Z M 421.8 27.3 L 422.9 30.7 L 420.3 31.5 L 419.8 30.1 L 419.2 30.3 L 418.9 29.4 L 419.5 29.2 L 419.2 28.1 Z M 426.8 31.0 L 430.5 29.8 L 432.2 34.8 L 428.5 36.0 Z M 425.4 40.1 L 426.2 42.7 L 422.9 43.7 L 422.5 42.5 L 423.3 42.3 L 422.8 40.8 Z M 435.6 50.9 L 436.0 52.0 L 436.0 53.3 L 433.9 54.0 L 433.1 51.7 Z M 430.0 52.4 L 431.3 54.7 L 428.0 56.2 L 426.9 53.0 L 429.9 51.9 Z M 432.4 59.8 L 433.7 63.5 L 430.0 64.8 L 428.8 61.1 Z M 440.0 70.0 L 439.3 70.1 L 438.5 66.6 L 440.0 66.3 Z M 440.0 63.0 L 439.4 63.2 L 438.7 60.6 L 440.0 60.3 Z M 440.0 23.9 L 437.4 24.8 L 436.1 20.7 L 438.7 19.8 L 440.0 23.9 Z M 438.2 13.5 L 434.5 14.9 L 433.7 12.8 L 437.4 11.4 Z M 406.0 28.8 L 406.3 29.5 L 405.7 29.7 L 406.4 31.6 L 405.6 31.8 L 405.8 32.5 L 404.8 32.8 L 403.7 29.6 Z M 405.2 24.2 L 406.0 27.4 L 403.5 28.0 L 402.7 24.9 Z M 384.3 31.1 L 385.0 33.0 L 382.9 33.7 L 382.3 31.8 Z M 384.5 38.9 L 386.0 38.3 L 386.9 40.5 L 385.4 41.1 Z M 393.7 42.7 L 395.0 46.3 L 390.9 47.8 L 390.6 46.9 L 389.6 47.2 L 389.0 45.3 L 389.9 45.0 L 389.6 44.1 Z M 187.5 156.6 L 188.7 160.0 L 185.9 161.0 L 184.7 157.6 Z M 216.8 132.1 L 217.4 135.7 L 213.3 136.3 L 212.7 135.9 L 212.5 134.6 L 212.8 132.8 Z M 199.0 138.4 L 200.8 142.0 L 198.3 143.2 L 196.6 139.6 Z M 221.2 148.5 L 222.1 153.7 L 219.5 154.2 L 219.7 155.1 L 218.1 155.4 L 217.3 151.5 L 216.1 151.7 L 215.7 149.5 Z M 245.5 121.0 L 245.7 122.8 L 244.8 122.8 L 244.9 123.7 L 242.3 124.0 L 242.1 121.3 Z M 259.4 107.7 L 263.7 107.1 L 264.2 110.3 L 259.9 111.0 Z M 254.7 104.9 L 255.4 108.6 L 254.1 108.8 L 254.3 110.1 L 251.6 110.7 L 250.6 105.8 Z M 253.5 113.6 L 253.9 115.7 L 251.0 116.3 L 250.6 114.2 Z M 256.0 117.2 L 256.8 121.3 L 253.6 121.9 L 252.8 117.8 Z M 256.1 134.6 L 256.5 136.8 L 252.9 137.4 L 252.6 135.2 Z M 300.5 141.2 L 301.1 145.8 L 297.4 146.2 L 297.3 145.0 L 296.4 145.1 L 295.9 141.7 Z M 285.6 139.4 L 289.6 139.0 L 289.9 143.0 L 288.1 143.1 L 288.0 142.1 L 285.9 142.3 Z M 280.2 140.3 L 280.4 142.0 L 281.0 141.9 L 281.1 144.0 L 280.1 144.9 L 279.3 145.0 L 278.6 144.4 L 276.9 144.6 L 276.5 140.8 Z M 277.3 136.7 L 276.2 136.8 L 275.4 136.0 L 275.2 135.2 L 275.9 135.1 L 275.5 132.4 L 279.1 131.9 L 279.6 135.6 L 277.2 135.9 Z M 286.3 121.7 L 286.8 125.4 L 283.1 125.9 L 282.5 122.2 Z M 271.7 106.8 L 272.2 110.4 L 268.7 110.9 L 268.4 109.1 L 268.2 107.1 Z M 277.6 113.8 L 277.8 115.2 L 276.7 115.4 L 277.0 118.1 L 274.2 118.5 L 273.6 114.4 Z M 328.6 95.6 L 331.5 95.2 L 332.4 101.3 L 329.5 101.8 Z M 325.6 95.5 L 326.4 99.9 L 322.8 100.5 L 322.1 96.1 Z M 326.9 108.8 L 324.1 109.3 L 323.9 108.0 L 321.3 108.5 L 321.1 107.0 L 326.4 106.1 Z M 317.1 107.4 L 318.0 112.9 L 312.8 113.8 L 312.6 112.3 L 312.1 111.4 L 312.2 109.8 L 313.3 109.6 L 313.0 108.1 Z M 319.2 123.6 L 316.5 124.0 L 316.0 120.6 L 318.2 120.3 L 318.4 121.5 L 318.9 121.4 Z M 321.2 134.3 L 321.4 136.3 L 317.6 136.9 L 317.4 134.7 Z M 305.5 109.8 L 305.9 112.5 L 302.2 113.1 L 301.7 110.4 Z M 302.4 128.5 L 305.8 127.6 L 306.5 131.2 L 304.7 131.6 L 304.5 130.8 L 303.8 129.8 L 302.7 130.0 Z M 294.8 127.4 L 294.7 126.2 L 296.6 125.9 L 296.8 127.2 L 298.3 127.0 L 298.5 128.8 L 298.8 129.4 L 298.7 131.0 L 293.5 131.6 L 293.0 127.6 Z M 370.4 74.6 L 371.2 76.7 L 368.7 77.8 L 367.9 75.7 Z M 368.2 68.8 L 369.0 70.9 L 367.4 71.5 L 366.5 69.5 Z M 371.5 68.1 L 371.3 66.7 L 371.6 65.5 L 372.9 65.0 L 374.0 65.6 L 374.5 66.9 L 375.8 66.5 L 376.5 68.5 L 375.5 68.9 L 372.3 70.4 Z M 369.5 50.5 L 370.0 51.8 L 369.1 52.0 L 369.5 53.3 L 366.6 54.3 L 365.8 51.7 Z M 362.2 43.0 L 361.3 40.5 L 363.9 39.6 L 364.2 40.6 L 365.2 40.2 L 365.8 41.7 Z M 352.8 53.1 L 355.3 52.3 L 355.7 53.6 L 355.5 54.5 L 353.5 55.2 Z M 355.4 43.1 L 355.9 44.6 L 356.8 44.2 L 357.3 45.8 L 356.3 46.0 L 356.8 47.5 L 351.8 49.1 L 351.5 48.1 L 350.2 48.4 L 350.3 47.7 L 350.0 46.6 L 349.4 46.1 L 350.7 45.7 L 350.4 44.7 Z M 357.5 50.2 L 357.7 50.9 L 359.5 50.4 L 359.3 49.7 L 360.5 49.4 L 360.7 50.1 L 361.7 49.8 L 362.5 52.7 L 357.1 54.2 L 356.1 50.6 Z M 363.6 59.4 L 364.7 62.5 L 361.6 63.6 L 360.5 60.5 Z M 371.2 55.7 L 372.2 58.5 L 368.0 59.9 L 367.0 57.1 Z M 391.9 71.2 L 392.1 72.0 L 392.9 71.7 L 393.3 73.1 L 392.3 73.4 L 392.5 74.0 L 389.9 74.8 L 389.3 72.8 L 389.3 72.0 Z M 391.7 68.1 L 389.3 68.9 L 388.4 66.4 L 390.8 65.5 Z M 388.9 61.8 L 389.9 64.3 L 387.0 65.4 L 386.0 62.8 Z M 385.5 52.7 L 382.0 54.0 L 381.1 51.5 L 384.6 50.2 Z M 412.9 91.0 L 409.7 91.6 L 409.4 89.7 L 410.8 89.4 L 410.6 88.4 L 413.5 87.9 L 413.9 90.4 L 412.8 90.6 Z M 383.7 98.1 L 384.1 100.9 L 381.2 101.3 L 380.8 98.5 Z M 375.8 93.0 L 376.3 96.7 L 374.9 96.9 L 374.6 95.0 L 373.2 95.2 L 373.0 93.4 Z M 359.6 91.0 L 360.9 90.4 L 361.6 90.7 L 361.7 91.4 L 362.3 92.0 L 361.9 92.5 L 362.0 93.2 L 360.0 93.8 L 359.3 93.5 L 358.9 91.1 Z M 351.3 90.9 L 351.9 94.6 L 348.9 95.0 L 348.3 91.4 Z M 357.1 101.9 L 356.5 102.2 L 356.7 103.2 L 356.9 104.6 L 357.6 104.7 L 354.1 105.4 L 353.6 102.6 Z M 372.3 109.1 L 376.7 108.5 L 377.1 111.6 L 376.4 111.7 L 372.7 111.8 Z M 362.6 110.4 L 365.1 110.0 L 365.2 110.7 L 365.7 112.1 L 365.4 112.8 L 364.7 112.9 L 362.9 113.1 L 362.8 112.4 L 362.2 111.1 L 362.6 111.0 Z M 377.1 125.5 L 377.0 124.8 L 381.3 124.5 L 381.6 127.0 L 380.0 127.2 L 379.9 126.0 L 378.5 126.1 L 378.7 128.0 L 374.0 128.4 L 373.7 126.0 Z M 365.4 127.7 L 371.2 126.9 L 371.8 130.7 L 367.5 130.9 L 367.4 130.1 L 365.8 130.3 Z M 358.5 119.7 L 358.9 123.2 L 356.1 123.5 L 355.7 120.0 Z M 328.1 132.1 L 333.0 131.2 L 333.4 133.4 L 331.4 133.8 L 331.9 136.9 L 330.3 137.2 L 330.2 136.5 L 328.9 136.7 Z M 348.4 120.7 L 349.1 124.2 L 345.1 125.0 L 344.4 121.5 Z M 356.5 36.1 L 357.2 38.2 L 353.2 39.7 L 352.4 37.7 Z M 348.5 41.0 L 349.4 43.6 L 347.6 44.2 L 346.8 41.6 Z M 353.3 36.7 L 349.0 38.2 L 348.1 35.8 L 347.7 33.6 L 350.9 32.4 L 351.6 34.4 L 352.3 34.2 Z M 345.2 29.8 L 346.2 33.0 L 343.5 33.9 L 342.8 31.4 L 341.8 31.8 L 341.5 31.0 Z M 340.5 38.5 L 340.3 37.7 L 343.0 36.8 L 344.1 39.9 L 343.5 40.1 L 344.1 41.9 L 340.6 43.1 L 339.0 39.0 Z M 350.2 63.4 L 351.4 66.3 L 348.4 67.4 L 347.3 64.4 Z M 306.5 20.3 L 303.2 21.5 L 302.2 18.7 L 305.5 17.5 Z M 310.2 20.4 L 309.1 17.1 L 311.2 16.4 L 312.3 19.7 Z M 309.5 10.9 L 310.5 13.6 L 307.2 14.8 L 306.2 12.1 Z M 318.9 16.6 L 316.9 17.4 L 316.5 16.4 L 315.6 16.8 L 314.6 14.3 L 317.3 13.2 L 317.0 12.5 L 318.4 12.0 L 318.8 13.0 L 317.6 13.4 Z M 322.5 11.0 L 323.0 11.6 L 323.2 12.9 L 320.5 13.9 L 319.8 12.0 Z M 326.4 23.0 L 325.5 20.6 L 328.8 19.4 L 329.6 21.8 Z M 335.3 20.0 L 335.8 21.8 L 334.9 22.1 L 335.2 22.8 L 334.0 23.2 L 333.8 22.4 L 333.0 22.6 L 332.5 20.8 Z M 343.0 17.7 L 343.9 20.1 L 342.6 20.7 L 341.6 18.2 Z M 346.8 15.3 L 347.7 17.9 L 345.0 18.8 L 344.1 16.2 Z M 344.1 3.9 L 346.5 3.5 L 347.5 6.3 L 345.2 7.1 L 344.5 6.4 L 343.8 6.9 L 342.9 4.3 Z M 333.6 10.6 L 329.5 12.2 L 328.6 9.9 L 332.8 8.4 Z M 327.9 5.1 L 330.9 4.1 L 331.6 5.8 L 328.7 7.1 Z M 323.5 4.5 L 321.4 5.2 L 320.2 1.8 L 322.3 1.0 Z M 328.9 0.0 L 329.7 2.1 L 327.2 3.1 L 326.2 0.6 L 328.9 0.0 Z M 307.5 49.8 L 308.6 53.1 L 304.4 54.5 L 303.3 51.1 Z M 314.6 52.8 L 318.3 51.3 L 319.1 53.4 L 317.7 53.9 L 318.0 54.7 L 315.6 55.6 Z M 319.7 42.2 L 321.1 45.7 L 317.8 47.0 L 316.4 43.5 Z M 322.2 49.9 L 323.6 53.3 L 323.2 52.7 L 321.1 53.6 L 321.3 54.2 L 319.9 50.9 Z M 339.2 69.1 L 340.5 72.7 L 337.6 73.8 L 336.2 70.2 Z M 337.4 63.4 L 332.7 64.8 L 331.9 62.3 L 336.7 60.9 Z M 315.9 82.4 L 319.0 81.4 L 320.3 85.3 L 317.1 86.3 Z M 297.9 0.0 L 299.0 2.6 L 296.5 3.7 L 295.0 0.1 L 297.9 0.0 Z M 303.6 0.0 L 302.4 0.7 L 302.7 1.5 L 301.4 1.9 L 300.7 0.0 Z M 355.0 7.2 L 355.7 9.7 L 357.2 9.3 L 357.7 10.7 L 352.3 12.3 L 351.1 8.4 Z M 355.2 13.1 L 355.9 15.3 L 353.4 16.1 L 352.7 14.0 Z M 356.4 24.4 L 357.4 23.6 L 359.0 23.1 L 359.6 23.4 L 359.9 24.0 L 360.5 23.8 L 360.9 24.2 L 361.2 25.1 L 361.4 26.5 L 357.3 27.8 L 356.3 24.4 Z M 379.4 19.3 L 380.3 22.0 L 378.7 22.5 L 378.2 19.7 Z M 382.7 24.9 L 383.4 26.9 L 380.3 28.0 L 379.6 26.0 Z M 404.0 15.5 L 404.4 17.8 L 403.6 18.1 L 400.4 18.7 L 399.9 16.4 Z M 396.6 9.3 L 399.9 8.3 L 400.8 11.1 L 397.5 12.2 Z M 397.9 4.8 L 395.4 5.5 L 394.5 2.4 L 397.0 1.7 Z M 370.4 11.7 L 369.1 12.1 L 368.9 11.5 L 367.6 12.0 L 366.8 9.6 L 369.4 8.7 Z M 375.2 22.0 L 373.1 22.7 L 372.5 20.9 L 371.7 21.2 L 371.3 20.1 L 374.2 19.1 Z M 388.7 2.4 L 389.5 5.0 L 389.5 6.1 L 387.3 6.7 L 386.1 3.1 Z M 372.7 0.0 L 373.5 2.5 L 371.9 3.0 L 371.0 0.0 Z M 387.9 0.0 L 383.0 1.6 L 382.5 0.0 Z M 406.8 253.2 L 407.8 255.7 L 401.6 258.1 L 400.7 255.7 Z M 400.7 247.4 L 400.4 246.7 L 402.2 246.0 L 402.4 246.8 L 403.8 246.3 L 405.4 250.4 L 403.6 251.1 L 404.1 252.4 L 402.1 253.4 L 401.5 253.2 L 399.5 247.9 Z M 392.1 208.8 L 392.9 208.5 L 393.4 209.7 L 392.7 210.0 L 393.4 211.5 L 389.6 213.2 L 387.7 209.0 L 391.4 207.3 Z M 173.7 284.2 L 169.1 286.3 L 167.8 283.5 L 172.4 281.4 Z M 215.2 260.4 L 215.8 261.6 L 216.5 261.2 L 218.0 264.3 L 215.7 265.3 L 215.4 264.5 L 214.0 265.2 L 212.3 261.7 Z M 332.7 293.0 L 334.0 295.4 L 334.7 295.0 L 336.7 298.4 L 331.4 301.4 L 328.1 295.5 Z "/><path class="context-road" fill-rule="evenodd" d="M -0.0 222.6 L 3.4 228.8 L 20.1 262.2  M 29.2 62.3 L 21.8 61.6 L 4.4 61.6 L -0.0 62.1  M 104.6 195.6 L 97.0 172.7 L 81.5 130.3  M 2.1 276.8 L -0.0 273.0  M 25.6 258.0 L -0.0 182.4  M 54.1 93.3 L 68.7 83.0 L 85.1 73.2 L 88.5 72.1 L 92.1 73.5 L 108.2 121.2  M 190.5 113.3 L 195.6 120.5 L 213.9 159.9  M 256.3 251.0 L 226.7 264.3 L 109.0 320.0  M 215.4 163.7 L 256.3 251.0 L 276.1 292.2 L 290.8 320.0  M 190.5 113.3 L 136.7 135.7 L 89.5 152.3  M 211.8 289.9 L 204.3 274.9  M 189.7 301.6 L 182.2 285.5  M 233.6 279.7 L 226.7 264.3  M 168.0 313.5 L 159.6 296.3  M 351.6 85.8 L 350.2 79.1 L 323.8 -0.0  M 384.1 134.6 L 375.4 80.7  M 440.0 71.8 L 396.1 77.0 L 375.4 80.7 L 355.5 85.2 L 296.2 94.9 L 277.2 97.4 L 256.9 98.7 L 243.3 100.4 L 215.4 105.4 L 208.7 107.6 L 201.3 112.5 L 195.6 120.5  M 440.0 126.2 L 424.0 129.4 L 404.0 132.4 L 384.1 134.6 L 364.2 137.4 L 325.2 144.1 L 290.3 149.2 L 283.7 150.6 L 263.9 152.9 L 258.5 153.9 L 244.0 154.9 L 223.6 157.2 L 213.9 159.9  M 438.3 96.8 L 440.0 108.0  M 418.5 91.9 L 424.0 129.4  M 369.2 -0.0 L 375.3 18.8 L 396.0 75.4 L 396.1 77.0  M 190.5 113.3 L 185.9 102.3 L 182.1 97.8 L 176.6 94.9 L 173.0 95.3 L 161.6 100.4 L 108.2 121.2 L 81.5 130.3  M 38.8 116.4 L 47.8 138.7  M 35.3 140.2 L 47.8 138.7 L 81.5 130.3  M 81.5 130.3 L 79.1 126.3 L 70.4 103.2  M 29.2 62.3 L 44.8 66.5 L 55.1 68.5 L 71.8 68.8  M 152.5 181.2 L 136.7 135.7  M 202.4 135.4 L 144.3 157.6 L 97.0 172.7 L 49.5 189.1  M 14.1 152.7 L 21.2 150.5 L 24.9 151.7 L 33.2 158.3 L 40.8 167.5 L 45.8 177.8 L 63.0 227.7  M 89.5 152.3 L 40.8 167.5  M 70.4 103.2 L 38.8 116.4  M 14.1 152.7 L 44.2 243.0  M 414.7 -0.0 L 428.1 43.9 L 435.2 62.4 L 437.8 72.0  M 416.9 74.4 L 396.0 13.8 L 391.7 -0.0  M 436.1 -0.0 L 440.0 11.5  M 316.8 96.0 L 319.2 107.7 L 325.2 144.1  M 229.3 -0.0 L 231.3 3.3 L 231.0 8.4 L 231.7 11.0 L 233.5 14.0 L 236.2 15.8  M 364.2 137.4 L 360.0 109.0 L 356.3 88.8  M 345.1 140.8 L 340.9 119.9 L 336.5 91.7  M 215.4 105.4 L 223.6 157.2  M 210.6 26.7 L 224.5 69.9 L 236.8 101.4 L 244.0 154.9  M 236.2 15.8 L 229.3 17.7 L 224.6 19.6 L 220.8 22.3 L 210.6 26.7  M 162.6 40.8 L 175.0 37.1 L 180.5 36.1 L 203.5 28.1 L 210.6 26.7  M 213.9 159.9 L 201.5 165.0 L 157.7 179.6 L 104.6 195.6 L 99.7 198.0 L 96.2 200.4 L 63.0 227.7 L -0.0 278.6  M 306.8 -0.0 L 332.2 66.0 L 338.6 84.6 L 339.3 88.0  M 277.2 97.4 L 283.7 150.6  M 236.2 15.8 L 264.6 93.1 L 265.5 98.1  M 189.6 66.4 L 194.4 74.9 L 200.5 82.1 L 202.4 85.6 L 208.7 107.6  M 263.3 3.3 L 236.2 15.8  M 303.5 147.3 L 297.1 98.4 L 296.2 94.9  M 263.3 3.3 L 272.9 -0.0  M 141.0 49.4 L 161.6 100.4  M 256.9 98.7 L 258.7 117.7 L 263.9 152.9  M 118.2 65.2 L 133.9 111.2  M 296.2 94.9 L 285.0 61.9 L 263.3 3.3  M 292.3 -0.0 L 318.1 72.2 L 324.2 90.1  M 4.6 58.3 L 4.4 61.6  M 122.0 -0.0 L 115.4 2.8 L 85.8 17.2 L 58.7 32.5 L 49.5 41.7 L 29.3 46.7 L 23.1 49.9 L 4.6 58.3 L 2.1 48.5 L 4.3 47.2  M 375.4 80.7 L 373.8 78.5 L 365.6 57.8 L 346.1 -0.0  M 263.3 3.3 L 264.0 -0.0  M 396.1 77.0 L 398.3 94.7 L 402.2 118.8 L 404.0 132.4  M 276.1 292.2 L 296.5 284.5 L 300.1 279.5 L 325.9 269.5 L 375.5 251.2 L 377.5 248.6  M 265.8 208.4 L 300.1 279.5  M 293.4 199.9 L 325.9 269.5  M 320.8 186.5 L 320.5 189.9 L 352.4 259.6  M 87.0 303.0 L 213.7 243.8 L 250.2 238.0  M 71.8 68.8 L 99.5 55.4 L 127.8 42.4 L 216.7 9.7 L 242.1 -0.0  M 4.1 32.8 L 7.4 38.4 L 13.5 46.3 L 29.2 62.3  M 49.5 41.7 L 39.3 49.7 L 32.4 56.7 L 29.2 62.3  M 71.8 68.8 L 76.1 72.4 L 79.6 76.4  M 366.3 320.0 L 440.0 291.4  M 297.3 320.0 L 440.0 264.1  M 377.5 248.6 L 411.7 234.9 L 440.0 224.4  M 411.7 234.9 L 371.1 145.6  M 440.0 212.5 L 408.4 142.7  M 341.2 178.6 L 346.3 179.5  M 214.4 161.5 L 215.4 163.7  M 213.9 159.9 L 214.4 161.5  M 377.5 248.6 L 346.3 179.5  M 379.9 247.6 L 376.3 240.0  M 341.2 178.6 L 320.8 186.5  M 87.0 303.0 L 110.5 226.6  M 70.6 311.0 L 87.0 303.0  M 315.9 91.6 L 316.8 96.0  M 356.3 88.8 L 355.5 85.2  "/><path class="context-rail" fill-rule="evenodd" d="M 254.0 -0.0 L 193.9 22.1 L 126.0 47.8 L 103.4 57.4 L 82.9 68.0 L 60.6 82.5 L 2.7 131.8  M 2.7 131.8 L -0.0 134.0  "/><path class="context-coastline" fill-rule="evenodd" d="M 38.7 -0.0 L 24.2 7.3 L -0.0 17.9  "/><path class="context-waterline" fill-rule="evenodd" d="M 22.0 263.8 L 100.1 199.9 L 105.6 197.5 L 116.7 195.9 L 130.4 191.6 L 211.3 164.5 L 218.7 161.3 L 230.0 159.0 L 298.7 150.7 L 339.5 143.8 L 440.0 128.5  M 32.6 155.2 L 31.0 152.0 L 22.5 147.6 L 13.9 141.4 L 7.1 139.2 L 2.6 137.0 L -0.0 133.9  M 222.8 174.9 L 259.7 253.3 L 278.6 289.2  M 221.0 245.6 L 219.1 241.1  M 52.4 320.0 L 27.9 273.2 L 27.5 270.3 L 22.0 263.8  M 246.6 236.9 L 123.5 255.5 L 33.9 270.6 L 31.5 270.0 L 27.5 270.3  M 259.7 253.3 L 261.4 253.0 L 267.5 250.7  M 270.0 100.2 L 333.6 91.2 L 404.8 78.0 L 440.0 73.6  M 280.2 293.3 L 293.5 320.0  M 278.6 289.2 L 280.2 293.3  M 252.7 249.0 L 248.5 240.7  M 248.5 240.7 L 246.6 236.9  M 219.1 241.1 L 219.0 240.8  M 221.9 247.8 L 221.0 245.6  "/></g><circle class="place-focus-ring" cx="220.0" cy="160.0" r="22"/><path class="place-focus" d="M 220.0 152.0 l 8 8 -8 8 -8 -8 Z"><title>Кафе</title></path></svg>