<svg xmlns="http://www.w3.org/2000/svg" class="route-diagram place-diagram" viewBox="0 0 440 320" width="440" height="320" role="img" aria-labelledby="title-card-image-2gis-70000001103339960" data-focus-lon="20.469085" data-focus-lat="54.95987" data-projection-coords="[[20.469085,54.95987]]" data-theme="night"><title id="title-card-image-2gis-70000001103339960">Рыба Агонь: берег и улицы рядом</title><style>
.route-context { --context-sea:#d0e1e9;--context-land:#f3f3ec;--context-green:#e2e9dd;--context-sand:#ece3d1;--context-water:#c8dee8;--context-road:#d8dcd8;--context-major:#c3cdd0;--context-coast:#a9c2ce;--context-rail:#c5cac5; }
.context-sea { fill:var(--context-sea); }
.context-land { fill:var(--context-land); }
.context-green { fill:var(--context-green); }
.context-sand { fill:var(--context-sand); }
.context-water { fill:var(--context-water); }
.context-building { fill:var(--context-building,#dde0d9);stroke:var(--context-building-line,#ccd3d0);stroke-width:.3px; }
.context-road,.context-major-road,.context-rail,.context-coastline,.context-waterline { fill:none;stroke-linecap:round;stroke-linejoin:round; }
.context-road { stroke:var(--context-road);stroke-width:.65px; }
.context-major-road { stroke:var(--context-major);stroke-width:1.4px; }
.context-rail { stroke:var(--context-rail);stroke-width:.7px;stroke-dasharray:2 3; }
.context-coastline { stroke:var(--context-coast);stroke-width:1px; }
.context-waterline { stroke:var(--context-water);stroke-width:2px; }
:root[data-theme=night] .route-context { --context-sea:#152f42;--context-land:#26343a;--context-green:#2a3b39;--context-sand:#393b36;--context-water:#1e4255;--context-road:#34434b;--context-major:#43545d;--context-coast:#426075;--context-rail:#3a484d; }
:root[data-theme=night] .route-context { --context-building:#35464d;--context-building-line:#42535b; }
.place-focus-ring { fill: #c9b08a; fill-opacity: .17; stroke: #ad865b; stroke-width: .7px; }
.place-focus { fill: #9d703f; stroke: #f7f5ef; stroke-width: 2px; }</style><defs><clipPath id="context-card-image-2gis-70000001103339960"><rect width="440" height="320" rx="3"/></clipPath></defs><g class="route-context" aria-hidden="true" clip-path="url(#context-card-image-2gis-70000001103339960)" data-source="OpenStreetMap" data-snapshot="2026-10-01"><rect class="context-sea" width="440" height="320"/><path class="context-land" fill-rule="evenodd" d="M 440.0 320.0 L 0.0 320.0 L 0.0 256.5 L 1.6 255.3 L 14.7 247.5 L 32.5 234.2 L 40.4 228.8 L 51.7 221.0 L 62.0 215.6 L 70.0 210.8 L 89.4 199.2 L 100.1 193.4 L 109.0 188.2 L 128.9 179.7 L 138.0 175.5 L 148.7 169.5 L 151.2 168.0 L 168.3 158.5 L 174.7 154.9 L 187.4 147.8 L 191.2 145.3 L 205.3 134.4 L 220.3 127.3 L 224.8 123.6 L 235.9 116.8 L 244.4 112.7 L 252.5 108.9 L 264.6 101.4 L 280.8 95.0 L 286.7 92.2 L 294.5 87.4 L 307.2 82.0 L 317.7 76.7 L 328.3 71.0 L 352.3 59.1 L 356.8 56.0 L 375.9 46.0 L 377.9 45.1 L 379.5 44.2 L 400.1 33.5 L 409.6 29.4 L 423.2 23.6 L 428.3 21.5 L 440.0 17.0 Z"/><path class="context-green" fill-rule="evenodd" d="M 389.0 172.1 L 396.0 189.9 L 380.5 198.6 L 373.9 180.5 L 375.6 177.8 Z M 387.0 53.7 L 388.5 53.6 L 389.4 53.1 L 390.5 51.4 L 391.2 51.0 L 392.3 51.3 L 393.0 52.0 L 392.4 53.5 L 389.7 55.8 L 387.0 55.8 L 386.4 55.2 L 386.5 54.3 Z M 393.6 54.9 L 393.5 54.1 L 395.1 51.3 L 396.0 51.2 L 396.5 51.9 L 396.7 52.8 L 395.9 55.1 L 394.6 55.7 Z M 391.3 57.9 L 390.7 56.9 L 390.7 56.1 L 392.1 55.8 L 393.8 56.9 L 394.0 57.6 L 393.9 58.2 L 393.2 58.8 Z M 388.4 59.5 L 388.4 58.7 L 389.3 58.0 L 390.0 58.1 L 390.7 59.0 L 390.5 59.8 L 389.9 60.3 L 388.8 60.1 Z M 379.4 60.1 L 378.8 59.3 L 378.7 58.3 L 379.4 57.1 L 381.3 56.8 L 381.7 55.7 L 382.3 55.5 L 382.9 55.5 L 383.4 56.3 L 383.0 58.0 L 381.7 59.5 L 381.0 60.1 Z M 381.3 62.9 L 380.8 61.8 L 381.0 61.1 L 382.8 59.2 L 383.5 59.0 L 385.1 59.2 L 386.1 60.1 L 386.4 61.0 L 386.2 62.1 L 383.4 62.1 L 382.1 62.9 Z M 399.9 72.2 L 399.7 82.5 L 399.2 82.8 L 394.5 72.8 Z M 388.4 74.1 L 390.5 73.7 L 391.8 74.8 L 393.1 77.5 L 389.4 78.7 L 387.7 74.6 Z M 395.9 97.4 L 397.3 96.7 L 398.6 97.2 L 399.2 102.2 L 398.1 102.9 L 397.5 102.5 Z M 391.9 82.4 L 394.6 82.3 L 396.0 82.4 L 397.1 83.1 L 399.3 87.6 L 398.7 95.2 L 397.5 95.6 L 395.0 93.8 L 390.6 82.9 Z M 389.3 61.5 L 390.8 61.2 L 391.3 60.3 L 392.1 59.7 L 394.5 59.5 L 394.8 58.9 L 395.0 56.9 L 396.2 56.2 L 396.9 55.1 L 400.1 56.4 L 402.0 58.2 L 399.3 67.9 L 398.1 67.7 L 396.5 68.3 L 395.6 67.9 L 395.2 67.0 L 394.4 66.3 L 391.7 65.9 L 389.3 61.9 Z M 385.8 63.1 L 387.3 62.4 L 389.6 66.8 L 389.4 67.5 L 388.6 68.6 L 388.8 69.9 L 388.6 70.6 L 387.5 71.9 L 386.8 71.8 L 386.4 71.3 L 383.6 63.8 L 383.8 63.1 L 384.1 63.0 Z M 399.9 51.8 L 401.4 52.4 L 402.3 52.2 L 403.3 51.2 L 403.4 50.2 L 405.2 49.3 L 403.8 53.2 L 402.9 53.8 L 400.2 54.0 L 398.2 52.6 Z M 398.6 48.6 L 406.8 44.9 L 405.6 48.3 L 402.9 49.5 L 402.0 48.8 L 400.8 48.8 L 399.6 49.9 L 399.6 51.0 L 397.8 51.8 L 397.6 49.8 Z M 420.1 260.4 L 398.7 275.1 L 369.8 242.5 L 367.7 238.8 L 375.1 234.0 L 377.6 237.9 L 386.7 231.5 L 390.1 224.8 L 400.8 217.0 L 397.9 213.0 L 399.9 211.3 L 403.8 209.7 Z M 440.0 104.7 L 429.0 108.4 L 414.3 110.4 L 400.1 110.8 L 402.1 79.8 L 404.8 81.5 L 409.5 94.0 L 411.6 97.6 L 416.6 98.4 L 422.6 96.2 L 421.8 92.6 L 424.4 84.7 L 432.0 83.0 L 431.2 79.4 L 433.5 78.9 L 435.2 75.8 L 433.5 70.0 L 433.3 64.1 L 436.2 57.9 L 440.0 55.5 Z M 345.4 212.6 L 344.6 211.7 L 344.5 211.0 L 344.6 210.4 L 345.3 209.4 L 347.2 209.2 L 348.3 210.5 L 348.1 211.7 L 347.3 212.6 Z M 367.5 240.3 L 368.6 240.3 L 369.8 242.5 L 377.0 250.6 L 372.3 254.5 L 366.9 253.7 L 361.9 255.9 L 353.0 255.1 L 349.8 253.9 L 348.4 251.6 L 348.0 249.2 L 351.4 250.0 L 352.8 244.4 L 353.8 242.7 L 355.5 241.4 L 355.9 241.9 L 358.4 240.0 L 360.3 236.3 L 363.2 239.3 L 364.9 237.7 Z M 342.8 207.9 L 343.6 218.4 L 341.4 218.5 L 340.8 208.0 Z M 320.6 292.8 L 321.7 296.0 L 324.6 320.0 L 315.0 320.0 L 311.0 293.7 Z M 349.2 289.0 L 351.0 288.8 L 352.6 301.6 L 349.1 304.5 L 345.5 305.0 L 341.0 302.3 L 339.2 289.2 L 335.7 285.1 L 334.3 286.1 L 333.3 277.1 L 338.1 276.7 L 338.3 279.4 L 342.5 279.1 L 348.0 279.4 Z M 435.7 320.0 L 429.7 320.0 L 417.4 306.4 L 411.9 301.6 L 410.7 306.3 L 401.9 305.0 L 394.6 305.9 L 387.6 309.2 L 383.8 315.4 L 382.7 320.0 L 359.4 320.0 L 358.2 318.0 L 357.8 310.9 L 361.5 306.5 L 365.1 308.1 L 367.5 313.3 L 369.6 315.9 L 374.5 309.3 L 382.4 303.1 L 387.0 298.4 L 388.6 293.0 L 393.5 286.3 L 400.3 278.8 L 404.8 278.6 L 406.6 279.2 L 405.2 283.1 L 406.6 287.2 L 412.9 291.9 L 411.9 296.0 L 413.5 297.9 L 424.5 306.4 L 427.2 306.1 L 432.1 297.7 L 428.6 293.7 L 431.2 289.5 L 440.0 301.8 L 440.0 305.5 L 437.8 303.1 L 435.4 301.5 L 427.6 309.1 L 427.7 311.2 L 428.3 313.0 L 430.7 314.8 Z M 275.8 136.5 L 278.6 131.2 L 281.0 134.6 L 279.2 138.5 Z "/><path class="context-sand" fill-rule="evenodd" d="M 286.7 92.2 L 294.5 87.4 L 307.2 82.0 L 352.3 59.1 L 351.6 62.2 L 293.2 95.3 L 272.8 108.8 L 261.2 116.1 L 220.9 139.4 L 221.8 141.0 L 220.1 142.1 L 192.2 155.9 L 187.4 147.8 L 191.2 145.3 L 205.3 134.4 L 220.3 127.3 L 224.8 123.6 L 235.9 116.8 L 252.5 108.9 L 264.6 101.4 L 280.8 95.0 Z M 0.0 256.5 L 14.7 247.5 L 32.5 234.2 L 51.7 221.0 L 62.0 215.6 L 89.4 199.2 L 109.0 188.2 L 138.0 175.5 L 187.4 147.8 L 192.2 155.9 L 147.4 180.1 L 80.4 217.9 L 16.6 254.7 L 13.8 259.2 L 0.0 268.8 Z "/><path class="context-building" fill-rule="evenodd" d="M 343.0 224.9 L 345.2 224.7 L 345.9 231.6 L 345.2 231.6 L 345.3 233.2 L 342.8 233.4 L 342.6 231.5 L 341.5 231.6 L 341.4 230.5 L 339.9 230.6 L 339.2 223.0 L 342.7 222.3 ZM 343.7 229.7 L 344.4 229.3 L 343.7 229.0 ZM 342.5 230.8 L 343.3 231.1 L 342.9 230.0 L 342.5 230.2 Z M 382.1 292.7 L 383.5 294.0 L 371.1 305.7 L 364.5 298.5 L 372.4 291.0 L 368.8 287.4 L 368.7 283.7 L 379.0 273.9 L 375.2 270.1 L 373.9 271.3 L 368.7 266.1 L 370.1 264.8 L 366.0 260.1 L 372.3 254.5 L 389.5 273.2 L 384.1 278.2 L 390.5 284.4 Z M 413.8 290.0 L 406.8 284.1 L 410.4 279.9 L 417.3 285.9 Z M 406.5 116.1 L 409.0 115.9 L 410.8 127.0 L 405.7 128.0 L 405.5 127.1 L 404.6 127.3 L 404.4 126.3 L 403.5 126.5 L 403.3 125.5 L 402.5 125.6 L 401.9 121.8 L 403.5 121.5 L 402.5 117.4 L 402.8 116.9 Z M 411.4 77.1 L 406.4 76.9 L 406.7 68.7 L 411.8 68.9 Z M 380.4 120.9 L 370.6 123.4 L 370.3 122.2 L 374.6 120.4 L 374.3 119.4 L 373.5 119.4 L 374.2 119.2 L 373.9 118.1 L 373.2 118.1 L 373.8 117.9 L 373.5 116.8 L 372.8 116.9 L 373.5 116.6 L 373.2 115.6 L 372.4 115.6 L 373.1 115.4 L 372.8 114.2 L 372.0 114.3 L 372.7 114.1 L 372.0 111.7 L 371.3 111.8 L 372.0 111.6 L 371.6 110.4 L 370.1 110.8 L 368.3 104.2 L 369.0 103.5 L 369.7 103.3 L 369.9 103.9 L 376.4 102.1 L 376.1 101.1 L 378.8 100.4 L 379.3 102.2 L 380.5 102.0 L 379.3 97.9 L 380.3 97.6 L 379.8 95.7 L 382.8 94.8 L 384.2 95.4 L 385.5 96.9 L 385.5 100.7 L 384.5 100.9 L 385.9 106.4 L 385.3 107.1 L 382.2 107.9 L 383.3 112.2 L 384.5 112.0 L 385.1 114.6 L 384.5 115.5 L 383.0 115.9 L 383.3 117.3 L 383.1 118.0 L 379.9 119.2 Z M 412.3 106.5 L 408.8 107.5 L 408.2 105.2 L 411.6 104.2 Z M 423.1 119.9 L 421.8 120.0 L 421.6 117.7 L 422.9 117.6 Z M 301.5 111.3 L 302.3 110.7 L 306.9 108.4 L 306.1 107.2 L 309.4 105.1 L 309.5 106.1 L 310.5 106.0 L 310.8 108.8 L 309.3 109.7 L 310.0 111.0 L 307.5 112.5 L 306.8 111.3 L 303.1 113.6 L 303.6 114.5 L 302.5 115.1 L 302.0 114.2 L 300.7 115.1 L 298.5 111.4 L 300.7 110.0 Z M 293.1 119.9 L 293.0 119.2 L 293.9 119.0 L 294.1 119.7 L 297.7 118.9 L 298.4 121.8 L 299.4 121.5 L 299.7 123.0 L 290.6 124.8 L 289.6 120.7 Z M 348.6 127.3 L 343.7 126.9 L 344.1 120.3 L 349.1 120.6 Z M 358.0 92.4 L 355.3 93.0 L 354.5 89.6 L 357.3 89.0 Z M 292.5 124.7 L 293.5 128.8 L 290.6 129.5 L 289.7 125.6 L 289.4 125.4 Z M 430.9 78.2 L 432.0 83.0 L 417.7 86.1 L 416.7 81.4 Z M 327.9 132.9 L 324.6 132.2 L 325.2 129.6 L 328.4 130.2 Z M 324.7 110.7 L 324.3 114.2 L 322.1 113.9 L 322.0 114.6 L 319.4 114.3 L 319.5 113.6 L 317.4 113.3 L 317.8 109.8 Z M 414.1 92.9 L 416.9 92.3 L 417.6 95.4 L 412.1 96.6 L 410.2 88.1 L 412.9 87.5 Z M 412.9 87.5 L 409.1 88.3 L 407.3 79.8 L 411.1 79.0 Z M 428.7 69.1 L 428.7 74.2 L 422.1 74.2 L 422.1 69.1 Z M 381.1 123.2 L 383.8 122.9 L 383.9 124.5 L 384.4 126.0 L 384.9 127.5 L 385.4 129.0 L 385.9 130.5 L 386.2 131.5 L 384.8 131.9 L 385.4 133.8 L 382.7 134.6 L 383.0 135.8 L 381.4 135.9 L 379.9 136.4 L 378.4 136.9 L 377.0 137.4 L 376.3 136.0 L 374.8 136.5 L 374.4 135.2 L 375.0 135.0 L 374.7 134.1 L 374.2 132.6 L 373.0 129.2 L 375.7 128.3 L 376.7 131.6 L 380.0 130.7 L 379.1 128.0 L 378.6 126.5 L 378.2 123.5 L 379.6 123.1 L 379.8 123.7 Z M 418.3 122.6 L 416.4 122.7 L 416.2 119.3 L 418.1 119.2 Z M 353.6 107.4 L 352.7 107.6 L 352.9 109.1 L 347.5 109.8 L 347.2 107.9 L 344.8 108.3 L 344.4 105.7 L 347.1 105.3 L 346.9 103.9 L 350.6 103.4 L 350.8 105.0 L 353.2 104.6 Z M 137.4 305.4 L 133.7 307.8 L 128.6 300.0 L 132.3 297.6 Z M 191.4 230.7 L 187.8 232.5 L 190.1 237.0 L 186.4 238.9 L 184.0 234.2 L 181.0 235.7 L 179.6 233.0 L 185.4 230.0 L 185.8 230.8 L 190.3 228.5 Z M 197.7 223.1 L 194.2 224.5 L 193.1 221.8 L 196.6 220.4 Z M 254.5 146.6 L 252.7 147.5 L 251.7 145.5 L 253.6 144.6 Z M 154.1 272.9 L 153.2 273.4 L 155.3 277.5 L 151.9 279.2 L 149.0 273.6 L 149.1 272.5 L 150.3 271.9 L 150.6 272.5 L 153.2 271.2 Z M 65.2 291.8 L 62.4 293.2 L 60.9 290.2 L 63.7 288.8 Z M 216.2 301.8 L 217.2 305.6 L 203.3 309.4 L 202.3 305.7 Z M 215.3 286.5 L 199.8 295.6 L 196.9 290.7 L 212.4 281.6 Z M 244.0 187.5 L 240.0 189.8 L 238.8 187.9 L 238.0 188.3 L 239.0 190.1 L 236.4 191.6 L 232.2 184.3 L 239.6 180.0 Z M 186.9 258.9 L 183.3 260.7 L 180.6 255.5 L 184.1 253.6 Z M 237.2 216.5 L 239.5 220.2 L 239.9 221.2 L 238.8 222.6 L 237.2 222.9 L 236.7 222.1 L 234.0 218.6 Z M 185.2 305.9 L 183.1 302.6 L 184.3 301.9 L 185.4 300.8 L 186.5 300.5 L 188.6 303.8 Z M 242.5 197.0 L 240.0 197.9 L 238.7 194.1 L 241.2 193.2 Z M 233.8 274.5 L 226.2 278.5 L 224.3 275.0 L 231.9 271.0 Z M 169.3 247.8 L 171.0 246.9 L 172.4 249.6 L 167.8 252.2 L 165.6 248.1 L 168.6 246.5 Z M 196.2 320.0 L 197.6 318.8 L 198.1 319.4 L 200.0 319.6 L 200.0 320.0 Z M 146.6 257.0 L 148.9 261.4 L 145.8 263.1 L 143.4 258.7 Z M 177.6 264.2 L 174.4 265.9 L 171.5 260.2 L 174.6 258.6 Z M 168.4 278.8 L 170.3 281.7 L 167.5 283.6 L 165.5 280.8 Z M 132.8 272.2 L 128.6 274.6 L 124.9 268.2 L 129.1 265.8 Z M 98.6 280.1 L 95.6 281.6 L 94.0 278.3 L 97.1 276.9 Z M 281.9 238.7 L 285.4 247.9 L 280.4 249.7 L 277.0 240.4 Z M 259.2 238.9 L 257.3 240.0 L 251.8 230.0 L 253.7 229.0 Z M 159.7 301.5 L 156.3 303.4 L 153.5 298.3 L 156.8 296.4 Z M 270.6 235.9 L 267.0 237.5 L 267.6 238.8 L 263.7 240.5 L 262.2 237.0 L 265.4 235.5 L 263.1 230.3 L 267.3 228.5 Z M 160.5 280.7 L 158.8 281.7 L 156.2 277.1 L 157.9 276.2 Z M 75.3 312.4 L 72.8 312.1 L 73.3 307.9 L 75.8 308.1 Z M 59.9 268.7 L 58.4 269.1 L 57.7 268.7 L 56.6 267.0 L 55.5 265.9 L 55.6 265.1 L 54.6 264.4 L 54.9 263.7 L 53.9 263.0 L 53.9 262.1 L 52.8 261.0 L 53.0 260.3 L 50.4 256.7 L 50.9 255.3 L 55.2 253.0 L 56.9 252.7 L 62.4 249.6 L 66.4 246.8 L 67.8 247.3 L 69.9 251.1 L 69.6 251.8 L 70.8 252.8 L 70.7 253.8 L 71.7 254.6 L 71.5 255.3 L 72.5 256.0 L 72.3 256.8 L 73.5 257.9 L 73.9 260.2 L 73.7 261.0 L 73.2 261.5 L 67.5 264.7 L 66.2 262.4 L 63.9 263.6 L 65.1 265.9 Z M 257.6 140.2 L 258.9 143.2 L 254.8 144.9 L 253.6 141.8 Z M 102.7 264.8 L 97.7 267.3 L 96.4 264.7 L 95.7 265.0 L 93.2 260.2 L 98.9 257.3 Z M 246.5 144.1 L 237.1 148.6 L 234.8 143.7 L 244.2 139.2 Z M 191.2 207.3 L 190.8 206.4 L 190.9 205.7 L 191.8 205.2 L 192.6 205.5 L 193.0 206.3 L 195.4 205.0 L 197.1 208.2 L 193.7 210.0 L 193.9 210.6 L 193.8 211.2 L 191.6 212.4 L 189.4 208.3 Z M 152.8 305.5 L 148.4 308.1 L 146.4 304.6 L 150.8 302.0 Z M 128.9 292.6 L 124.9 295.1 L 119.9 287.1 L 123.9 284.6 Z M 82.7 307.2 L 78.4 306.2 L 79.4 302.1 L 83.6 303.1 Z M 158.0 250.7 L 161.0 256.8 L 157.6 258.5 L 154.6 252.3 Z M 215.3 204.2 L 210.0 207.1 L 205.8 199.1 L 211.1 196.3 Z M 257.7 315.7 L 255.8 315.5 L 255.6 319.1 L 250.8 318.7 L 251.1 314.5 L 253.1 314.7 L 253.5 309.4 L 258.1 309.8 Z M 250.6 195.7 L 246.6 197.7 L 244.2 192.7 L 248.2 190.8 Z M 202.1 244.9 L 198.9 246.6 L 197.3 243.6 L 200.5 241.9 Z M 156.4 279.9 L 154.0 281.2 L 153.2 279.6 L 155.5 278.3 Z M 214.8 234.5 L 214.4 233.8 L 215.8 233.0 L 216.2 233.7 L 217.6 232.9 L 219.9 237.3 L 218.3 238.3 L 217.9 237.6 L 216.6 238.4 L 214.5 234.6 Z M 264.0 259.6 L 258.6 262.6 L 255.3 256.8 L 260.7 253.7 Z M 166.6 319.3 L 165.5 320.0 L 162.1 320.0 L 160.1 317.0 L 163.7 314.7 Z M 193.9 220.8 L 190.6 222.6 L 187.5 217.1 L 190.8 215.3 Z M 225.3 225.6 L 227.2 224.4 L 226.8 223.9 L 228.7 222.7 L 229.0 223.3 L 230.2 222.5 L 232.0 225.4 L 231.5 225.7 L 232.4 227.3 L 228.1 230.0 Z M 224.9 281.5 L 220.4 284.0 L 217.5 278.9 L 222.0 276.3 Z M 271.6 290.0 L 270.3 299.1 L 265.5 298.5 L 266.7 289.4 Z M 149.3 244.0 L 146.4 245.5 L 145.4 243.4 L 148.3 241.9 Z M 57.2 309.1 L 53.9 309.0 L 54.2 304.2 L 57.4 304.4 Z M 266.1 272.7 L 263.2 272.3 L 263.8 266.7 L 266.7 267.0 Z M 220.0 191.5 L 222.7 196.4 L 217.8 199.1 L 215.1 194.2 Z M 204.4 215.7 L 200.0 217.8 L 198.1 214.0 L 202.5 211.8 Z M 119.6 267.6 L 115.2 270.0 L 114.0 267.8 L 118.4 265.4 Z M 168.5 272.4 L 170.0 275.3 L 165.2 277.8 L 166.0 279.4 L 163.7 280.5 L 161.4 276.0 Z M 212.1 255.9 L 206.4 258.9 L 200.9 248.4 L 206.7 245.4 Z M 165.6 283.9 L 162.6 285.8 L 161.0 283.3 L 164.1 281.4 Z M 180.2 226.9 L 177.7 228.2 L 176.2 225.1 L 178.7 223.8 Z M 200.8 254.0 L 201.6 256.7 L 202.5 258.3 L 204.6 260.8 L 198.8 264.0 L 198.0 262.5 L 197.8 261.0 L 194.5 256.1 L 194.4 254.6 L 193.0 253.4 L 198.7 250.2 Z M 222.8 299.6 L 218.9 299.4 L 219.0 296.7 L 222.9 296.8 Z M 239.3 171.8 L 234.5 174.4 L 230.0 165.9 L 234.9 163.3 Z M 152.4 295.8 L 150.4 297.0 L 148.7 294.3 L 150.7 293.1 Z M 278.6 270.5 L 278.1 276.5 L 273.7 276.1 L 274.2 270.2 Z M 94.9 285.9 L 92.8 287.2 L 91.0 284.3 L 93.1 283.0 Z M 90.1 293.9 L 86.5 295.6 L 84.5 291.6 L 88.1 289.9 Z M 281.2 257.6 L 277.2 259.9 L 275.5 257.4 L 279.5 254.9 Z M 199.4 237.4 L 194.4 240.0 L 192.7 236.7 L 197.7 234.1 Z M 160.1 207.5 L 160.8 207.9 L 161.4 209.6 L 161.1 210.1 L 161.8 211.5 L 161.8 212.6 L 158.4 214.5 L 158.6 215.0 L 157.8 216.0 L 156.2 216.4 L 155.9 215.8 L 153.6 217.1 L 152.7 215.4 L 152.0 215.7 L 150.5 212.8 L 151.1 212.5 L 150.2 210.8 L 151.1 210.3 L 153.2 208.4 L 153.2 207.5 L 153.9 207.1 L 155.0 208.2 L 158.4 206.4 L 157.9 205.6 L 158.8 205.1 Z M 256.9 267.7 L 255.2 268.7 L 260.3 277.8 L 254.7 280.9 L 249.5 271.5 L 247.9 272.4 L 245.2 267.6 L 254.0 262.6 Z M 210.4 242.0 L 210.1 241.0 L 211.7 239.9 L 212.2 241.0 L 214.1 240.0 L 216.9 245.0 L 216.2 245.7 L 217.0 247.3 L 215.9 247.9 L 215.6 248.7 L 214.7 248.7 L 213.9 249.2 L 212.3 248.6 L 211.2 246.5 L 210.6 246.4 L 210.0 245.8 L 210.3 244.7 L 209.2 242.6 Z M 50.0 264.1 L 51.2 266.2 L 52.3 267.2 L 53.9 271.3 L 50.5 273.1 L 49.5 271.3 L 49.6 270.4 L 48.4 269.3 L 47.2 268.3 L 46.5 265.9 Z M 296.1 150.2 L 297.4 153.2 L 294.3 154.6 L 293.0 151.5 Z M 395.2 194.3 L 396.7 193.6 L 398.9 197.6 L 392.4 201.1 L 389.5 195.7 L 394.5 193.0 Z M 301.9 163.5 L 298.4 164.9 L 297.2 161.7 L 300.8 160.4 Z M 410.9 157.8 L 419.3 154.8 L 421.0 159.6 L 416.2 161.3 L 416.4 161.9 L 412.8 163.2 Z M 270.4 206.7 L 266.6 208.6 L 264.5 204.4 L 266.1 203.5 L 266.5 204.3 L 268.6 203.2 Z M 391.9 200.8 L 390.6 201.5 L 389.5 199.5 L 385.2 201.9 L 383.7 199.2 L 389.2 196.1 Z M 404.3 133.8 L 409.0 134.4 L 407.9 142.2 L 403.3 141.5 Z M 436.0 139.1 L 428.3 141.7 L 426.6 136.4 L 434.2 133.8 Z M 293.7 168.1 L 290.6 169.4 L 289.0 165.5 L 292.0 164.2 Z M 425.5 170.8 L 418.1 174.2 L 415.9 169.6 L 423.3 166.1 Z M 274.7 174.1 L 270.8 175.8 L 267.8 169.2 L 271.7 167.5 Z M 281.9 189.1 L 278.0 190.7 L 275.3 184.0 L 279.2 182.5 Z M 351.9 190.7 L 347.9 194.5 L 344.4 190.8 L 348.4 187.0 Z M 339.9 263.2 L 340.3 269.6 L 336.9 269.8 L 336.5 263.5 Z M 395.9 210.2 L 392.7 212.5 L 389.8 208.3 L 393.1 206.1 Z M 419.8 153.9 L 427.6 150.8 L 429.7 155.9 L 421.9 159.1 Z M 432.0 163.5 L 431.8 162.9 L 433.3 162.4 L 433.5 163.1 L 436.9 162.1 L 438.2 166.7 L 435.2 167.6 L 435.6 168.7 L 433.2 169.4 L 432.9 168.3 L 429.9 169.1 L 428.6 164.5 Z M 408.8 202.1 L 413.9 200.3 L 418.0 211.7 L 412.9 213.5 Z M 430.9 298.3 L 425.6 305.1 L 414.1 296.2 L 415.2 294.8 L 416.0 295.5 L 417.4 293.6 L 419.8 295.4 L 418.8 296.7 L 422.0 299.2 L 425.7 294.3 Z M 407.8 165.3 L 397.3 168.1 L 396.5 165.1 L 397.1 164.9 L 396.3 162.0 L 406.2 159.3 Z M 302.9 166.2 L 304.5 169.9 L 301.3 171.3 L 299.7 167.6 Z M 295.6 174.3 L 292.2 175.8 L 290.7 172.3 L 294.1 170.8 Z M 258.6 177.7 L 252.9 180.6 L 250.4 175.6 L 256.2 172.8 Z M 419.4 186.1 L 419.9 187.1 L 417.6 188.3 L 417.1 187.3 L 415.7 188.0 L 413.8 184.2 L 419.2 181.7 L 421.0 185.3 Z M 401.3 218.5 L 390.3 226.1 L 386.2 219.8 L 397.2 212.3 Z M 310.0 204.0 L 305.6 205.9 L 303.6 201.3 L 307.9 199.4 Z M 316.0 188.3 L 317.3 187.4 L 316.4 186.5 L 318.5 184.3 L 319.9 185.6 L 322.0 183.4 L 319.9 181.5 L 321.9 179.4 L 328.8 185.9 L 319.6 195.9 L 317.8 194.3 L 318.7 193.3 L 314.7 189.7 Z M 288.6 153.5 L 291.0 158.7 L 287.1 160.5 L 284.7 155.3 Z M 272.1 193.8 L 269.0 195.2 L 267.9 192.9 L 271.1 191.5 Z M 339.9 250.1 L 342.0 249.9 L 342.7 255.8 L 340.5 256.1 L 340.7 258.0 L 334.0 258.5 L 332.5 243.1 L 339.0 242.4 Z M 371.0 156.9 L 366.9 158.5 L 365.3 154.5 L 369.3 152.9 Z M 418.9 139.0 L 420.9 145.2 L 414.1 147.5 L 412.0 141.3 Z M 265.7 195.8 L 266.7 195.3 L 267.8 197.6 L 265.3 198.8 L 266.1 200.5 L 263.5 201.8 L 260.3 195.2 L 264.4 193.1 Z M 398.5 146.4 L 401.3 145.5 L 401.7 146.8 L 405.4 145.7 L 407.0 150.9 L 399.6 153.2 L 398.0 148.0 Z M 304.4 195.3 L 300.6 197.2 L 298.7 193.3 L 302.5 191.4 Z M 293.1 182.4 L 289.1 184.3 L 285.9 177.6 L 289.9 175.7 Z M 372.8 168.9 L 374.4 173.3 L 368.2 175.6 L 366.6 171.2 Z M 319.5 149.7 L 320.6 154.4 L 314.2 155.9 L 313.1 151.3 Z M 325.5 174.4 L 320.0 175.8 L 320.4 177.0 L 318.8 177.5 L 317.2 178.5 L 315.4 179.5 L 315.0 178.6 L 314.0 178.8 L 313.6 177.2 L 311.6 177.7 L 311.1 177.5 L 308.9 174.5 L 308.5 173.1 L 313.0 171.7 L 313.7 173.8 L 317.5 172.7 L 315.6 164.2 L 316.3 164.1 L 315.6 161.1 L 321.6 159.5 Z M 345.8 234.8 L 347.2 234.2 L 348.6 234.7 L 349.4 235.8 L 349.3 237.1 L 348.4 238.2 L 347.5 238.5 L 346.0 238.2 L 345.2 236.9 L 345.1 236.1 Z M 266.5 186.5 L 257.4 190.8 L 254.9 185.5 L 264.0 181.2 Z M 279.9 227.2 L 276.4 228.9 L 272.9 222.0 L 276.5 220.2 Z M 302.8 200.3 L 296.9 203.0 L 295.6 200.1 L 292.3 201.6 L 290.4 197.3 L 296.2 194.6 L 298.2 199.0 L 301.5 197.5 Z M 417.3 272.7 L 421.6 277.5 L 418.6 280.2 L 414.3 275.4 Z M 344.1 155.5 L 340.6 156.6 L 339.1 151.8 L 342.6 150.8 Z M 343.3 162.4 L 345.0 168.1 L 335.5 170.8 L 333.9 165.0 Z M 408.3 144.8 L 407.9 143.7 L 409.8 143.1 L 410.2 144.3 L 412.8 143.5 L 414.5 148.7 L 407.0 150.9 L 405.4 145.7 Z M 303.8 235.4 L 304.7 242.6 L 300.5 243.1 L 299.6 236.0 Z M 363.7 305.4 L 353.2 306.7 L 351.0 288.8 L 349.2 289.0 L 347.1 272.6 L 359.5 271.1 Z M 427.3 212.2 L 427.7 213.3 L 429.3 212.7 L 430.2 215.4 L 428.7 215.9 L 429.4 217.9 L 416.7 222.4 L 414.7 216.6 Z M 318.2 267.7 L 320.6 292.8 L 307.6 294.0 L 307.3 290.1 L 310.0 289.9 L 309.8 288.1 L 311.8 287.9 L 309.9 268.4 Z M 372.8 168.9 L 386.1 164.3 L 388.5 171.3 L 375.2 176.0 Z M 264.7 178.2 L 262.6 174.0 L 264.4 173.1 L 266.5 177.3 Z M 435.9 153.2 L 430.4 156.1 L 427.9 151.1 L 433.4 148.3 Z M 440.0 207.6 L 429.4 210.7 L 428.7 208.5 L 440.0 205.2 Z M 298.8 253.6 L 294.9 253.4 L 294.9 249.6 L 295.3 246.3 L 299.2 246.5 L 299.1 247.2 L 301.9 247.3 L 301.8 249.8 L 302.4 249.9 L 302.3 251.6 L 301.7 251.5 L 301.6 253.1 L 298.8 252.9 Z M 426.6 136.4 L 428.3 141.7 L 420.6 144.3 L 418.9 139.0 Z M 355.2 179.6 L 355.7 177.3 L 357.3 175.6 L 357.0 174.9 L 360.5 173.7 L 361.0 173.0 L 365.3 172.1 L 370.8 188.0 L 366.3 189.6 L 366.6 190.6 L 363.4 191.8 L 361.6 186.4 L 356.9 188.0 L 356.7 187.4 L 355.6 187.8 L 355.0 185.9 L 353.7 186.3 L 353.1 184.6 L 352.4 184.2 L 351.8 180.8 Z M 341.9 272.4 L 342.5 279.1 L 338.3 279.4 L 337.8 272.7 Z M 388.4 213.9 L 384.1 216.9 L 381.1 212.6 L 385.5 209.6 Z M 386.7 226.4 L 367.7 238.8 L 361.7 229.5 L 364.0 228.0 L 366.6 232.0 L 383.2 221.1 Z M 440.0 214.5 L 433.6 216.7 L 432.6 214.6 L 440.0 212.1 Z M 278.4 208.0 L 280.0 207.2 L 281.3 209.7 L 275.9 212.6 L 273.6 208.1 L 277.4 206.1 Z M 345.2 261.5 L 345.3 264.4 L 347.9 264.2 L 348.1 267.6 L 345.4 267.8 L 345.6 270.5 L 341.1 270.8 L 340.6 261.8 Z M 378.7 186.6 L 377.1 187.3 L 375.3 183.2 L 376.8 182.5 Z M 298.5 277.9 L 294.1 277.6 L 294.7 269.9 L 299.2 270.2 L 298.9 273.5 L 299.2 274.8 L 298.8 274.8 Z M 413.9 193.0 L 405.0 196.2 L 404.4 193.6 L 403.7 193.9 L 402.1 189.5 L 402.9 189.3 L 402.7 188.7 L 408.6 186.2 L 409.4 187.2 L 408.7 187.4 L 409.2 188.8 L 409.4 189.6 L 410.3 190.4 L 410.0 191.3 L 410.6 191.1 L 411.9 190.1 L 412.9 190.3 Z M 367.3 248.0 L 365.4 250.3 L 362.2 247.8 L 364.0 245.4 Z M 285.2 142.7 L 286.8 146.5 L 282.5 148.2 L 280.9 144.4 Z M 292.7 139.7 L 293.9 142.6 L 290.2 144.1 L 289.0 141.2 Z M 306.2 242.9 L 306.6 246.7 L 300.5 247.4 L 300.1 243.6 Z M 440.0 229.7 L 434.9 231.6 L 434.4 230.2 L 433.1 230.6 L 432.6 228.8 L 432.6 227.4 L 432.0 227.3 L 430.0 221.8 L 440.0 218.3 Z M 288.2 202.5 L 284.7 204.0 L 283.9 202.1 L 279.7 203.9 L 277.5 198.9 L 285.2 195.6 Z M 354.6 310.5 L 356.0 320.0 L 350.5 320.0 L 349.2 311.3 Z M 304.2 141.5 L 307.5 140.3 L 308.7 143.8 L 305.4 144.9 Z M 361.8 163.1 L 347.5 167.0 L 345.5 159.8 L 359.8 155.8 Z M 304.7 204.9 L 306.3 209.7 L 303.0 210.8 L 303.7 212.8 L 300.9 213.8 L 298.6 207.0 Z M 295.6 320.0 L 292.4 319.9 L 292.4 319.1 L 295.7 319.3 L 295.6 320.0 ZM 291.7 320.0 L 290.1 319.8 L 290.2 319.1 L 291.7 319.2 L 291.7 320.0 Z M 297.6 310.5 L 297.1 311.2 L 296.1 311.2 L 295.6 310.4 L 293.9 310.4 L 294.0 308.3 L 293.0 307.5 L 293.1 306.3 L 294.1 305.6 L 294.2 304.1 L 296.4 304.2 L 296.4 303.4 L 296.8 303.0 L 297.5 303.0 L 297.9 303.5 L 297.9 304.3 L 299.6 304.3 L 299.5 305.8 L 299.9 306.5 L 300.3 307.0 L 300.3 308.1 L 299.4 308.6 L 299.3 310.6 Z M 296.1 313.0 L 296.1 317.9 L 289.1 317.9 L 289.1 313.0 Z M 429.0 196.8 L 430.2 201.0 L 419.9 203.5 L 418.8 199.3 Z M 414.0 174.5 L 415.2 174.0 L 416.3 176.1 L 407.2 180.5 L 406.2 178.3 L 407.5 177.6 L 406.2 175.1 L 412.8 171.9 Z M 440.0 188.3 L 435.9 189.7 L 433.2 181.4 L 438.7 179.6 L 437.3 175.2 L 440.0 174.3 Z M 314.6 214.3 L 328.5 213.4 L 328.9 218.6 L 315.0 219.6 Z M 298.1 154.9 L 299.6 158.2 L 296.1 159.8 L 294.6 156.5 Z M 309.2 241.2 L 310.5 256.3 L 308.3 256.5 L 307.0 241.4 Z M 287.9 217.3 L 278.9 221.8 L 276.1 216.2 L 285.1 211.7 Z M 293.8 215.5 L 296.5 221.3 L 289.6 224.6 L 286.8 218.9 Z M 285.9 208.1 L 286.4 206.9 L 287.6 206.3 L 288.8 206.7 L 290.9 205.7 L 292.8 210.5 L 290.1 211.9 L 290.6 212.7 L 289.3 213.4 L 288.9 212.4 L 285.9 213.6 L 284.0 209.2 Z M 246.5 302.1 L 224.4 299.7 L 225.0 294.1 L 247.1 296.4 Z M 261.0 132.0 L 252.9 136.5 L 252.5 135.7 L 253.4 135.2 L 251.9 132.6 L 259.1 128.6 Z M 262.1 128.5 L 262.5 127.6 L 264.7 127.1 L 273.6 122.3 L 278.0 129.4 L 276.1 132.5 L 267.6 137.7 Z M 37.2 308.5 L 38.5 315.6 L 33.5 316.5 L 32.2 309.5 Z M 296.6 191.5 L 290.2 194.1 L 288.2 189.2 L 294.6 186.6 Z M 45.7 307.0 L 47.0 314.4 L 41.9 315.3 L 40.5 308.0 Z M 316.5 241.2 L 318.3 259.1 L 315.2 259.4 L 313.3 241.5 Z M 273.1 316.1 L 272.9 320.0 L 265.9 320.0 L 266.2 315.6 Z M 101.1 231.7 L 103.9 236.8 L 97.6 240.4 L 94.7 235.3 Z M 169.2 226.0 L 166.1 227.6 L 164.3 224.1 L 167.3 222.5 Z M 157.2 227.8 L 160.2 226.2 L 162.7 230.8 L 160.3 232.1 L 161.3 234.0 L 158.9 235.3 L 156.8 231.5 L 158.6 230.5 Z M 149.0 237.4 L 146.8 233.4 L 152.0 230.6 L 154.1 234.7 Z M 137.4 237.9 L 142.0 235.4 L 144.3 239.7 L 139.6 242.1 Z M 124.3 249.7 L 126.8 254.5 L 121.0 257.4 L 118.6 252.6 Z M 141.5 246.7 L 144.8 245.1 L 147.9 251.5 L 144.7 253.1 Z M 109.2 255.1 L 114.6 252.1 L 117.9 258.2 L 112.5 261.1 Z M 221.0 169.8 L 225.5 177.7 L 221.6 180.0 L 217.1 172.0 Z M 204.4 180.9 L 208.9 178.7 L 211.4 183.7 L 206.9 186.0 Z M 108.0 224.9 L 113.0 222.1 L 115.2 226.0 L 110.2 228.8 Z M 128.3 248.6 L 132.1 246.4 L 133.1 248.1 L 135.1 247.0 L 136.6 249.6 L 139.5 248.0 L 142.6 253.6 L 134.0 258.5 Z M 281.1 153.5 L 284.1 160.3 L 280.8 161.7 L 279.8 159.6 L 277.6 160.6 L 275.9 156.8 L 278.1 155.8 L 277.8 154.9 Z M 114.1 314.1 L 129.3 315.4 L 128.9 320.0 L 113.7 318.9 Z M 27.3 306.1 L 29.8 311.6 L 24.3 314.2 L 25.1 316.0 L 21.5 317.7 L 18.1 310.4 Z M 92.4 311.7 L 107.8 313.2 L 107.3 317.9 L 91.9 316.5 Z M 226.5 320.0 L 226.6 320.0 ZM 216.7 320.0 L 216.9 318.9 L 221.3 319.4 L 223.8 320.0 Z M 221.8 307.7 L 245.2 310.3 L 244.7 315.1 L 221.2 312.5 Z M 124.2 275.7 L 120.7 277.5 L 119.1 274.3 L 122.6 272.5 Z M 103.5 282.9 L 108.3 280.6 L 109.9 283.8 L 105.2 286.2 Z M 135.9 268.0 L 137.3 267.2 L 136.0 264.7 L 139.9 262.7 L 142.2 267.1 L 136.9 269.8 Z M 128.4 281.3 L 135.5 277.6 L 137.7 281.7 L 130.6 285.5 Z M 174.8 243.6 L 173.8 241.8 L 172.3 242.8 L 171.3 241.1 L 175.9 238.6 L 177.7 242.0 Z M 166.4 233.0 L 169.5 231.6 L 171.3 235.2 L 168.1 236.7 Z M 228.2 211.4 L 225.2 206.6 L 228.7 204.5 L 231.6 209.3 Z M 202.6 233.5 L 199.7 228.7 L 203.4 226.5 L 206.3 231.3 Z M 251.0 207.3 L 255.2 205.2 L 257.3 209.5 L 253.1 211.5 Z M 248.3 213.9 L 249.6 216.5 L 245.3 218.6 L 244.0 216.1 Z M 291.9 285.0 L 292.3 281.0 L 295.8 281.3 L 295.9 280.1 L 297.2 280.2 L 297.1 281.5 L 300.3 281.7 L 299.9 285.8 L 296.8 285.5 L 296.8 286.2 L 295.3 286.0 L 295.3 285.4 Z M 291.4 287.6 L 300.6 287.9 L 300.5 291.8 L 298.6 291.8 L 298.5 294.1 L 299.9 294.1 L 299.8 298.1 L 290.7 297.8 L 290.8 294.5 L 292.1 294.6 L 292.2 291.0 L 291.3 291.0 Z M 249.0 238.9 L 246.0 240.7 L 243.8 236.9 L 251.9 232.1 L 254.1 235.9 L 252.3 236.9 L 253.6 239.1 L 250.3 241.0 Z M 23.7 272.2 L 24.8 274.3 L 26.6 273.3 L 27.3 274.7 L 29.2 273.7 L 30.4 275.9 L 29.3 276.8 L 28.3 277.0 L 26.2 277.5 L 26.7 278.3 L 24.4 279.6 L 23.5 278.7 L 23.3 278.1 L 21.3 273.5 Z M 14.0 283.5 L 19.7 280.6 L 21.6 284.2 L 15.8 287.1 Z M 237.1 255.8 L 235.8 253.4 L 234.8 252.3 L 234.4 250.8 L 235.6 250.2 L 235.8 249.2 L 236.5 248.8 L 237.4 249.2 L 238.6 248.6 L 241.3 253.6 Z M 201.8 266.9 L 215.3 259.6 L 218.2 265.0 L 204.7 272.3 Z M 148.3 320.0 L 154.5 316.1 L 157.0 320.0 Z M 196.6 272.5 L 200.0 278.4 L 194.3 281.7 L 190.9 275.8 Z M 78.2 269.7 L 78.2 268.4 L 79.1 267.9 L 80.2 268.5 L 81.0 268.1 L 81.7 268.3 L 82.2 269.1 L 83.3 272.3 L 80.8 273.7 L 79.7 272.7 L 79.1 273.0 L 77.4 270.1 Z M 181.9 285.1 L 178.9 287.0 L 176.4 283.0 L 179.5 281.1 Z M 167.0 289.1 L 171.9 286.5 L 174.7 291.8 L 169.8 294.4 Z M 75.8 281.3 L 76.2 280.3 L 77.0 279.8 L 77.9 280.2 L 78.5 279.8 L 79.5 281.5 L 81.2 283.4 L 79.8 284.2 L 80.4 285.1 L 79.2 285.8 L 78.7 284.8 L 75.7 286.6 L 74.3 284.6 L 76.3 283.3 L 75.4 283.3 L 74.9 282.4 L 75.6 282.0 L 75.3 281.6 Z M 66.3 283.1 L 64.1 284.2 L 64.7 285.3 L 62.2 286.6 L 58.9 280.2 L 60.3 279.5 L 59.5 277.9 L 63.8 275.7 L 66.3 280.8 L 65.5 281.3 Z M 57.4 286.8 L 55.6 287.7 L 56.8 290.2 L 55.2 290.9 L 54.1 288.4 L 54.6 288.1 L 52.3 283.3 L 55.1 282.0 Z M 36.6 293.5 L 41.6 290.8 L 43.6 294.5 L 38.6 297.3 Z M 12.0 305.0 L 13.6 308.3 L 6.1 312.0 L 4.5 308.6 Z M 270.7 246.7 L 273.9 252.2 L 266.0 256.7 L 262.8 251.2 Z M 251.5 259.4 L 253.5 262.9 L 251.4 264.1 L 249.5 260.6 Z M 241.5 268.0 L 244.2 272.6 L 239.8 275.3 L 237.1 270.7 Z M 238.1 285.0 L 243.0 285.5 L 242.6 289.7 L 237.7 289.2 Z M 272.7 209.8 L 274.5 213.4 L 271.0 215.2 L 270.0 213.3 L 269.0 213.0 L 269.1 211.6 Z M 141.4 306.9 L 144.0 310.8 L 139.1 314.1 L 136.5 310.1 Z M 48.3 288.5 L 49.6 290.8 L 47.1 292.2 L 45.8 289.9 Z M 227.3 248.6 L 229.1 251.9 L 224.9 254.1 L 223.2 250.7 Z M 174.9 320.0 L 177.6 318.4 L 178.6 320.0 Z M 261.8 228.4 L 258.9 222.1 L 256.0 223.5 L 254.8 220.9 L 262.0 217.6 L 266.1 226.3 Z M 160.2 293.6 L 164.9 290.9 L 167.4 295.3 L 162.7 298.0 Z M 39.8 265.3 L 41.7 269.0 L 38.1 270.8 L 36.2 267.1 Z M 236.5 238.2 L 236.9 239.1 L 238.4 238.3 L 239.6 240.4 L 234.2 243.5 L 232.8 241.0 L 233.9 240.4 L 233.6 239.8 Z M 234.5 195.2 L 227.4 199.2 L 225.1 195.1 L 232.2 191.1 Z M 260.4 215.6 L 256.5 217.8 L 254.5 214.3 L 258.3 212.1 Z M 232.2 139.7 L 236.9 148.9 L 234.7 150.0 L 233.4 149.6 L 233.0 148.8 L 229.2 147.9 L 226.5 142.6 Z M 107.6 295.3 L 108.6 294.8 L 108.2 294.2 L 109.4 293.2 L 110.2 293.1 L 110.6 293.7 L 111.5 293.2 L 110.6 291.6 L 114.7 289.4 L 116.8 293.0 L 118.6 295.6 L 119.3 297.6 L 117.8 298.4 L 118.7 299.9 L 115.9 301.4 L 113.9 297.6 L 110.0 299.8 L 112.8 304.8 L 108.7 307.0 L 107.5 304.7 L 103.6 298.8 L 102.7 296.0 L 106.8 293.8 Z M 90.0 242.6 L 92.9 247.7 L 94.0 248.2 L 94.6 249.3 L 95.2 250.2 L 94.9 251.0 L 92.8 251.9 L 91.9 251.8 L 89.2 253.3 L 85.8 247.4 L 84.6 246.3 L 84.8 245.7 Z M 400.5 51.5 L 400.0 50.7 L 400.2 49.8 L 400.9 49.2 L 401.8 49.2 L 402.6 49.8 L 402.7 50.7 L 402.3 51.5 L 401.4 51.8 Z M 440.0 158.8 L 440.0 161.9 L 439.1 159.1 Z M 332.0 89.8 L 334.0 94.1 L 331.4 95.3 L 329.4 91.0 Z M 299.4 102.8 L 305.2 99.4 L 307.0 102.6 L 301.2 105.9 Z M 289.5 134.2 L 293.8 134.9 L 294.7 137.4 L 288.4 139.9 L 286.6 135.4 Z M 404.4 171.7 L 400.9 172.9 L 400.2 171.0 L 403.8 169.8 Z M 412.2 169.0 L 404.4 171.7 L 403.5 169.0 L 411.3 166.3 Z M 425.8 126.8 L 427.6 133.0 L 425.7 133.5 L 426.1 135.1 L 421.3 136.5 L 419.1 128.8 Z M 294.8 144.4 L 295.6 146.5 L 296.7 147.6 L 295.1 148.3 L 292.3 148.9 L 291.2 146.0 Z M 130.3 229.5 L 127.3 231.1 L 124.6 226.2 L 127.7 224.5 Z M 188.3 184.7 L 189.4 184.1 L 191.0 187.4 L 190.0 187.9 L 177.3 195.4 L 177.8 196.3 L 178.7 195.7 L 179.1 196.4 L 179.6 197.5 L 178.6 196.7 L 179.6 199.7 L 171.1 204.3 L 171.6 205.2 L 171.0 206.4 L 170.0 207.0 L 170.3 207.6 L 166.3 209.7 L 165.2 207.6 L 161.5 209.6 L 160.8 208.2 L 164.4 206.3 L 160.9 199.9 L 159.7 200.4 L 158.8 197.5 L 158.9 194.7 L 159.3 193.1 L 161.1 190.4 L 163.1 188.8 L 162.7 188.1 L 164.3 187.2 L 164.7 187.9 L 166.3 190.4 L 168.0 189.9 L 170.0 190.0 L 171.7 190.7 L 173.2 192.1 L 174.8 191.2 L 175.1 191.8 L 182.0 188.0 L 179.2 183.0 L 179.0 181.7 L 179.4 180.3 L 180.1 179.3 L 183.7 177.3 L 184.3 178.3 L 184.7 178.1 Z M 69.5 300.8 L 63.8 302.6 L 64.8 309.9 L 62.3 310.7 L 61.1 302.5 L 59.5 299.8 L 62.0 299.0 L 63.0 298.3 L 67.3 297.4 L 68.3 296.7 L 71.3 296.1 Z M 101.1 286.8 L 98.5 288.5 L 95.9 284.6 L 98.5 282.8 Z M 80.9 290.0 L 80.3 291.0 L 81.2 291.4 L 80.4 293.4 L 80.2 295.2 L 78.4 298.9 L 75.1 297.5 L 73.8 300.6 L 71.9 299.8 L 74.5 293.2 L 75.5 293.6 L 77.5 288.7 Z M 5.3 293.6 L 0.8 296.3 L 0.0 294.9 L 0.0 290.5 L 2.6 289.0 Z M 152.6 287.7 L 147.7 290.6 L 145.0 285.9 L 149.9 283.1 Z M 287.2 173.4 L 283.7 174.8 L 281.8 170.1 L 285.3 168.7 Z M 266.4 153.8 L 262.6 155.9 L 257.9 159.1 L 257.2 158.6 L 257.0 157.6 L 256.0 158.0 L 255.3 156.6 L 256.1 156.0 L 255.7 155.3 L 255.2 154.3 L 255.8 153.4 L 256.6 153.0 L 257.3 153.2 L 257.4 152.3 L 259.1 151.4 L 259.4 152.0 L 260.0 151.1 L 260.8 150.7 L 261.5 150.9 L 264.1 149.5 Z M 371.8 222.6 L 370.9 221.2 L 372.7 220.0 L 373.6 221.4 Z M 378.7 214.2 L 379.4 214.3 L 380.6 216.1 L 380.4 216.9 L 375.5 220.1 L 373.7 217.4 Z M 382.8 198.8 L 384.2 202.7 L 381.2 204.5 L 380.4 202.9 L 381.5 202.2 L 380.6 199.5 Z M 285.4 247.9 L 286.1 249.3 L 280.6 251.9 L 279.9 250.5 Z M 307.1 272.2 L 303.2 272.5 L 302.3 261.4 L 306.2 261.1 Z M 350.1 202.0 L 348.3 199.6 L 351.6 196.8 L 352.5 197.7 L 354.4 196.9 L 359.4 208.5 L 361.3 208.4 L 363.2 209.6 L 375.4 202.4 L 378.3 207.3 L 358.5 219.3 L 353.9 211.2 Z M 314.2 194.8 L 309.1 190.5 L 310.0 189.4 L 310.4 188.1 L 309.8 187.6 L 310.3 187.1 L 304.7 182.3 L 308.2 178.3 L 316.9 186.0 L 316.4 186.5 L 317.3 187.4 L 314.7 189.7 L 317.0 191.7 Z M 70.7 245.2 L 71.8 243.4 L 72.9 242.8 L 75.4 243.1 L 76.1 243.6 L 78.6 248.5 L 81.3 247.1 L 82.1 248.6 L 83.8 247.8 L 87.5 255.0 L 83.7 257.0 L 81.0 251.7 L 75.4 254.5 Z M 86.1 265.4 L 89.5 263.6 L 89.5 263.0 L 91.3 262.6 L 95.7 270.5 L 92.2 272.4 L 91.0 270.3 L 89.2 271.2 Z M 214.6 210.9 L 221.3 207.5 L 224.7 214.2 L 218.0 217.6 Z M 432.2 69.2 L 432.1 72.8 L 428.7 72.8 L 428.7 69.1 Z M 415.8 95.8 L 421.5 94.5 L 421.8 96.4 L 416.3 97.7 Z M 26.3 297.7 L 28.2 301.0 L 24.0 303.5 L 22.1 300.2 Z M 43.8 295.5 L 44.7 297.2 L 43.2 298.0 L 44.0 299.6 L 40.4 301.5 L 38.7 298.2 Z M 38.2 300.6 L 30.6 304.2 L 29.3 301.5 L 36.9 297.9 Z M 146.8 217.0 L 148.7 220.5 L 146.2 221.9 L 144.3 218.4 Z M 355.5 241.4 L 353.8 242.7 L 352.8 244.4 L 351.4 250.0 L 348.0 249.2 L 349.9 241.2 L 351.6 238.7 L 353.1 238.4 Z M 332.1 239.5 L 338.6 238.8 L 339.0 242.4 L 332.5 243.1 Z M 351.7 229.5 L 350.6 228.9 L 350.5 227.7 L 351.5 226.9 L 352.3 227.0 L 352.9 227.7 L 352.8 228.9 Z M 357.6 237.0 L 356.5 236.4 L 356.4 235.2 L 357.4 234.4 L 358.3 234.5 L 358.8 235.2 L 358.7 236.4 Z M 343.8 219.7 L 344.9 219.0 L 345.8 219.0 L 347.8 221.1 L 348.3 222.1 L 347.7 223.7 L 345.0 224.0 L 344.1 223.7 L 345.3 221.8 L 344.0 220.8 Z M 350.6 215.4 L 349.6 214.8 L 349.5 213.6 L 350.5 212.8 L 351.3 213.0 L 351.9 213.6 L 351.7 214.9 Z M 327.4 210.9 L 325.4 210.9 L 323.1 208.1 L 324.8 206.3 L 325.5 206.0 L 326.4 206.2 L 327.4 207.4 Z M 440.0 317.8 L 438.2 319.6 L 437.1 318.5 L 432.1 313.4 L 437.5 308.1 L 440.0 310.5 Z M 189.4 278.9 L 191.7 283.0 L 187.7 285.3 L 185.4 281.2 Z M 184.0 278.9 L 180.0 272.1 L 185.1 269.2 L 189.0 276.0 Z M 119.3 237.0 L 111.9 241.2 L 108.2 234.7 L 115.6 230.5 Z M 397.4 204.0 L 401.8 211.0 L 399.4 212.5 L 395.0 205.5 Z M 357.7 240.1 L 355.9 241.5 L 353.8 238.9 L 355.5 237.4 Z M 382.5 65.4 L 390.0 85.5 L 388.0 86.3 L 380.5 66.1 Z M 308.1 92.4 L 309.0 93.9 L 303.1 97.3 L 302.2 95.8 Z M 324.2 102.3 L 317.4 104.8 L 316.5 102.5 L 323.3 100.0 Z M 282.8 116.1 L 284.1 118.5 L 280.2 120.7 L 278.9 118.2 Z M 364.1 60.4 L 365.0 61.9 L 359.1 65.3 L 358.2 63.7 Z M 350.7 79.8 L 344.8 82.9 L 342.7 79.0 L 348.6 75.9 Z M 404.4 66.4 L 404.9 61.7 L 411.1 42.9 L 421.4 44.8 L 426.3 46.7 L 432.0 47.0 L 433.4 35.9 L 440.0 33.4 L 440.0 57.3 L 435.8 57.3 L 418.4 55.3 L 415.3 66.1 Z M 11.8 294.7 L 10.0 291.3 L 8.5 289.1 L 7.0 285.6 L 8.5 284.8 L 8.2 284.2 L 9.9 283.3 L 11.5 286.3 L 9.8 287.2 L 10.7 288.8 L 12.3 287.9 L 12.8 288.9 L 11.2 289.8 L 12.1 291.4 L 13.8 290.5 L 15.1 293.0 Z M 25.3 270.7 L 29.2 268.6 L 30.1 269.8 L 30.3 270.7 L 32.2 274.2 L 30.1 275.4 L 29.2 273.7 L 27.3 274.7 L 26.6 273.3 L 24.8 274.3 L 23.7 272.2 L 25.6 271.2 Z M 81.4 236.2 L 82.7 235.3 L 84.3 235.0 L 85.9 235.0 L 86.8 234.4 L 89.9 239.7 L 88.7 240.4 L 90.0 242.6 L 84.8 245.7 L 83.5 243.4 L 80.7 245.0 L 77.7 239.7 L 80.5 238.0 Z M 218.2 246.3 L 219.4 245.5 L 220.7 248.0 L 219.1 248.8 L 218.4 247.7 L 218.5 246.9 Z M 223.1 238.6 L 225.6 242.9 L 221.0 245.5 L 218.5 241.2 Z M 197.1 304.9 L 197.8 304.5 L 198.8 304.4 L 199.5 304.8 L 201.3 305.1 L 201.5 308.7 L 201.8 310.8 L 195.6 311.0 L 195.6 309.9 L 194.5 309.9 L 194.4 305.4 L 197.1 305.2 Z M 357.0 192.6 L 358.0 192.1 L 358.9 194.0 L 357.8 194.5 Z M 369.9 174.4 L 371.4 178.7 L 375.1 188.7 L 372.8 189.4 L 368.1 175.1 Z M 362.3 193.3 L 362.6 194.2 L 359.1 196.2 L 358.6 195.0 Z M 368.1 192.1 L 369.6 194.6 L 366.3 196.7 L 364.7 194.2 Z M 363.6 194.9 L 365.1 197.4 L 358.0 201.6 L 357.4 200.3 L 359.8 198.9 L 359.4 197.4 Z M 365.7 198.2 L 367.4 201.2 L 359.8 205.8 L 358.5 202.7 Z M 368.0 202.2 L 369.8 205.0 L 364.0 208.5 L 360.5 207.5 L 360.3 206.9 Z M 343.8 219.7 L 344.0 220.8 L 345.3 221.8 L 344.1 223.7 L 343.6 223.0 L 343.3 220.5 Z M 433.4 201.8 L 434.9 206.8 L 432.1 207.5 L 430.7 202.6 Z M 286.4 119.2 L 287.1 118.6 L 290.7 118.2 L 291.2 120.3 L 289.6 120.7 L 290.6 124.8 L 287.9 125.4 Z M 295.4 138.1 L 294.7 135.3 L 297.9 134.6 L 300.8 135.1 L 301.0 137.0 Z M 372.3 191.2 L 374.2 191.3 L 375.3 192.3 L 376.1 194.6 L 376.0 195.5 L 375.4 196.3 L 368.6 200.4 L 366.8 197.6 L 371.4 194.8 L 370.0 192.6 Z M 81.1 280.6 L 83.1 284.1 L 81.7 284.9 L 79.9 281.3 Z M 70.7 304.8 L 79.2 308.3 L 79.0 312.0 L 74.3 311.6 L 74.3 313.5 L 70.2 313.3 Z M 184.8 217.7 L 180.7 219.8 L 179.6 217.7 L 178.1 215.7 L 182.6 213.3 Z M 391.2 109.4 L 391.7 112.4 L 390.0 112.7 L 389.4 109.7 Z "/><path class="context-major-road" fill-rule="evenodd" d="M 295.5 229.9 L 297.8 226.5 L 300.7 223.5  M 276.8 238.6 L 280.8 236.2 L 290.7 231.5 L 295.5 229.9  M 204.8 282.5 L 276.8 238.6  M 325.9 196.7 L 337.5 183.6  M 74.6 320.0 L 62.1 319.0 L 54.3 319.1 L 48.7 320.0  M 172.1 299.6 L 204.8 282.5  M 300.7 223.5 L 308.0 216.9 L 310.6 214.2  M 398.2 187.0 L 388.7 160.4  M 142.9 320.0 L 154.9 312.4 L 172.1 299.6  M 283.0 320.0 L 289.6 258.9 L 290.7 246.5 L 292.3 238.2 L 295.5 229.9  M 411.5 225.8 L 407.4 214.5 L 398.2 187.0  M 440.0 298.6 L 435.4 290.2 L 432.3 283.7 L 427.1 270.1 L 417.8 243.6  M 417.8 243.6 L 411.5 225.8  M 337.5 183.6 L 342.9 178.6 L 347.9 174.6 L 352.9 171.6 L 385.5 159.8 L 387.0 159.6 L 388.7 160.4  M 315.6 207.8 L 325.9 196.7  M 310.6 214.2 L 315.6 207.8  "/><path class="context-road" fill-rule="evenodd" d="M 388.7 160.4 L 394.2 158.4  M 332.3 223.0 L 332.0 233.9 L 332.5 235.5 L 333.6 236.9 L 335.0 237.6 L 337.1 237.7  M 87.0 320.0 L 87.0 316.4 L 87.7 307.7 L 88.6 304.9 L 90.1 302.1 L 93.5 298.5 L 97.9 295.5 L 116.0 284.9 L 205.5 236.3 L 209.1 233.8 L 218.8 224.9 L 239.6 210.3 L 256.9 200.2  M 167.3 214.6 L 204.8 282.5  M 182.8 320.0 L 183.2 316.2  M 217.4 148.4 L 211.6 155.4 L 86.3 228.1 L 6.5 276.4 L -0.0 280.7  M 321.6 136.2 L 292.7 132.5 L 288.9 132.8 L 283.3 134.2  M 402.7 200.2 L 417.1 196.3  M 407.4 214.5 L 392.4 260.9  M 391.2 289.0 L 396.8 295.4 L 399.2 300.6 L 399.1 302.9 L 399.4 306.8  M 375.1 312.3 L 372.5 316.1 L 370.8 320.0  M 440.0 170.6 L 429.5 173.6  M 337.1 237.7 L 338.6 237.2 L 339.9 236.0 L 339.9 235.0 L 338.5 229.4 L 336.9 225.4  M 283.3 134.2 L 282.8 131.9 L 274.3 114.0  M 283.3 134.2 L 272.5 156.7 L 269.0 159.7 L 244.6 172.8  M 283.3 134.2 L 287.2 144.8 L 306.3 188.4 L 315.6 207.8  M 244.6 172.8 L 246.0 176.3 L 256.9 200.2 L 271.3 228.7 L 276.8 238.6  M 398.8 44.9 L 440.0 26.6  M 244.6 172.8 L 167.3 214.6 L 99.7 253.6  M 300.7 223.5 L 272.5 156.7  M 99.7 253.6 L 116.0 284.9 L 124.7 298.9 L 138.7 320.0  M 321.6 136.2 L 333.0 174.6 L 334.7 179.1 L 335.9 181.4 L 337.5 183.6  M 436.4 80.2 L 437.4 88.0 L 435.2 91.3 L 421.9 97.1 L 413.8 101.6 L 405.6 102.8 L 398.6 106.7  M 274.3 114.0 L 376.2 56.0 L 389.3 49.3 L 398.8 44.9  M 395.9 131.3 L 398.6 106.7 L 400.1 86.4 L 400.8 70.4 L 402.2 62.7 L 403.9 56.7 L 406.6 48.3 L 410.2 39.8  M 297.8 226.5 L 302.1 230.2 L 304.7 229.7 L 311.4 223.1 L 311.9 220.2 L 311.5 217.2 L 310.6 214.2  M -0.0 301.2 L 1.8 305.2  M 80.4 217.9 L 86.3 228.1  M 306.0 274.6 L 306.2 279.5 L 305.7 281.9 L 304.2 286.0 L 306.6 316.7 L 307.5 320.0  M 394.2 158.4 L 397.8 157.1  M 321.6 136.2 L 325.1 136.0 L 359.0 140.8 L 365.6 142.5 L 382.3 149.5  M 343.0 200.5 L 343.4 209.3 L 345.0 214.9 L 347.4 217.9 L 352.3 222.1 L 354.2 222.8 L 357.8 221.0 L 361.8 222.3  M 398.6 106.7 L 382.6 63.8  M 432.3 283.7 L 440.0 279.8  M 289.6 258.9 L 282.0 259.0 L 281.9 261.4  M 368.3 168.7 L 378.3 195.3 L 379.0 201.1 L 383.1 208.6  M 440.0 59.1 L 438.8 60.0 L 436.0 65.6 L 436.4 80.2  M 117.3 226.8 L 124.5 239.5  M 114.9 313.0 L 135.1 314.6  M 183.2 316.2 L 200.6 316.0  M 249.1 320.0 L 249.4 314.8  M 258.2 320.0 L 260.9 310.1 L 261.3 299.5  M 200.6 316.0 L 244.0 320.0  M 261.2 302.3 L 284.9 302.7  M 232.1 265.8 L 239.7 278.5  M 86.3 228.1 L 99.7 253.6  M 132.1 294.5 L 138.3 304.6  M 196.6 267.7 L 215.6 257.4  M 124.7 298.9 L 132.1 294.5 L 123.9 280.6  M 212.6 277.7 L 220.0 290.7 L 223.3 292.5 L 247.4 294.6  M 244.6 172.8 L 243.6 169.1 L 235.2 153.3 L 237.8 150.2 L 247.8 145.7  M 235.2 153.3 L 231.1 150.5 L 224.5 149.0 L 215.4 150.8  M 429.5 173.6 L 417.6 178.0 L 398.2 187.0  M 221.1 144.0 L 220.1 142.1  M 266.2 118.9 L 263.8 114.5 L 261.2 116.1  M 381.5 50.6 L 388.4 47.4  M 13.7 298.9 L 1.8 305.2  M 99.7 253.6 L 13.7 298.9  M 1.8 305.2 L -0.0 306.2  M 402.4 277.1 L 425.3 265.1  M 219.5 146.8 L 211.0 153.3 L 207.0 155.8 L 151.9 188.3 L 93.2 221.2 L 85.4 226.5 L -0.0 279.7  M 398.8 44.9 L 397.1 50.1 L 397.2 53.2 L 403.9 56.7  M 383.2 52.4 L 392.7 70.8  M 376.5 52.9 L 377.6 55.2  M 381.5 50.6 L 376.5 52.9  M 389.3 49.3 L 388.4 47.4  M 382.6 63.8 L 383.8 62.6 L 386.5 62.5 L 387.7 61.1  M 440.0 130.7 L 436.9 132.5 L 437.2 134.2  M 437.8 141.7 L 437.2 134.2 L 440.0 132.3  M 397.8 157.1 L 397.3 155.2 L 393.4 146.2  M 324.3 317.2 L 324.6 320.0  M 354.2 222.8 L 355.3 228.2 L 353.6 230.2 L 350.8 230.6 L 348.5 232.8 L 343.9 234.3 L 339.7 234.0  M 440.0 28.1 L 398.3 47.0 L 376.9 57.2 L 274.9 115.4 L 258.0 123.8 L 246.7 131.5 L 222.0 144.8 L 219.5 146.8  M 406.6 48.3 L 402.6 50.0  M 397.2 53.2 L 396.0 55.6 L 394.9 56.2 L 393.4 55.7  M 394.2 56.2 L 394.5 57.1 L 394.4 58.2 L 394.0 58.8 L 393.0 59.2 L 392.1 59.1 L 390.8 58.1  M 391.3 58.7 L 391.2 59.6 L 390.7 60.5 L 387.7 61.1  M 390.8 58.1 L 389.6 56.8 L 385.9 57.4  M 389.6 56.8 L 391.8 54.8 L 393.4 55.7  M 391.8 54.8 L 392.9 54.0 L 394.4 50.7 L 395.5 50.0 L 397.1 50.1  M 392.7 70.8 L 400.1 86.4  M 392.7 70.8 L 386.3 73.7  M 395.8 77.1 L 388.7 80.3  M 379.4 61.9 L 383.6 58.1 L 385.9 57.4  M 382.6 63.8 L 380.0 63.2  M 380.0 63.2 L 376.2 56.0  M 392.7 70.8 L 400.8 70.4  M 381.5 50.6 L 357.9 -0.0  M 417.1 196.3 L 440.0 191.6  M 417.1 196.3 L 415.6 191.6  M 415.3 196.8 L 419.1 208.3 L 428.8 206.1  M 272.5 156.7 L 258.0 123.8  M 382.3 149.5 L 393.4 146.2  M 183.2 316.2 L 172.1 299.6  M 339.9 236.0 L 342.1 242.0 L 343.1 248.5 L 344.0 251.5 L 344.7 253.2 L 346.3 254.8 L 350.8 255.9 L 365.9 258.0  M 262.3 133.6 L 258.1 137.0 L 260.4 142.6 L 264.8 139.1  M 395.9 131.3 L 410.1 132.9 L 416.6 130.4 L 417.2 125.0  M 393.4 146.2 L 395.9 131.3  M 397.8 157.1 L 419.1 150.1 L 428.5 146.3 L 437.8 141.7 L 440.0 140.3  M 337.5 183.6 L 341.7 187.6 L 343.1 190.0 L 343.2 199.6 L 348.9 205.1 L 352.4 209.3 L 357.8 221.0  M 343.2 199.6 L 343.0 200.5  M 351.6 237.1 L 349.4 234.6 L 348.5 232.8 L 347.8 227.6 L 347.9 225.9 L 348.7 224.8 L 352.3 222.1  M 338.2 220.9 L 341.4 220.6 L 342.9 221.4 L 343.7 223.5 L 346.6 224.6 L 348.7 224.8  M 400.5 199.8 L 392.5 177.4 L 387.9 165.3 L 386.9 163.7 L 385.9 163.2 L 384.1 163.0 L 355.0 173.9 L 349.6 177.2 L 345.6 180.3 L 333.4 192.4 L 332.5 193.8 L 332.1 195.8 L 314.6 213.5  M 392.5 177.4 L 390.9 178.1 M 390.9 178.1 L 389.5 177.3 L 387.9 177.1 L 385.9 177.1 L 383.7 177.7 L 382.1 178.5 L 381.2 179.5 L 380.8 180.6 L 380.7 182.2 L 381.5 184.6 L 382.7 186.4 L 384.2 187.5 L 387.0 188.1 L 389.2 187.8 L 390.6 186.6 L 391.3 184.6 L 391.5 182.2 L 390.9 178.1  M 386.7 184.2 L 385.2 183.5 L 384.9 182.4 L 386.3 180.8 L 387.3 181.0 L 388.0 181.7 L 388.0 183.3 L 386.7 184.2  M 381.6 179.0 L 385.1 181.7  M 383.7 187.1 L 385.7 183.9  M 388.0 183.3 L 391.1 185.3  M 387.0 180.9 L 387.5 177.1  M 331.0 201.1 L 325.9 196.7  M 335.5 201.2 L 343.0 200.5  M 336.9 225.4 L 335.9 221.1 L 335.5 201.2 L 331.0 201.1  M 331.0 201.1 L 332.5 221.2 L 332.3 223.0  M 274.3 114.0 L 266.2 118.9 L 221.1 144.0 L 217.4 148.4  M 148.6 182.3 L 151.5 187.5  M 151.5 187.5 L 152.6 189.4  M 148.6 182.3 L 147.4 180.1  M 332.5 221.2 L 338.2 220.9  M 430.8 310.1 L 436.1 305.2 L 440.0 309.4  M 440.0 257.0 L 435.5 259.1 L 440.0 269.3  M 361.8 222.3 L 389.9 204.4 L 393.1 203.3 L 400.5 199.8 L 402.7 200.2  M 359.0 230.6 L 356.8 231.4 L 355.2 232.7 L 353.4 235.3 L 350.4 238.3 L 347.9 239.8 L 342.1 242.0  M 355.3 228.2 L 359.0 230.6 L 370.7 248.0  M 392.7 175.8 L 392.0 176.0  M 395.7 174.8 L 392.7 175.8  M 318.5 202.7 L 318.0 202.3  M 321.1 205.2 L 318.5 202.7  M 322.0 206.0 L 321.1 205.2  M 336.6 189.4 L 335.7 188.6  M 333.1 186.1 L 332.2 185.2  M 335.7 188.6 L 333.1 186.1  M 338.9 174.8 L 335.0 173.5 L 332.6 173.5  M 338.3 179.2 L 338.9 174.8 L 342.2 172.8 L 345.7 173.2  M 327.6 156.0 L 307.6 161.4 L 311.1 171.8  M 341.4 161.4 L 330.0 164.6  M 321.6 136.2 L 320.0 130.6 L 312.1 117.4  M 280.4 140.6 L 275.4 137.7  M 299.7 221.2 L 305.6 216.0 L 314.7 206.0 L 322.4 197.3 L 323.2 194.7 L 329.9 187.4 L 335.9 181.4 L 343.4 174.6 L 352.6 168.6 L 361.5 165.9 L 364.1 164.6 L 396.5 153.3  M 425.8 270.9 L 429.7 269.3  M 440.0 163.7 L 436.3 152.4 L 432.2 144.4  M 437.4 88.0 L 440.0 87.1  "/><path class="context-rail" fill-rule="evenodd" d="M 318.6 226.4 L 327.5 320.0  M 335.1 320.0 L 335.2 316.7 L 334.1 304.3 L 325.9 225.8  M 323.2 226.0 L 323.7 231.1  M 323.7 231.1 L 332.3 320.0  "/><path class="context-coastline" fill-rule="evenodd" d="M 440.0 17.0 L 428.3 21.5 L 400.1 33.5 L 356.8 56.0 L 352.3 59.1 L 328.3 71.0 L 317.7 76.7 L 307.2 82.0 L 294.5 87.4 L 286.7 92.2 L 280.8 95.0 L 264.6 101.4 L 252.5 108.9 L 235.9 116.8 L 224.8 123.6 L 220.3 127.3 L 205.3 134.4 L 191.2 145.3 L 187.4 147.8 L 138.0 175.5 L 109.0 188.2 L 89.4 199.2 L 62.0 215.6 L 51.7 221.0 L 32.5 234.2 L 14.7 247.5 L -0.0 256.5  "/></g><circle class="place-focus-ring" cx="220.0" cy="160.0" r="22"/><path class="place-focus" d="M 220.0 152.0 l 8 8 -8 8 -8 -8 Z"><title>Рыба Агонь</title></path></svg>