<svg xmlns="http://www.w3.org/2000/svg" class="route-diagram place-diagram" viewBox="0 0 440 320" width="440" height="320" role="img" aria-labelledby="title-card-image-yandex-172491090348" data-focus-lon="20.452147" data-focus-lat="54.953938" data-projection-coords="[[20.452147,54.953938]]" data-theme="day"><title id="title-card-image-yandex-172491090348">SPA: берег и улицы рядом</title><style>
.route-context { --context-sea:#d0e1e9;--context-land:#f3f3ec;--context-green:#e2e9dd;--context-sand:#ece3d1;--context-water:#c8dee8;--context-road:#d8dcd8;--context-major:#c3cdd0;--context-coast:#a9c2ce;--context-rail:#c5cac5; }
.context-sea { fill:var(--context-sea); }
.context-land { fill:var(--context-land); }
.context-green { fill:var(--context-green); }
.context-sand { fill:var(--context-sand); }
.context-water { fill:var(--context-water); }
.context-building { fill:var(--context-building,#dde0d9);stroke:var(--context-building-line,#ccd3d0);stroke-width:.3px; }
.context-road,.context-major-road,.context-rail,.context-coastline,.context-waterline { fill:none;stroke-linecap:round;stroke-linejoin:round; }
.context-road { stroke:var(--context-road);stroke-width:.65px; }
.context-major-road { stroke:var(--context-major);stroke-width:1.4px; }
.context-rail { stroke:var(--context-rail);stroke-width:.7px;stroke-dasharray:2 3; }
.context-coastline { stroke:var(--context-coast);stroke-width:1px; }
.context-waterline { stroke:var(--context-water);stroke-width:2px; }
:root[data-theme=night] .route-context { --context-sea:#152f42;--context-land:#26343a;--context-green:#2a3b39;--context-sand:#393b36;--context-water:#1e4255;--context-road:#34434b;--context-major:#43545d;--context-coast:#426075;--context-rail:#3a484d; }
:root[data-theme=night] .route-context { --context-building:#35464d;--context-building-line:#42535b; }
.place-focus-ring { fill: #c9b08a; fill-opacity: .17; stroke: #ad865b; stroke-width: .7px; }
.place-focus { fill: #9d703f; stroke: #f7f5ef; stroke-width: 2px; }</style><defs><clipPath id="context-card-image-yandex-172491090348"><rect width="440" height="320" rx="3"/></clipPath></defs><g class="route-context" aria-hidden="true" clip-path="url(#context-card-image-yandex-172491090348)" data-source="OpenStreetMap" data-snapshot="2026-10-01"><rect class="context-sea" width="440" height="320"/><path class="context-land" fill-rule="evenodd" d="M 440.0 0.0 L 440.0 320.0 L 0.0 320.0 L 0.0 230.3 L 5.0 228.4 L 15.2 221.8 L 38.5 211.1 L 64.8 201.6 L 90.2 191.9 L 145.1 164.9 L 192.3 137.4 L 235.5 110.4 L 246.6 106.5 L 276.0 85.4 L 318.0 56.6 L 354.6 41.2 L 391.7 21.6 L 412.4 5.2 L 426.1 0.0 Z"/><path class="context-green" fill-rule="evenodd" d="M 2.9 269.9 L 14.4 296.2 L 13.0 313.8 L 19.2 318.8 L 18.4 320.0 L 0.0 320.0 L 0.0 271.1 Z M 178.4 185.7 L 128.6 213.0 L 124.2 205.1 L 174.0 177.7 Z M 172.8 178.4 L 124.2 205.1 L 120.5 198.3 L 168.3 170.1 Z M 67.0 223.7 L 75.2 240.1 L 61.9 246.8 L 17.9 261.0 L 12.8 244.7 L 59.6 227.3 Z M 119.8 197.3 L 128.6 213.0 L 75.2 240.1 L 67.0 223.7 Z "/><path class="context-sand" fill-rule="evenodd" d="M 415.3 20.2 L 373.6 46.4 L 332.3 70.3 L 290.7 96.8 L 288.6 100.2 L 285.6 99.3 L 266.2 113.4 L 201.9 149.4 L 187.7 159.1 L 177.4 162.3 L 159.4 177.1 L 81.2 218.5 L 38.2 237.9 L 16.7 248.6 L 0.0 252.8 L 0.0 230.3 L 5.0 228.4 L 15.2 221.8 L 38.5 211.1 L 64.8 201.6 L 90.2 191.9 L 145.1 164.9 L 192.3 137.4 L 235.5 110.4 L 246.6 106.5 L 276.0 85.4 L 318.0 56.6 L 354.6 41.2 L 391.7 21.6 L 412.4 5.2 L 426.1 0.0 L 440.0 0.0 L 440.0 3.3 Z "/><path class="context-water" fill-rule="evenodd" d="M 312.3 188.7 L 313.8 191.2 L 313.6 193.9 L 312.0 196.6 L 310.0 197.4 L 307.5 196.7 L 304.6 193.7 L 300.9 193.0 L 299.0 192.0 L 298.7 189.6 L 299.6 186.7 L 302.2 186.3 L 305.0 186.6 Z "/><path class="context-building" fill-rule="evenodd" d="M 180.6 196.6 L 196.7 228.9 L 196.8 238.5 L 192.2 238.5 L 192.2 239.4 L 187.3 239.4 L 187.2 231.6 L 177.5 212.1 L 179.4 211.2 L 178.7 209.6 L 179.8 209.1 L 178.6 206.9 L 169.1 211.6 L 142.5 225.2 L 132.8 229.4 L 133.8 231.5 L 134.8 231.0 L 135.6 232.7 L 136.6 232.3 L 149.1 257.5 L 142.4 260.9 L 130.0 235.8 L 129.4 236.1 L 124.1 225.4 L 124.3 224.7 ZM 152.9 247.7 L 176.7 236.0 L 180.7 244.1 L 156.8 255.8 Z M 330.2 171.0 L 347.8 168.7 L 348.5 174.2 L 330.9 176.5 ZM 352.3 159.0 L 353.5 167.6 L 347.9 168.4 L 346.8 159.7 Z M 375.9 68.1 L 373.1 63.3 L 376.7 61.1 L 379.5 65.9 Z M 281.4 128.5 L 255.7 143.2 L 252.4 137.5 L 278.1 122.8 Z M 409.9 90.9 L 408.4 93.0 L 406.1 91.4 L 407.6 89.3 Z M 315.0 130.4 L 304.4 133.1 L 305.8 140.8 L 297.5 141.6 L 297.8 134.0 L 295.8 133.3 L 301.7 126.5 L 302.2 127.8 L 312.7 123.6 Z M 432.6 81.1 L 427.8 82.5 L 425.7 75.5 L 430.5 74.1 Z M 394.1 80.0 L 395.3 79.3 L 398.7 84.5 L 396.3 86.0 L 397.3 87.5 L 393.3 90.2 L 390.7 86.3 L 389.2 87.4 L 386.9 83.8 L 389.2 82.3 L 388.2 80.8 L 392.7 77.9 Z M 360.9 77.3 L 356.9 79.6 L 354.4 75.4 L 358.4 73.1 Z M 431.6 62.1 L 418.7 73.3 L 413.9 67.8 L 422.2 60.6 L 420.7 58.9 L 425.3 54.9 Z M 387.5 58.5 L 390.2 62.6 L 386.7 64.7 L 385.4 62.8 L 386.2 62.4 L 384.7 60.3 Z M 405.4 40.6 L 407.7 43.8 L 408.2 45.4 L 409.1 44.8 L 410.7 47.0 L 409.7 47.7 L 407.7 49.6 L 405.9 47.3 L 404.2 48.6 L 403.1 47.2 L 400.3 44.2 L 403.4 42.0 L 404.8 40.5 Z M 363.5 92.0 L 365.6 95.9 L 361.2 98.6 L 359.1 94.5 Z M 413.4 73.8 L 410.2 76.5 L 406.6 72.3 L 409.8 69.6 Z M 411.6 42.4 L 409.4 38.9 L 413.0 36.6 L 415.2 40.0 Z M 337.6 93.0 L 332.5 96.0 L 329.4 90.7 L 334.5 87.7 Z M 354.1 119.6 L 348.1 109.7 L 341.3 113.8 L 337.9 108.2 L 351.2 100.2 L 360.6 115.7 Z M 434.6 105.9 L 435.2 110.5 L 430.5 111.2 L 429.8 106.6 Z M 439.0 130.8 L 438.4 135.3 L 434.8 134.9 L 435.3 130.4 Z M 278.0 254.8 L 275.9 254.6 L 276.0 253.0 L 278.2 253.2 Z M 318.0 208.5 L 317.7 223.2 L 311.6 223.1 L 312.0 208.4 Z M 416.1 237.2 L 415.9 242.9 L 404.8 242.5 L 405.0 236.8 Z M 371.4 200.7 L 371.1 206.5 L 357.1 205.7 L 357.4 199.9 Z M 273.8 263.5 L 270.1 263.6 L 269.9 257.5 L 273.6 257.4 Z M 431.9 128.7 L 427.1 128.6 L 427.2 122.5 L 432.1 122.7 Z M 432.0 160.4 L 428.8 160.3 L 428.9 156.4 L 432.1 156.4 Z M 438.4 260.9 L 438.4 266.0 L 427.7 265.9 L 427.7 260.9 Z M 329.6 198.4 L 325.5 198.4 L 325.5 195.4 L 329.5 195.3 Z M 379.0 265.0 L 379.0 267.7 L 376.5 267.8 L 376.4 265.0 Z M 402.4 225.2 L 402.3 230.6 L 390.7 230.3 L 390.9 224.9 Z M 318.2 288.3 L 318.2 287.5 L 319.3 286.5 L 320.7 286.8 L 321.1 287.5 L 321.1 288.3 L 320.1 289.4 L 318.6 289.0 Z M 437.3 150.1 L 432.2 149.7 L 432.9 142.4 L 437.9 142.8 Z M 389.0 258.6 L 389.2 261.0 L 386.6 261.2 L 386.5 258.8 Z M 285.6 270.3 L 285.5 275.1 L 283.7 275.1 L 283.8 270.3 Z M 415.7 249.4 L 415.5 254.6 L 404.2 254.1 L 404.5 248.8 Z M 402.3 237.1 L 402.1 242.3 L 390.9 241.9 L 391.1 236.6 Z M 439.3 125.4 L 435.4 125.1 L 435.8 120.1 L 439.6 120.4 Z M 228.7 211.3 L 231.4 211.2 L 233.8 210.6 L 235.0 211.3 L 241.2 211.2 L 242.5 211.0 L 244.9 210.4 L 247.5 210.9 L 247.6 214.3 L 246.9 214.3 L 246.9 218.7 L 242.7 218.8 L 242.7 216.9 L 242.2 218.8 L 234.4 218.9 L 234.3 217.0 L 233.8 218.9 L 229.6 219.0 L 229.5 214.6 L 228.8 214.6 Z M 403.7 169.5 L 403.2 180.5 L 397.0 180.2 L 397.5 169.2 Z M 389.0 256.4 L 387.2 256.1 L 387.5 254.0 L 389.3 254.3 Z M 415.3 154.9 L 415.2 159.3 L 404.8 159.3 L 404.8 155.2 Z M 352.9 194.5 L 352.9 200.2 L 339.0 200.3 L 339.0 194.6 Z M 410.8 189.8 L 410.6 195.3 L 406.2 195.1 L 406.4 189.7 Z M 336.2 238.6 L 318.6 238.5 L 318.6 227.0 L 336.3 227.1 Z M 416.6 231.0 L 405.5 230.4 L 405.8 224.9 L 416.8 225.5 Z M 233.5 174.9 L 235.8 173.6 L 238.8 171.7 L 240.5 169.9 L 241.5 169.7 L 242.5 168.8 L 244.2 167.7 L 247.6 168.5 L 248.4 169.5 L 248.3 170.1 L 249.0 170.2 L 248.6 172.4 L 249.3 173.4 L 248.7 173.8 L 245.8 176.4 L 245.3 175.8 L 245.5 176.7 L 238.5 181.7 L 238.0 181.0 L 238.1 182.0 L 231.6 186.7 L 231.1 186.0 L 231.2 187.0 L 228.1 189.3 L 223.3 182.8 L 224.9 181.7 L 226.6 179.9 L 228.9 178.5 L 231.9 176.7 L 231.6 176.3 Z M 439.2 255.6 L 427.7 255.3 L 427.9 249.2 L 439.4 249.5 Z M 439.0 244.0 L 427.4 243.7 L 427.6 238.3 L 439.1 238.6 Z M 438.9 231.9 L 427.9 231.8 L 427.9 225.9 L 438.9 226.0 Z M 271.1 244.8 L 268.4 244.9 L 268.4 243.0 L 271.1 242.9 Z M 398.6 213.2 L 398.6 220.1 L 392.7 220.1 L 392.7 213.2 Z M 413.7 126.9 L 415.6 132.4 L 402.2 136.9 L 400.3 131.4 Z M 384.8 141.1 L 388.0 156.7 L 383.2 157.7 L 380.0 142.1 Z M 412.5 111.1 L 414.7 115.0 L 398.0 124.4 L 395.8 120.5 Z M 401.1 99.8 L 404.3 104.7 L 392.6 113.4 L 389.1 108.3 Z M 381.5 121.6 L 383.4 135.7 L 378.0 136.4 L 376.1 122.3 Z M 415.3 141.1 L 416.5 146.4 L 404.3 149.2 L 403.1 143.9 Z M 323.7 246.1 L 323.7 251.7 L 296.8 251.7 L 296.8 246.1 Z M 326.6 255.2 L 326.6 275.1 L 322.6 275.1 L 322.6 255.2 Z M 334.2 246.1 L 354.5 245.5 L 354.6 251.1 L 334.4 251.6 Z M 381.8 245.1 L 381.8 249.9 L 360.8 249.9 L 360.8 245.1 Z M 362.5 258.5 L 362.6 274.6 L 333.2 274.7 L 333.2 258.4 L 339.2 258.4 L 339.2 269.0 L 355.5 268.9 L 355.4 258.6 Z M 302.5 146.6 L 303.6 170.8 L 297.8 171.0 L 296.7 146.9 Z M 437.3 46.7 L 440.0 45.5 L 440.0 51.3 Z M 434.8 24.7 L 437.7 29.7 L 433.6 32.1 L 430.7 27.1 Z M 297.1 261.5 L 297.0 258.4 L 303.7 258.3 L 303.7 261.7 L 302.9 261.7 L 303.0 270.1 L 305.9 270.1 L 311.9 269.6 L 313.6 270.0 L 313.7 275.4 L 312.2 275.4 L 305.7 275.9 L 297.0 275.6 L 296.8 261.5 Z M 379.9 253.0 L 380.1 261.3 L 375.7 261.5 L 375.4 253.1 Z M 322.3 122.6 L 325.8 130.7 L 321.2 132.7 L 317.7 124.6 Z M 427.1 305.1 L 422.3 290.5 L 430.0 288.0 L 434.8 302.6 Z M 361.4 100.7 L 363.9 104.6 L 362.3 105.6 L 359.8 101.7 Z M 379.2 89.8 L 375.9 91.9 L 373.7 88.7 L 377.1 86.5 Z M 424.5 112.8 L 418.9 112.9 L 418.9 105.6 L 424.4 105.5 Z M 437.5 89.6 L 437.6 90.3 L 434.1 90.7 L 434.0 90.1 L 429.1 90.7 L 429.2 91.4 L 425.7 91.9 L 425.6 91.2 L 423.0 91.5 L 422.8 90.2 L 422.4 89.2 L 422.4 86.5 L 439.5 84.2 L 439.8 86.4 L 440.0 89.2 Z M 284.0 126.8 L 279.7 119.6 L 296.2 109.7 L 300.5 116.8 Z M 332.4 150.2 L 332.5 153.9 L 331.9 155.8 L 331.1 156.7 L 322.9 158.3 L 322.2 153.2 L 327.5 152.1 L 326.7 144.7 L 331.7 144.1 Z M 346.3 149.6 L 343.4 150.1 L 342.9 147.2 L 345.8 146.6 Z M 326.1 176.7 L 319.6 177.0 L 319.4 171.8 L 313.8 172.1 L 313.5 165.5 L 323.1 165.0 L 324.8 166.0 L 325.7 167.5 Z M 367.9 128.8 L 370.4 134.4 L 362.8 137.8 L 360.4 132.2 Z M 419.9 172.7 L 434.1 173.3 L 434.2 177.5 L 420.3 176.7 Z M 412.2 306.7 L 404.3 306.8 L 404.1 291.5 L 412.1 291.4 Z M 326.9 116.3 L 329.4 122.5 L 325.3 124.2 L 322.8 117.9 Z M 331.5 131.7 L 330.5 128.8 L 333.1 127.9 L 335.3 134.3 L 329.1 136.5 L 327.8 132.9 Z M 336.0 112.1 L 337.2 114.6 L 334.6 115.8 L 336.5 119.9 L 338.1 119.1 L 340.2 123.5 L 333.6 126.6 L 331.4 122.0 L 333.2 121.2 L 330.2 114.9 Z M 395.7 50.0 L 397.2 49.0 L 397.6 49.6 L 398.3 50.0 L 399.0 50.0 L 399.6 50.2 L 400.0 50.8 L 400.0 51.5 L 399.3 52.1 L 400.2 52.7 L 400.4 53.6 L 399.8 54.0 L 398.9 54.6 L 400.0 55.5 L 396.7 57.8 L 396.3 57.2 L 396.2 56.5 L 395.6 57.4 L 394.2 57.7 L 393.2 56.3 L 392.3 56.2 L 391.8 55.6 L 391.8 55.0 L 392.6 54.4 L 391.7 53.7 L 391.6 52.9 L 392.2 52.5 L 392.6 51.7 L 392.4 51.1 L 391.7 50.6 L 391.7 50.0 L 392.8 49.3 L 394.4 48.2 Z M 242.4 142.5 L 243.9 141.4 L 245.4 143.5 L 243.9 144.6 Z M 271.6 174.8 L 277.1 174.8 L 278.4 175.2 L 278.1 180.6 L 278.7 181.2 L 278.1 181.9 L 278.1 185.1 L 278.7 185.7 L 278.1 186.3 L 278.2 190.5 L 275.1 190.5 L 274.5 191.2 L 274.0 190.6 L 271.7 191.4 L 271.5 190.7 L 266.0 192.4 L 265.4 190.2 L 264.3 188.1 L 270.2 186.4 L 270.1 183.4 L 269.5 182.8 L 270.1 182.2 L 270.1 180.7 L 269.5 180.1 L 270.1 179.6 L 270.0 175.6 L 270.0 174.8 Z M 216.4 187.6 L 219.4 185.1 L 220.0 186.0 L 221.4 185.0 L 221.7 185.5 L 222.4 185.0 L 225.4 189.3 L 223.2 190.9 L 221.9 191.3 L 222.2 192.7 L 222.3 194.2 L 222.8 195.7 L 221.3 196.9 L 220.1 197.2 L 220.2 197.7 L 219.1 197.9 L 219.2 198.5 L 220.3 198.5 L 221.0 199.1 L 221.0 199.9 L 219.5 199.9 L 219.2 199.4 L 219.0 202.4 L 219.6 202.3 L 219.6 203.6 L 219.2 204.6 L 218.8 206.0 L 219.4 206.0 L 219.2 208.3 L 219.6 209.0 L 219.3 209.8 L 218.9 211.1 L 219.5 211.1 L 219.3 212.3 L 219.7 213.5 L 219.1 213.5 L 219.1 214.6 L 219.3 215.5 L 219.7 216.3 L 218.7 216.7 L 218.7 218.0 L 224.2 217.9 L 224.3 222.7 L 223.5 222.7 L 223.5 223.8 L 222.0 223.8 L 222.1 224.4 L 216.1 224.5 L 216.1 225.2 L 214.8 225.2 L 214.8 224.2 L 213.3 224.2 L 213.3 222.6 L 212.4 222.6 L 212.4 220.6 L 213.3 220.6 L 213.3 218.5 L 212.4 218.5 L 212.4 216.6 L 213.2 216.6 L 213.2 215.4 L 212.3 215.4 L 212.3 213.9 L 212.8 211.3 L 212.1 211.3 L 212.3 209.5 L 213.0 209.5 L 213.0 208.3 L 212.4 208.3 L 213.0 208.0 L 213.0 206.7 L 212.2 206.7 L 212.2 205.3 L 212.7 202.6 L 212.0 202.6 L 212.1 200.8 L 212.6 199.5 L 212.1 195.7 L 212.3 194.5 L 213.1 194.1 L 213.3 192.0 L 213.6 191.0 L 215.5 189.1 L 215.4 188.2 Z M 251.6 182.2 L 261.9 215.6 L 255.7 217.5 L 245.5 184.1 Z M 263.7 154.8 L 281.4 146.2 L 285.0 153.6 L 267.2 162.2 Z M 267.7 197.9 L 272.5 197.0 L 277.1 196.5 L 277.8 196.9 L 278.1 198.0 L 277.4 198.1 L 278.0 200.7 L 278.9 200.5 L 279.3 202.6 L 280.0 202.6 L 279.8 206.1 L 279.0 206.1 L 278.9 206.8 L 275.3 206.5 L 275.6 202.0 L 275.2 200.4 L 271.6 201.1 L 273.0 207.4 L 278.8 207.8 L 278.8 208.5 L 279.6 208.6 L 279.4 212.1 L 277.8 212.0 L 276.8 212.4 L 275.6 211.8 L 274.2 212.3 L 273.0 211.7 L 271.6 212.1 L 268.8 211.5 L 268.5 210.2 L 269.2 210.0 L 268.9 208.5 L 268.1 208.6 L 267.8 207.3 L 268.6 207.1 L 268.2 205.6 L 267.5 205.7 L 267.2 204.4 L 268.0 204.3 L 267.6 202.8 L 266.8 202.9 L 266.6 201.6 L 267.3 201.5 L 267.0 199.9 L 268.1 199.6 Z M 388.6 291.8 L 388.7 307.1 L 380.8 307.1 L 380.7 291.9 Z M 197.4 168.4 L 201.4 175.8 L 196.8 178.2 L 192.9 170.8 Z M 353.9 131.8 L 357.5 137.2 L 353.4 140.0 L 352.0 140.3 L 349.9 141.2 L 346.7 136.5 Z M 383.6 86.7 L 385.8 90.1 L 383.2 91.8 L 381.1 88.4 Z M 371.8 112.6 L 382.3 105.5 L 385.2 109.8 L 374.7 116.9 Z M 315.8 148.9 L 317.3 156.4 L 321.7 155.5 L 322.7 160.8 L 311.4 162.0 L 309.1 150.2 Z M 351.7 145.6 L 356.8 144.0 L 357.0 145.4 L 364.0 144.1 L 363.8 143.0 L 366.7 141.6 L 368.6 141.2 L 370.3 150.7 L 367.3 151.3 L 356.2 152.8 L 353.2 153.9 Z M 357.1 166.7 L 363.9 165.8 L 365.0 173.8 L 358.2 174.7 Z M 326.2 285.3 L 347.9 285.0 L 349.4 285.5 L 349.4 287.0 L 350.0 288.8 L 350.6 293.7 L 350.9 295.5 L 352.1 295.8 L 352.1 297.2 L 352.4 300.0 L 352.9 301.7 L 353.6 301.7 L 353.6 304.2 L 353.0 304.2 L 353.0 305.9 L 352.5 308.8 L 352.0 309.7 L 352.7 309.7 L 352.7 311.2 L 347.4 311.1 L 346.5 310.6 L 346.5 308.8 L 345.9 307.3 L 346.5 305.0 L 346.0 304.1 L 345.9 301.4 L 346.4 298.9 L 345.9 296.9 L 345.6 295.6 L 344.6 295.6 L 344.6 294.0 L 343.6 294.0 L 343.6 292.2 L 344.1 290.7 L 340.9 290.8 L 334.3 291.4 L 330.7 290.9 L 330.2 292.3 L 330.7 294.1 L 329.8 294.1 L 329.8 295.8 L 328.8 295.8 L 328.7 299.1 L 328.1 301.6 L 328.7 305.3 L 328.2 307.5 L 328.7 309.1 L 328.3 310.9 L 327.4 310.9 L 322.1 311.6 L 322.1 310.1 L 322.8 310.1 L 322.7 309.2 L 322.1 306.3 L 321.6 304.6 L 321.0 304.6 L 321.0 302.1 L 321.6 302.1 L 321.6 300.4 L 322.2 296.1 L 323.4 295.8 L 323.4 294.0 L 323.6 289.2 L 324.1 287.4 L 324.7 285.8 L 326.2 285.8 Z M 192.6 202.4 L 202.8 222.9 L 200.0 224.3 L 189.8 203.7 Z M 371.3 158.4 L 374.5 158.7 L 375.0 162.3 L 373.1 162.5 L 373.2 163.4 L 370.3 163.9 L 370.5 165.1 L 367.9 165.4 L 367.4 161.7 L 366.8 159.0 Z M 368.4 309.9 L 368.9 313.7 L 363.5 314.4 L 363.0 310.6 Z M 183.9 166.3 L 185.8 169.7 L 184.4 170.5 L 187.1 175.4 L 181.1 178.7 L 178.3 173.7 L 172.0 177.2 L 170.2 174.0 Z M 222.5 156.2 L 226.3 162.9 L 218.7 167.2 L 214.9 160.4 Z M 108.4 299.1 L 98.0 304.0 L 73.4 252.0 L 83.8 247.0 Z M 428.5 95.6 L 433.9 94.9 L 436.0 95.1 L 436.1 96.2 L 436.9 96.1 L 437.2 100.0 L 428.8 100.5 Z M 394.4 61.6 L 397.4 59.6 L 398.6 59.4 L 400.1 61.5 L 399.1 62.1 L 396.5 64.7 Z "/><path class="context-major-road" fill-rule="evenodd" d="M 289.6 128.3 L 289.1 160.7 L 289.1 206.3 L 289.9 279.1  M 440.0 57.4 L 439.5 57.7  M 289.9 279.1 L 289.6 302.4 L 290.0 313.4 L 290.4 315.5 L 291.0 316.5  M 440.0 305.8 L 422.7 311.0 L 410.1 313.3 L 369.2 317.3 L 349.0 318.3 L 293.8 318.5 L 292.3 318.0 L 291.0 316.5  "/><path class="context-road" fill-rule="evenodd" d="M 430.6 44.5 L 384.2 75.6 L 363.3 87.5 L 338.0 102.5 L 332.3 107.4 L 325.3 111.6 L 320.7 114.1 L 307.6 119.2 L 301.3 121.2  M 440.0 13.8 L 415.7 29.7  M 285.1 97.1 L 291.2 108.6  M 250.0 150.8 L 237.6 158.4  M 380.7 239.1 L 352.4 241.4 L 314.5 242.7 L 289.5 242.1  M 305.2 206.0 L 305.5 226.2 L 317.2 225.9 L 319.0 222.8  M 353.3 207.2 L 352.4 241.4  M 379.7 202.2 L 379.7 207.8 L 380.7 239.1  M 318.9 205.6 L 319.0 222.8 L 339.2 223.9 L 342.8 222.4 L 343.7 218.8 L 343.7 206.4  M 439.5 57.7 L 430.6 44.5  M 289.6 128.3 L 250.0 150.8  M 297.4 123.7 L 289.6 128.3  M 379.7 207.8 L 353.3 207.2 L 343.7 206.4 L 318.9 205.6 L 289.1 206.3  M 315.9 252.8 L 315.6 279.0  M 368.0 251.7 L 369.3 267.8  M 294.8 253.0 L 383.0 251.6 L 380.9 284.8 L 371.1 281.3 L 369.2 278.8  M 289.9 279.1 L 369.2 278.8  M 440.0 37.8 L 430.6 44.5  M 415.7 29.7 L 381.2 52.1 L 291.2 108.6  M 440.0 12.7 L 380.6 51.1 L 300.2 101.7 L 299.8 102.4 L 299.8 103.2 L 304.9 111.7 L 305.2 113.0 L 305.1 115.7 L 304.7 117.9 L 302.9 120.1 L 301.3 121.2  M 297.8 104.4 L 305.0 116.2 L 307.6 119.2  M 415.7 29.7 L 418.6 36.2 L 425.6 48.1  M 440.0 61.2 L 439.5 57.7  M 418.6 165.5 L 440.0 166.3  M 289.5 254.3 L 294.8 253.0  M 289.6 297.2 L 263.8 296.9  M 289.6 302.4 L 247.7 302.7  M 247.7 302.7 L 247.5 316.3 L 284.1 316.7 L 284.2 311.7 L 250.9 311.3 L 251.0 302.8  M 5.1 267.5 L 0.0 268.9  M 237.6 158.4 L 183.2 187.5 L 180.1 191.3 L 152.9 204.3 L 105.8 228.0 L 59.8 249.2 L 5.1 267.5  M 418.6 165.5 L 400.5 164.2 L 398.0 141.2 L 389.4 118.2 L 385.8 117.6 L 379.1 118.7 L 371.4 120.7 L 372.6 135.1  M 385.8 117.6 L 391.9 156.6  M 289.4 146.0 L 304.6 144.4 L 310.3 142.9 L 320.5 139.2  M 363.3 87.5 L 374.7 106.2 L 366.0 113.8 L 368.3 117.9 L 370.4 118.6 L 371.4 120.7  M 247.7 302.7 L 240.5 302.5 L 230.3 303.0 L 202.6 310.4 L 192.1 312.9 L 185.4 312.6 L 177.2 309.5 L 168.6 305.6 L 163.9 305.0 L 133.2 307.7 L 119.3 308.0 L 106.7 310.0 L 75.7 309.1 L 26.2 311.9 L 10.9 285.6 L 5.1 267.5  M 247.5 316.3 L 110.0 316.9  M 250.0 150.8 L 242.6 140.9  M 236.0 128.3 L 242.6 140.9  M 67.5 320.0 L 66.1 309.7  M 242.6 140.9 L 188.3 170.3 L 196.4 185.3  M 188.3 170.3 L 182.6 159.7  M 439.5 57.7 L 417.4 75.9 L 413.1 80.9 L 412.4 89.1  M 284.7 195.1 L 284.5 213.8  M 289.1 206.3 L 284.6 206.3  M 289.1 181.9 L 305.0 180.7 L 308.9 179.2 L 310.4 177.3 L 310.7 174.0 L 309.4 169.0 L 309.9 166.2 L 312.4 164.8 L 323.1 163.3  M 390.0 119.9 L 408.5 108.2  M 398.0 141.2 L 415.0 137.0  M 289.1 160.7 L 274.3 164.4 L 253.9 173.7 L 267.3 220.2 L 289.2 218.9  M 209.8 188.1 L 241.1 165.4 L 251.0 165.9 L 253.9 173.7 L 225.8 195.2 L 225.2 226.5 L 238.5 226.4 L 267.3 220.2  M 238.5 226.4 L 240.3 278.9 L 245.8 293.1 L 251.1 296.7 L 251.0 302.8  M 338.0 158.2 L 373.3 152.6  M 350.3 95.3 L 358.6 108.0  M 334.2 106.0 L 341.5 117.6  M 326.3 111.0 L 330.9 119.9  M 11.2 320.0 L 12.6 316.3 L 26.2 311.9  M 287.6 320.0 L 291.0 316.5  M 426.1 263.0 L 427.9 220.5 L 439.4 221.1 L 440.0 199.4  M 202.6 310.4 L 201.5 307.7 L 198.7 295.0 L 197.2 261.7  M 0.0 269.9 L 5.1 267.5  M 5.1 267.5 L 14.4 265.7 L 53.8 254.0 L 72.9 246.2 L 87.1 239.2 L 117.8 223.0 L 141.0 211.9 L 180.6 192.0 L 183.0 188.8 L 247.5 154.5 L 289.6 130.6 L 302.2 124.5 L 301.3 121.2  M 301.3 121.2 L 297.4 123.7  M 191.3 202.2 L 193.6 201.0  M 188.1 203.8 L 191.3 202.2  M 203.6 223.5 L 205.3 222.6  M 205.3 224.4 L 205.4 227.0 L 206.2 229.4  M 205.3 222.6 L 205.3 224.4  M 210.8 244.2 L 213.6 246.4  M 199.0 225.8 L 203.6 223.5  M 200.1 209.3 L 205.0 209.3  M 198.8 205.1 L 204.9 205.1  M 196.5 198.7 L 202.5 198.7  M 202.8 198.3 L 198.4 205.9  M 197.4 195.3 L 204.8 199.4  M 182.5 194.0 L 182.7 192.8 L 183.4 191.1 L 184.6 189.7 L 186.0 188.6 L 189.4 187.5 L 193.0 188.2 L 194.5 189.1 L 195.8 190.4 L 196.7 191.9 L 197.3 193.6 L 197.4 195.3 L 197.2 197.0 L 196.5 198.7 L 195.5 200.1  M 195.8 190.4 L 196.7 191.6 L 197.9 192.5 L 200.8 192.9 L 203.4 191.6 L 204.3 190.4 L 204.8 189.0 L 204.8 187.5 L 204.3 186.1 L 203.4 184.8 L 202.2 184.0 L 200.8 183.5 L 197.8 183.9 L 195.8 186.1 L 195.4 187.5 L 195.4 189.0 L 195.8 190.4  M 193.6 201.0 L 195.5 200.1 L 205.2 219.6  M 208.8 301.4 L 209.7 299.9 L 210.2 298.2 L 210.4 296.5 L 209.9 293.6 L 209.3 292.3  M 209.3 292.3 L 208.3 290.5 L 207.8 288.6 L 207.5 286.6 L 207.7 284.5 L 208.3 282.6 L 209.3 280.8  M 209.3 280.8 L 210.3 278.3 L 210.9 275.6 L 211.2 272.9 L 211.1 270.4 L 210.6 267.9 L 209.8 265.5 L 208.8 263.2  M 208.8 263.2 L 208.0 261.3 L 207.3 257.3 L 207.4 255.3 L 208.2 251.4  M 208.2 251.4 L 209.4 249.1 L 210.3 246.7 L 210.8 244.2 L 211.0 241.6 L 210.8 239.1 L 210.3 236.5 L 209.4 234.0 L 208.1 231.6 L 206.2 229.4  M 205.5 175.6 L 204.7 191.3 L 205.3 222.6  M 185.8 207.1 L 179.0 210.4  M 189.0 205.5 L 185.8 207.1  M 179.0 210.4 L 173.9 213.0 L 173.0 214.6  M 128.9 235.0 L 135.2 231.9  M 141.5 230.3 L 138.6 230.2 L 135.2 231.9  M 126.5 236.2 L 128.9 235.0  M 177.3 231.5 L 148.1 245.8  M 174.8 215.5 L 179.7 225.3  M 179.7 225.3 L 179.9 226.8 L 179.7 228.4 L 179.1 229.6 L 177.3 231.5  M 142.7 228.5 L 171.0 214.6  M 171.0 214.6 L 173.0 214.6 L 174.8 215.5  M 151.9 253.5 L 141.5 232.3  M 141.5 232.3 L 141.5 230.3 L 142.7 228.5  M 139.5 264.8 L 150.5 259.3  M 150.5 259.3 L 151.4 258.1 L 152.0 256.7 L 152.2 255.1 L 151.9 253.5  M 132.3 250.4 L 141.6 269.1  M 187.9 242.1 L 183.7 248.5  M 201.5 242.0 L 187.9 242.1  M 141.6 269.1 L 183.7 248.5  M 213.6 246.4 L 214.7 307.1  M 202.0 293.5 L 202.7 295.3 L 204.9 297.7 L 214.7 307.1  M 201.4 230.6 L 202.0 293.5  M 186.2 200.0 L 201.4 230.6  M 142.6 268.7 L 120.8 224.8 L 183.1 193.8 L 186.2 200.0  M 352.2 156.0 L 350.4 146.5  M 373.3 152.6 L 375.0 152.6 L 376.3 153.7 L 377.9 162.3 L 379.6 162.8 L 390.5 163.4  M 371.1 141.0 L 372.3 138.1 L 372.6 135.1  M 358.6 154.9 L 360.1 164.4  M 373.3 152.6 L 371.1 141.0  M 338.0 158.2 L 334.6 138.5 L 368.3 117.9  M 323.1 163.3 L 338.5 161.3 L 338.0 158.2  M 332.5 285.2 L 332.5 283.2  M 332.6 290.9 L 332.5 285.2  M 332.6 293.4 L 332.6 290.9  M 337.6 308.0 L 337.6 308.7  M 336.5 307.7 L 337.3 308.0 L 338.8 307.4 L 339.2 306.6 L 339.1 305.7 L 338.5 305.0 L 336.9 304.8 L 336.2 305.3 L 335.9 306.1 L 336.0 307.0 L 336.5 307.7  M 337.5 293.4 L 339.9 294.4 L 340.9 295.3 L 341.5 296.3 L 342.1 298.6  M 342.2 308.7 L 342.1 298.6  M 332.8 308.8 L 343.5 308.6  M 332.8 304.8 L 343.4 304.6  M 332.9 311.9 L 332.6 293.4 L 340.5 293.3 L 343.3 295.6 L 343.5 311.7  M 316.6 296.6 L 316.8 312.7  M 309.4 285.1 L 316.6 296.6  M 312.0 283.3 L 319.7 295.5  M 319.7 295.5 L 320.0 312.1  M 354.3 311.6 L 318.1 312.1  M 352.7 291.4 L 354.5 292.7  M 367.7 302.4 L 377.3 302.3  M 354.1 301.8 L 366.7 301.7  M 354.5 292.7 L 367.7 302.4  M 353.9 297.1 L 354.3 313.4  M 351.5 284.2 L 351.7 286.5 L 353.9 297.1  M 348.8 283.1 L 348.8 284.2 L 353.2 284.2  M 325.3 283.2 L 348.8 283.1 L 348.8 278.9  M 310.4 283.3 L 325.3 283.2 L 325.3 279.0  M 290.7 281.6 L 310.4 281.5  M 359.3 291.4 L 365.2 291.4  M 373.0 288.3 L 373.3 289.7 L 373.3 291.1 L 372.7 292.9  M 373.0 288.3 L 371.0 286.2 L 369.7 285.4 L 366.8 284.7  M 368.7 298.3 L 372.7 292.9  M 373.2 282.2 L 371.4 284.6 L 368.7 286.6 L 363.1 294.2  M 354.2 291.5 L 359.3 291.4  M 359.3 291.4 L 368.7 298.3  M 353.2 284.9 L 366.8 284.7  M 353.2 286.9 L 355.2 296.0 L 356.0 300.8 L 356.4 305.8  M 353.2 278.8 L 353.2 286.9  M 318.1 312.6 L 320.2 313.8 L 356.5 313.4 L 356.4 305.8  M 311.3 285.1 L 317.9 295.6  M 317.9 295.6 L 318.1 312.6 L 297.1 312.9  M 310.4 279.1 L 310.4 285.1  M 289.8 285.2 L 311.3 285.1  M 369.2 278.8 L 369.3 267.8  M 420.0 290.4 L 419.9 287.0  M 429.5 287.3 L 420.0 290.4  M 437.6 298.5 L 440.0 297.8  M 423.3 306.5 L 422.4 303.7  M 425.1 305.9 L 435.5 303.1 L 437.9 299.3  M 420.2 307.5 L 425.1 305.9 L 420.0 290.4  M 434.0 287.4 L 437.9 299.3  M 290.9 309.7 L 289.9 309.7  M 437.9 287.5 L 440.0 287.5 M 440.0 304.4 L 419.0 310.9 L 402.6 313.3 L 383.1 315.1 L 358.2 317.0 L 296.0 317.4 L 292.9 315.9 L 292.0 314.9 L 291.0 312.4 L 290.5 302.3 L 290.7 279.1  M 414.6 288.3 L 418.0 286.9 L 437.9 287.5  M 396.8 303.5 L 396.8 302.5  M 392.3 303.6 L 401.1 303.5  M 400.9 284.4 L 401.2 311.3  M 392.1 284.6 L 392.4 311.7  M 418.1 301.2 L 415.4 303.1  M 415.3 292.7 L 420.2 307.5  M 380.1 288.6 L 380.3 307.3 L 383.1 311.9 L 399.4 311.5 L 413.6 309.7 L 420.2 307.5  M 378.8 284.1 L 378.9 288.6 L 415.3 288.3 L 415.5 309.1  M 396.6 284.5 L 396.8 302.5  M 437.9 287.5 L 440.0 294.0  M 418.5 291.8 L 422.4 303.7  M 437.8 283.6 L 437.9 287.5  M 417.8 284.0 L 418.5 291.8  M 440.0 283.6 L 380.9 284.8  M 299.8 251.7 L 299.8 253.0  M 305.7 251.7 L 305.7 252.9  M 313.1 251.7 L 313.1 252.8  M 320.5 251.7 L 320.5 252.7  "/><path class="context-rail" fill-rule="evenodd" d="M 440.0 315.5 L 421.7 320.0  M 433.4 320.0 L 440.0 318.4  "/><path class="context-coastline" fill-rule="evenodd" d="M 426.1 -0.0 L 412.4 5.2 L 391.7 21.6 L 354.6 41.2 L 318.0 56.6 L 276.0 85.4  M 38.5 211.1 L 15.2 221.8 L 5.0 228.4 L 0.0 230.3  M 276.0 85.4 L 246.6 106.5 L 235.5 110.4 L 192.3 137.4 L 145.1 164.9 L 90.2 191.9 L 64.8 201.6 L 38.5 211.1  "/></g><circle class="place-focus-ring" cx="220.0" cy="160.0" r="22"/><path class="place-focus" d="M 220.0 152.0 l 8 8 -8 8 -8 -8 Z"><title>SPA</title></path></svg>